STARTFONT 2.1
FONT -CBS-Song-Medium-R-Normal-Fantizi-40-400-75-75-C-400-CNS11643.1992-2
SIZE 40 80 80
FONTBOUNDINGBOX 40 40 0 -6
STARTPROPERTIES 23
FONTNAME_REGISTRY ""
FOUNDRY "CBS"
FAMILY_NAME "Song"
WEIGHT_NAME "Medium"
SLANT "R"
SETWIDTH_NAME "Normal"
ADD_STYLE_NAME "Fantizi"
PIXEL_SIZE 40
POINT_SIZE 400
RESOLUTION_X 75
RESOLUTION_Y 75
SPACING "C"
AVERAGE_WIDTH 400
CHARSET_REGISTRY "CNS11643.1992"
CHARSET_ENCODING "2"
COPYRIGHT "March 1994 by Central Bureau of Standards, Ministry of Economy, ROC"
WEIGHT 19329
RESOLUTION 110
X_HEIGHT 34
QUAD_WIDTH 40
DEFAULT_CHAR 32382
FONT_ASCENT 34
FONT_DESCENT 6
ENDPROPERTIES
CHARS 7651
STARTCHAR 2121
ENCODING 8481
SWIDTH 903 0
DWIDTH 40 0
BBX 40 40 0 -6
BITMAP
0000000600
00000007c0
0040000780
0040000700
0060000700
0060000700
0020000e00
0030000e00
0030000e00
0030001c00
0018001c00
0018001c00
0018003800
000c003800
000c003800
000e007000
0006007000
000700e000
000300e000
000381c000
0001c1c000
0001c38000
0000e38000
0000770000
00007f0000
00003e0000
00001e0000
00003f0000
00007f8000
0000f3c000
0001e1e000
0003c0f000
0007807c00
000f003f00
001c001fe0
00780007ff
01e00003ff
07800000f8
1e00000038
7000000000
ENDCHAR
STARTCHAR 2122
ENCODING 8482
SWIDTH 903 0
DWIDTH 40 0
BBX 40 40 0 -6
BITMAP
0060000000
007c000000
0078000000
0070000000
0070000000
0070000000
0070000000
0070000000
0070000000
00700000e0
00700001f0
00700ffff8
007ffe00f8
7ff00000e0
00700000e0
00700000e0
00700001c0
00700001c0
00700001c0
0070000380
0070000380
0070000300
0070000700
0070000600
0070000c00
0070000800
0070000000
0070000000
0070000001
0070000001
0070000003
0070000003
0070000006
0070000006
007800000e
007c00001f
003fffffff
001ffffffe
0007fffff8
0000000000
ENDCHAR
STARTCHAR 2123
ENCODING 8483
SWIDTH 903 0
DWIDTH 40 0
BBX 40 40 0 -6
BITMAP
0000000000
0000000000
0000000000
1800000030
1f0000003e
1e0000003c
1c00000038
1c00000038
1c00000038
1c00000038
1c00000038
1c00000038
1c00000038
1c00000038
1c00000038
1c00000038
1c00000038
1c00000038
1c00000038
1c00000038
1c00000038
1c00000038
1c00000038
1c00000038
1c00000038
1c00000038
1c00000038
1c00000038
1c00000038
1c00000038
1c00000038
1c00000038
1c00000038
1c00000038
1c00000038
3ffffffff8
1800000038
0000000038
0000000030
0000000000
ENDCHAR
STARTCHAR 2124
ENCODING 8484
SWIDTH 903 0
DWIDTH 40 0
BBX 40 40 0 -6
BITMAP
0000000000
3000000018
380000003c
3ffffffffe
3800000000
3800000000
3800000000
3800000000
3800000000
3800000000
3800000000
3800000000
3800000000
3800000000
3800000000
3800000000
3800000000
3800000000
3800000000
3800000000
3800000000
3800000000
3800000000
3800000000
3800000000
3800000000
3800000000
3800000000
3800000000
3800000000
3800000000
3800000000
3800000000
3800000000
3800000000
380000000c
380000001e
7fffffffff
3000000000
0000000000
ENDCHAR
STARTCHAR 2125
ENCODING 8485
SWIDTH 903 0
DWIDTH 40 0
BBX 40 40 0 -6
BITMAP
0000000000
0c0000000c
0e0000001e
0fffffffff
0e00000000
0e00000000
0e00000000
0e00000000
0e00000000
0e00000000
0e00000000
0e00000000
0e00000000
0e00000000
0e00000000
0e00000000
0e00000000
0e00000000
0e00000000
0e00000000
0e00000000
0e00000000
1c00000000
1c00000000
1c00000000
1c00000000
1c00000000
1800000000
3800000000
3800000000
3800000000
3000000000
3000000000
7000000000
6000000000
6000000000
c000000000
c000000000
8000000000
0000000000
ENDCHAR
STARTCHAR 2126
ENCODING 8486
SWIDTH 903 0
DWIDTH 40 0
BBX 40 40 0 -6
BITMAP
0000000000
000000000c
000000001e
ffffffffff
0003800000
0003800000
0003800000
0003800000
0003800000
0003800000
0003800000
0003800000
0003800180
00038003c0
0003ffffe0
00038001e0
00038001c0
00038001c0
00070001c0
00070001c0
00070001c0
00070001c0
00070001c0
000e0001c0
000e0001c0
000e0001c0
001c0001c0
001c0001c0
00380001c0
00380003c0
0070000380
0070000380
00e0000780
01c0000700
0380000f00
0700001e00
0e000ffc00
1c0001f800
3800007000
6000006000
ENDCHAR
STARTCHAR 2127
ENCODING 8487
SWIDTH 903 0
DWIDTH 40 0
BBX 40 40 0 -6
BITMAP
0000000000
000000000c
000000001e
ffffffffff
001c007000
001c007000
001c007000
001c007000
001c007000
001c007000
001c007000
001c007000
001c007000
001c007000
001c007000
001c007000
001c007000
001c007000
001c007000
001c007000
001c007000
001c007000
0038007000
0038007000
0038007000
0038007000
0038007000
0070007000
0070007000
0070007000
00e0007000
00e0007000
01c0007000
01c0007000
0380007000
0700007000
0e00007000
1c00007000
3800007000
6000006000
ENDCHAR
STARTCHAR 2128
ENCODING 8488
SWIDTH 903 0
DWIDTH 40 0
BBX 40 40 0 -6
BITMAP
0000001c00
0000007e00
000003ff00
00001ff000
0000ff0000
000ff00000
007ee00000
07f0e00000
0000e00000
0000e00000
0000e00000
0000e00000
0000e00000
0000e00000
0000e00000
0000e00000
0000e00000
0000e00018
0000e0003c
7ffffffffe
0000e00000
0000e00000
0000e00000
0000e00000
0000e00000
0000e00000
0000e00000
0000e00000
0000e00001
0000e00001
0000e00003
0000e00003
0000e00006
0000e00006
0000f0000e
0000f8001f
00007fffff
00003ffffe
00000ffff8
0000000000
ENDCHAR
STARTCHAR 2129
ENCODING 8489
SWIDTH 903 0
DWIDTH 40 0
BBX 40 40 0 -6
BITMAP
0000000000
0000000300
0000000780
03ffffffc0
0000000000
0000000000
0000000000
0000000000
0000000000
0000000000
0000000000
0000000000
0000000018
000000003c
7ffffffffe
00001c0000
00001c0000
00001c0000
00001c0000
00001c0000
00001c0000
00001c0000
00001c0000
00001c0000
00001c0000
00001c0000
00001c0000
00001c0000
00001c0000
00001c0000
00001c0000
00001c0000
00001c0000
00001c0000
00001c0000
00003c0000
001ffc0000
0001f80000
0000700000
0000600000
ENDCHAR
STARTCHAR 212a
ENCODING 8490
SWIDTH 903 0
DWIDTH 40 0
BBX 40 40 0 -6
BITMAP
0000000000
1800000030
1c00000078
1ffffffffc
1c0000003c
1c00000038
1c00000038
1c00000038
1c00000038
1c00000038
1c00000038
1c00000038
1c00000038
1c00000038
1c00000038
1c00000038
1c00000038
1c00000038
1c00000038
1c00000038
1c00000038
1c00000038
1c00000038
1c00000038
1c00000038
1c00000038
1c00000038
1c00000038
1c00000038
1c00000038
1c00000038
1c00000038
1c00000038
1c00000038
1c00000038
1c00000038
1ffffffff8
1c00000038
1c00000030
1800000000
ENDCHAR
STARTCHAR 212b
ENCODING 8491
SWIDTH 903 0
DWIDTH 40 0
BBX 40 40 0 -6
BITMAP
0000300000
00003e0000
00003c0000
0000380000
0000380000
0c003800c0
0f803800f8
0f003800f0
0e003800e0
0e003800e0
0e003800e0
0e003800e0
0e003800e0
0e003800e0
0e003800e0
0e003800e0
0e003800e0
0e003800e0
0e003800e0
0e003800e0
0e003800e0
1fffffffe0
0c003800e0
00003800c0
0000380000
0000380000
0000380000
0000380000
0000380000
0000380000
0000380000
0000380000
0000380000
0000380000
0000380000
0000380000
0000380000
0000380000
0000380000
0000300000
ENDCHAR
STARTCHAR 212c
ENCODING 8492
SWIDTH 903 0
DWIDTH 40 0
BBX 40 40 0 -6
BITMAP
0000030000
000003c000
0000078000
0000070000
00000e0000
00001c0000
0000380000
0000700000
0000e03000
0001c03c00
0003807800
0007007000
000e00e000
003801c000
00e0038000
0000070000
00000e0000
00001c0000
00003c0000
00007c0000
0000fc0000
0001dc0000
00039c0000
00071c0000
000e1c0000
001c1c0000
00701c0000
01c01c0000
00001c0000
00001c0000
00001c0000
00001c0000
00001c0000
00001c0000
00001c0000
00001c0000
00001c0000
00001c0000
00001c0000
0000180000
ENDCHAR
STARTCHAR 212d
ENCODING 8493
SWIDTH 903 0
DWIDTH 40 0
BBX 40 40 0 -6
BITMAP
0000000000
000000000c
000000001e
ffffffffff
0000380000
0000380000
0000380000
0000380000
0000380000
0300380000
03e0380180
03c03803c0
03803fffe0
03803801e0
03803801c0
03803801c0
03803801c0
03803801c0
03803801c0
03803801c0
03803801c0
03803801c0
07ffffffc0
03000001c0
00000001c0
00000001c0
00000001c0
00000001c0
00000001c0
00000003c0
0000000380
0000000380
0000000780
0000000700
0000000f00
0000001e00
00001ffc00
000001f800
0000007000
0000006000
ENDCHAR
STARTCHAR 212e
ENCODING 8494
SWIDTH 903 0
DWIDTH 40 0
BBX 40 40 0 -6
BITMAP
0001800000
0001f00000
0001e00000
0001c00000
0001c00000
0003c0000c
000380001e
ffffffffff
0007000000
0007000000
000e000000
000e000000
001c000600
001c000f00
003fffff80
0078000780
0078000700
00f8000700
01f8000700
03b8000700
0738000700
0e38000700
1c38000700
3838000700
e038000700
0038000700
0038000700
0038000700
0070000700
0070000700
0070000700
0070000700
00e0000700
00e0000700
01c0000700
01c0000f00
038007ff00
0700007e00
0e00001c00
3800001800
ENDCHAR
STARTCHAR 212f
ENCODING 8495
SWIDTH 903 0
DWIDTH 40 0
BBX 40 40 0 -6
BITMAP
0060000000
007c000000
0078000000
0070000000
0070000000
0070000000
0070000030
0070000078
007ffffffc
00e0000000
00e0000000
00e0000000
00e0000000
00e0000000
00e0000060
00e00000f0
01fffffff8
00c0000078
0000000070
0000000070
0000000070
0000000070
0000000070
0000003070
0000007870
7ffffffc70
0000000070
0000000070
0000000070
00000000f0
00000000e0
00000000e0
00000001e0
00000001c0
00000003c0
0000000780
000007ff00
0000007e00
0000001c00
0000001800
ENDCHAR
STARTCHAR 2130
ENCODING 8496
SWIDTH 903 0
DWIDTH 40 0
BBX 40 40 0 -6
BITMAP
0000000000
0000001800
0000003c00
3ffffffe00
0007001e00
0007001c00
0007001c00
0007001c00
0007001c00
0007001c00
0007001c00
0007041c00
00070e1c00
07ffff1c00
0007001c00
0007001c00
0007001c00
0007001c00
0007001c00
0007001c00
0007001c00
0007021c00
0007071c00
0fffff9c00
0007001c00
0007001c00
0007001c00
0007001c00
0007001c00
0007001c01
0007001c01
0007001c03
0007001c03
0007001c06
0007001c06
0007001e0e
0007001fff
0007000fff
00070007fe
0006000000
ENDCHAR
STARTCHAR 2131
ENCODING 8497
SWIDTH 903 0
DWIDTH 40 0
BBX 40 40 0 -6
BITMAP
0000000000
0000000000
0000000180
00000003c0
07ffffffe0
0000000000
0000000000
0000000000
0000000000
0000000000
0000000000
0000000000
0000000000
000000000c
000000001e
ffffffffff
001c007000
001c007000
001c007000
001c007000
001c007000
001c007000
001c007000
0038007000
0038007000
0038007000
0038007000
0070007000
0070007000
0070007000
00e0007000
00e0007000
01c0007000
01c0007000
0380007000
0700007000
0e00007000
1c00007000
3800007000
6000006000
ENDCHAR
STARTCHAR 2132
ENCODING 8498
SWIDTH 903 0
DWIDTH 40 0
BBX 40 40 0 -6
BITMAP
003000c000
003e00f800
003c00f000
007800e000
007000e000
007000e000
00e000e000
00e000e000
01c000e000
01c000e00c
038000e01e
0381ffffff
078000e00f
078000e00e
0f8000e00e
0f8000e00e
1f8000e00e
3b8000e00e
338000e00e
638001c00e
c38001c00e
038001c00e
038001c00e
038001c00e
038003800e
038003800e
038003800e
038007000e
038007001e
03800e001c
03800e001c
03801c001c
03801c003c
0380380038
0380700078
0380e000f0
0381c07fe0
0383800fc0
038e000380
0338000300
ENDCHAR
STARTCHAR 2133
ENCODING 8499
SWIDTH 903 0
DWIDTH 40 0
BBX 40 40 0 -6
BITMAP
0030000000
003e000000
003c300300
0078380780
00703fffc0
00703803c0
00e0380380
00e0380380
01c0380380
01c0380380
0380380380
0380380380
0780380380
0780380380
0f80380380
0f80380380
1f80380380
3b80380380
3380380380
6380380380
c380380380
0380380380
0380380380
0380380380
0380380380
0380380380
0380700380
0380700380
0380700380
0380700380
0380600380
0380e00381
0380e00381
0380c00383
0381c00383
03818003c6
03838003ff
03830001ff
03860000fe
030c000000
ENDCHAR
STARTCHAR 2134
ENCODING 8500
SWIDTH 903 0
DWIDTH 40 0
BBX 40 40 0 -6
BITMAP
0060018000
007c00c000
0078006000
0070006000
00f0003000
00e0003000
00e0003000
01c0183800
01c01e1800
03801c1800
03801c1800
07801c1c00
07801c0c00
0f801c0c00
0f801c0c00
1f801c0c00
3b801c0e00
33801c0600
63803c0600
c380380700
0380380700
0380380300
0380380300
0380380380
0380700380
0380700180
03807001c0
03807001c0
0380e000e0
0380e000e0
0381c000f0
0381c00070
0381800078
038380003c
038300003e
038700001f
038600001f
038c00000e
0398000006
0330000000
ENDCHAR
STARTCHAR 2135
ENCODING 8501
SWIDTH 903 0
DWIDTH 40 0
BBX 40 40 0 -6
BITMAP
0000300000
00003e0000
00003c0000
0000380000
0000380000
0000380000
0000380000
0800380018
080038003c
1ffffffffe
180038003e
3800380038
7800380030
7000380060
6000380040
0000380000
0000760000
0000778000
0000770000
0000770000
0000e70000
0000e70000
0000e70000
0001c70000
0001c70000
0003870000
0003870000
0007070000
0007070000
000e070000
000e070001
001c070001
0038070003
0070070003
00e0078006
01c007c00e
038003ffff
070001ffff
1c00007ffe
7000000000
ENDCHAR
STARTCHAR 2136
ENCODING 8502
SWIDTH 903 0
DWIDTH 40 0
BBX 40 40 0 -6
BITMAP
0180000000
01f0000000
01e0000000
01c0000000
03c0000000
0380000018
038000003c
07fffffffe
070000001e
070000001c
0e0600001c
0e07c0001c
1c0780001c
180700001c
380700001c
300706001c
60070f001c
43ffff801c
000707801c
000707001c
000707001c
000e07001c
000e07001c
000e07001c
001c07001c
001c07021c
003807021c
003807061c
007007061c
00e0078c1c
01c007fe3c
038003fe38
070001fc38
1c00000078
0000000070
00000001f0
000003ffe0
0000003fc0
0000000780
0000000700
ENDCHAR
STARTCHAR 2137
ENCODING 8503
SWIDTH 903 0
DWIDTH 40 0
BBX 40 40 0 -6
BITMAP
0003000000
0007800000
001fc00000
007e060030
19f0070078
1f8007fffc
1c0007003c
1c00070038
1c00070038
1c00070038
1c00070038
1c00070038
1c00070038
1c00070038
1c00070038
1c00070038
1c00070038
1c00070038
1c00070038
1c00070038
1c00070038
1c00070038
1c00070038
1c00070038
1c00070038
1c03870038
1c1e070038
1c78070038
1fe0070038
1f80070078
1e00071ff8
1c000703f0
0c000700e0
00000700c0
0000070000
0000070000
0000070000
0000070000
0000070000
0000060000
ENDCHAR
STARTCHAR 2138
ENCODING 8504
SWIDTH 903 0
DWIDTH 40 0
BBX 40 40 0 -6
BITMAP
0003000000
0003e00000
0003c00000
0003800000
0003800000
0003803000
0003807800
0ffffffc00
0003803c00
0003803800
0003803800
0007003800
0007003800
0007003800
000e003801
000e003801
001c003803
001c003803
0038003806
0070003c0e
00e0003fff
01c0c01fff
0380f80ffe
0e00f00000
3801e00000
0001c00000
0003c00000
0003800000
0007000000
000e003000
001c001c00
0038000e00
0070000700
00e0000380
01c00001c0
038007ffe0
07ffff80f0
07ff0000f0
03c0000070
01c0000030
ENDCHAR
STARTCHAR 2139
ENCODING 8505
SWIDTH 903 0
DWIDTH 40 0
BBX 40 40 0 -6
BITMAP
0000060000
018007c000
01f0078000
01e0070000
01c0070000
01c0070000
01c0070000
01c0070000
01c0070000
01c0070000
01c0070000
01c2070000
01c7070000
7fff870000
01c0070000
01c0070000
01c0070000
01c0070000
01c0070000
01c0070000
01c0070000
01c0070000
01c0070000
01c0070000
01c0070000
01c0070000
01c3c70000
01df070000
01fc070001
0fe0070001
ff80070003
fc00070003
7000070006
3000070006
000007000e
000007801f
000007ffff
000003fffe
000001fff8
0000000000
ENDCHAR
STARTCHAR 213a
ENCODING 8506
SWIDTH 903 0
DWIDTH 40 0
BBX 40 40 0 -6
BITMAP
0000001800
0000003c00
3ffffffe00
0000003e00
0000003800
0000003800
0000003800
0300007000
03e0007000
03c0007000
038000e000
038000e000
038060e018
0700f0e03c
07fff9fffe
0f00f8c01e
0f00e0001c
0d80e0001c
1d80e0001c
1881c0001c
30c1c0001c
60c380001c
406380001c
006700001c
003700001c
003e00001c
001c00001c
003e00001c
007700003c
00e3c00038
01c1f00038
0380ff0038
07007f0078
0e003c0070
38000c00f0
e0000001e0
000000ffc0
0000001f80
0000000700
0000000600
ENDCHAR
STARTCHAR 213b
ENCODING 8507
SWIDTH 903 0
DWIDTH 40 0
BBX 40 40 0 -6
BITMAP
0000600000
00007c0000
0000780000
0000700000
0000700000
0000700000
0000700000
0000700600
0000700f00
07ffffff80
0000700780
0000700700
0000700700
0000700700
0000700700
0000700700
0000700700
0000700700
0000700700
0000700704
000070070e
ffffffffff
0000e00000
0000e00000
0000e00000
0001c00000
0001c00000
000380e000
0003803800
0007001e00
0007000f00
000e0007c0
001c0003e0
00380001f0
00700000f8
00e000007c
01c000003c
038000001c
0e0000000c
7800000000
ENDCHAR
STARTCHAR 213c
ENCODING 8508
SWIDTH 903 0
DWIDTH 40 0
BBX 40 40 0 -6
BITMAP
0000300000
00003e0000
00003c0000
0000380000
0000380000
0000380000
00c0380000
00f8381c00
00f0380700
00e0380380
01c03801c0
01c03800e0
0380380070
0380380078
070038003c
060038003c
0c0038001c
180038001c
300038000c
6000380000
0000380000
0000380000
0e00380000
0300380000
0180300000
00e0000000
0070000000
003c000000
001e000000
0007800000
0003e00000
0000f80000
00007e0000
00001fc000
000007f800
000001ff80
0000007fff
0000000fff
00000003fc
000000003c
ENDCHAR
STARTCHAR 213d
ENCODING 8509
SWIDTH 903 0
DWIDTH 40 0
BBX 40 40 0 -6
BITMAP
0000300000
00003e0000
00003c0000
0000380000
0000380000
0000380000
000038000c
000038001e
ffffffffff
0000380000
0000380000
0000380000
0000380000
0000380000
0c003800c0
0e003801e0
0ffffffff0
0e003800f0
0e003800e0
0e003800e0
0e003800e0
0e003800e0
0e003800e0
0e003800e0
0e003800e0
0e003800e0
0e003800e0
0e003800e0
0e003800e0
0e003801e0
0e00387fe0
0e00380fc0
0e00380380
0c00380300
0000380000
0000380000
0000380000
0000380000
0000380000
0000300000
ENDCHAR
STARTCHAR 213e
ENCODING 8510
SWIDTH 903 0
DWIDTH 40 0
BBX 40 40 0 -6
BITMAP
0000000000
00000000c0
03000001e0
03fffffff0
03800e0000
03800e0000
03800e0000
03800e0000
03800e0000
03800e0000
07001c0000
07001c0000
07001c0000
07001c0000
07001c0018
07001c003c
0ffffffffe
060039c000
000039c000
000071c000
000071c000
000071c000
0000e1c000
0000e1c000
0001c1c000
0001c1c000
000381c000
000381c000
000701c000
000701c000
000e01c001
001c01c001
003801c003
007001c003
00e001c006
01c001e00e
038001ffff
070000ffff
1c00007ffe
7000000000
ENDCHAR
STARTCHAR 213f
ENCODING 8511
SWIDTH 903 0
DWIDTH 40 0
BBX 40 40 0 -6
BITMAP
0000000000
0000006000
001800f000
001ffff800
001c007800
001c007000
001c007000
001c007000
001c007000
001c007000
0038007000
0038007000
0070007000
0070007800
00e0007ffc
01c0003ffe
0380001ffe
0700000000
0e00000000
1c00003c00
70fffffe00
0010003e00
0018003800
0008003800
000c007000
0006007000
000700e000
000381c000
0001c38000
0000e70000
00007e0000
00003c0000
00007e0000
0000ff8000
0001e3e000
000781fe00
001e007ffe
0078001ffe
03c00007f0
3e000000f0
ENDCHAR
STARTCHAR 2140
ENCODING 8512
SWIDTH 903 0
DWIDTH 40 0
BBX 40 40 0 -6
BITMAP
0000000000
0000000300
0180000780
01ffffffc0
01c01c03c0
01c01c0380
01c01c0380
01c01c0380
01c01c0380
01c01c0380
01c01c0380
01c01c0380
01c01c0380
01c01c0380
01c01c0380
0380380380
0380380380
0380380384
038038038e
ffffffffff
0380380380
0380380380
0380380380
0380380380
0380380380
0380380380
0700700380
0700700380
0700700380
0700700380
0700700380
0700700380
0700700380
0700700380
0700700380
0700700380
0fffffff80
0600000380
0000000300
0000000000
ENDCHAR
STARTCHAR 2141
ENCODING 8513
SWIDTH 903 0
DWIDTH 40 0
BBX 40 40 0 -6
BITMAP
0300000000
03e0000000
03c0000000
0380000060
03800000f0
07fffffff8
0700000000
0700000000
0700000000
0e00000100
0e00000380
0fffffffc0
1c00000000
1c00000000
3800000000
3800000600
3000000f00
67ffffff80
c000000780
0000000700
0000000700
0000000700
0000000700
0000000700
0000000700
0000000380
0000000380
0000000380
0000000380
00000001c0
00000001c1
00000001c1
00000000e3
00000000e3
0000000076
000000007e
000000003e
000000001f
000000000f
0000000006
ENDCHAR
STARTCHAR 2142
ENCODING 8514
SWIDTH 903 0
DWIDTH 40 0
BBX 40 40 0 -6
BITMAP
0000000600
00300007c0
003e000780
003c000700
0038000700
0038000700
0038000700
0038000700
0038000700
0038000700
0038000700
0038000700
0038000700
0038000700
007fffff00
0030000700
0000000700
0000000700
0000000700
0000000700
0000000700
0060000700
007fffff00
0070000700
0070000700
0070000700
0070000700
0070000700
0070000700
00e0000700
00e0000700
00e0000700
01c0000700
01c0000700
0380000700
0700000700
0e00000700
1c00000700
3800000700
6000000600
ENDCHAR
STARTCHAR 2143
ENCODING 8515
SWIDTH 903 0
DWIDTH 40 0
BBX 40 40 0 -6
BITMAP
000600c000
0007c0f800
000780f000
000700e000
000700e000
180700e030
1f0700e03e
1e0700e03c
1c0700e038
1c0700e038
1c0700e038
1c0700e038
1c0700e038
1c0700e038
1c0700e038
1c0700e038
1c0700e038
1c0700e038
1c0700e038
1c0700e038
1c0700e038
3fff00fff8
180700e038
000700e030
000700e000
000e00e000
000e00e000
000e00e000
000e00e000
001c00e000
001c00e000
003800e000
003800e000
007000e000
00e000e000
01c000e000
038000e000
070000e000
1c0000e000
700000c000
ENDCHAR
STARTCHAR 2144
ENCODING 8516
SWIDTH 903 0
DWIDTH 40 0
BBX 40 40 0 -6
BITMAP
0018006000
001f007c00
001e007800
001c007000
001c007000
001c007000
001c007000
001c007000
001c007030
001c007078
3ffffffffc
001c007000
001c007000
001d807000
001ce07000
001c707000
001c387000
001c3c7000
001c1c7000
001c1c7000
001c0c7000
001c00700c
001c00701e
ffffffffff
0038007000
0038007000
0038007000
0038007000
0070007000
0070007000
0070007000
00e0007000
00e0007000
01c0007000
0380007000
0700007000
0e00007000
1c00007000
3800007000
6000006000
ENDCHAR
STARTCHAR 2145
ENCODING 8517
SWIDTH 903 0
DWIDTH 40 0
BBX 40 40 0 -6
BITMAP
0060000000
007c000000
0078000000
0070000018
00f000003c
00e7fffffe
00e0000000
01c0000000
01c0000000
0380000000
0380000000
0700000000
0700000000
0f00000000
0f00000000
1f00000000
3f00000000
3700000000
6700000040
c7000000e0
0700fffff0
0700000000
0700000000
0700000000
0700000000
0700000000
0700000000
0700000000
0700000000
0700000000
0700000000
0700000000
0700000000
0700000000
070000000c
070000001e
071fffffff
0700000000
0700000000
0600000000
ENDCHAR
STARTCHAR 2146
ENCODING 8518
SWIDTH 903 0
DWIDTH 40 0
BBX 40 40 0 -6
BITMAP
0030000000
003e000000
003c000000
0078000000
0070000020
0070000070
00e3fffff8
00e000e000
01c000e000
01c000e000
038000e000
038000e000
078000e000
078000e000
0f8000e000
0f8000e000
1f8000e000
3b8000e000
338000e000
638000e000
c38000e000
038000e000
038000e000
038000e000
038000e000
038000e000
038000e000
038000e000
038000e000
038000e000
038000e000
038000e000
038000e000
038000e000
038000e00c
038000e01e
039fffffff
0380000000
0380000000
0300000000
ENDCHAR
STARTCHAR 2147
ENCODING 8519
SWIDTH 903 0
DWIDTH 40 0
BBX 40 40 0 -6
BITMAP
0060030000
007c03e000
007803c000
0070038000
00f0038000
00e0038000
00e0038000
01c0038000
01c0038000
0380038000
0380038000
0780038000
0780038000
0f80038000
0f80038060
1f800380f0
3b8003fff8
3380038000
6380038000
c380038000
0380038000
0380038000
0380038000
0380038000
0380038000
0380038000
0380038000
0380038000
0380038000
0380038000
0380038000
0380038000
0380038000
0380038000
0380038000
038003800c
038003801e
03bfffffff
0380000000
0300000000
ENDCHAR
STARTCHAR 2148
ENCODING 8520
SWIDTH 903 0
DWIDTH 40 0
BBX 40 40 0 -6
BITMAP
00300c0000
003e0f8000
003c0f0000
00780e0000
00701c0000
00701c0000
00e0380018
00e038003c
01c07ffffe
01c0700000
0380e00000
0381c00000
0781800000
0783000000
0f86000180
0f840003c0
1f80ffffe0
3b800003e0
3380000780
6380000e00
c380001c00
0380003800
0380007000
038000e000
038001c000
0380038000
0380070000
03800e0000
03801c0000
0380380000
0380700001
0380e00001
0380e00003
0381c00003
0381c00006
0381e0000e
0381ffffff
0380ffffff
03803ffffe
0300000000
ENDCHAR
STARTCHAR 2149
ENCODING 8521
SWIDTH 903 0
DWIDTH 40 0
BBX 40 40 0 -6
BITMAP
0000300000
00003c0000
0000780000
0000780000
0000fc0000
0000e60000
0001c30000
0003818000
000380c000
0007006000
000e003000
001c001c00
0038000e00
0070000780
00e00003e0
01c00001f8
03800000ff
070000003f
0e0000061e
3800000f06
e1ffffff80
0000380000
0000380000
0000380000
0000380000
0000380000
0000380000
0000380000
0000380000
0000380000
0000380000
0000380000
0000380000
0000380000
0000380000
0000380000
0000380030
0000380078
3ffffffffc
0000000000
ENDCHAR
STARTCHAR 214a
ENCODING 8522
SWIDTH 903 0
DWIDTH 40 0
BBX 40 40 0 -6
BITMAP
0000300000
00003c0000
0000780000
0000780000
0000fc0000
0000e60000
0001c30000
0003818000
000700c000
000e007000
001c003800
0038001c00
0070000f00
00e00007c0
01c03003f8
03803e01ff
07003c007f
0e0038003c
380038000c
e000380000
0000380000
0000380000
0300380300
03e03803e0
03c03803c0
0380380380
0380380380
0380380380
0380380380
0380380380
0380380380
0380380380
0380380380
0380380380
0380380380
0380380380
0380380380
07ffffff80
0300000380
0000000300
ENDCHAR
STARTCHAR 214b
ENCODING 8523
SWIDTH 903 0
DWIDTH 40 0
BBX 40 40 0 -6
BITMAP
0001800018
0001f0001f
0001e0001e
0001c0001c
0001c0001c
0001c0181c
0001c01f1c
0001c01e1c
0001c21c1c
0001c71c1c
ffffff9c1c
0001c01c1c
0001c01c1c
0001c01c1c
0001c01c1c
0c01c01c1c
0601c01c1c
0301c01c1c
0381c01c1c
01c1c01c1c
01c1c01c1c
00c1c01c1c
00c1c01c1c
0001c01c1c
0001c01c1c
0001c01c1c
0001c01c1c
0001c01c1c
0001c01c1c
0001c0181c
0001c0001c
0001c0001c
0001c0001c
0001c0001c
0001c0001c
0003c0003c
00ffc00ffc
001f8001f8
0007000070
0006000060
ENDCHAR
STARTCHAR 214c
ENCODING 8524
SWIDTH 903 0
DWIDTH 40 0
BBX 40 40 0 -6
BITMAP
0300000018
03e000001f
03c000001e
038000001c
038000001c
038000181c
07000c1f1c
07001e1e1c
0fffff1c1c
0e00001c1c
1c00001c1c
1800001c1c
3000001c1c
6000001c1c
c000001c1c
0000c01c1c
0001e01c1c
1ffff01c1c
0001f01c1c
0003c01c1c
0007001c1c
000e001c1c
001c001c1c
0038001c1c
0070001c1c
00e0001c1c
01c0001c1c
0380001c1c
0700001c1c
0e0000181c
1c0001001c
1c0001001c
380003001c
380003001c
380006001c
3c000e003c
1fffff0ffc
0fffff01f8
03fffe0070
0000000060
ENDCHAR
STARTCHAR 214d
ENCODING 8525
SWIDTH 903 0
DWIDTH 40 0
BBX 40 40 0 -6
BITMAP
0000000000
3000000018
380000003c
3ffffffffe
3800000000
3800000000
38000c0000
38000f8000
380c0f0000
380f8e0000
380f0e0000
380e0e0000
380e0e0600
380e0e0f00
380e0fff80
380ffe0f80
39fe0e0e00
380e0e0e00
380e0e0e00
380e0e1c00
380e0e1c00
380e0e1800
380e0e3800
380e0e3000
380e0e2000
380e0e0000
380e0c0020
380e000020
380e000060
380e000060
380f0000c0
380fffffe0
3807ffffe0
3803ffffc0
3800000000
380000000c
380000001e
7fffffffff
3000000000
0000000000
ENDCHAR
STARTCHAR 214e
ENCODING 8526
SWIDTH 903 0
DWIDTH 40 0
BBX 40 40 0 -6
BITMAP
06000000c0
07c00000f8
07800000f0
07030180e0
0703e1f0e0
0703c1e0e0
070381c0e0
070381c0e0
070381c0e0
070381c0e0
070381c0e0
070381c0e0
070381c0e0
070381c0e0
070381c0e0
070381c0e0
070381c0e6
ffffffffff
070381c0e0
070381c0e0
070381c0e0
070381c0e0
070381c0e0
070381c0e0
070381c0e0
070381c0e0
070381c0e0
0f0381c0e0
0e0381c0e0
0e0381c0e0
1e0381c0e0
1c0381c0e0
1c0381c0e0
380381c0e0
380381c0e0
700381c0e0
60030180e0
c0000000e0
80000000e0
00000000c0
ENDCHAR
STARTCHAR 214f
ENCODING 8527
SWIDTH 903 0
DWIDTH 40 0
BBX 40 40 0 -6
BITMAP
0000000000
0300000000
03e000000c
03c000001e
0381ffffff
0380003800
0380003800
0380003800
0380003800
0380003800
0380003800
0388003800
039c003800
7ffe003800
0380003800
0380003800
0380003800
0380003800
0380003800
0380003800
0380003800
0380003800
0380003800
0380003800
0380003800
0380003800
0387003800
03bc003800
03f0003800
0fc0003800
ff00003800
fc00003800
7000003800
3000003800
0000003800
0000007800
00001ff800
000003f000
000000e000
000000c000
ENDCHAR
STARTCHAR 2150
ENCODING 8528
SWIDTH 903 0
DWIDTH 40 0
BBX 40 40 0 -6
BITMAP
0000000000
0000000c00
0000001e00
03ffffff00
0020001f00
0030001c00
0018003800
001c003800
000e007000
000700e000
000381c000
0001c38000
0000e70000
00007e0000
00007c0000
0000fe0000
0001ef8000
000783f000
000f01ff00
003c007fff
00f0301fff
03c03e03f8
1e003c0078
f000380000
0000380000
0000380000
0000380200
0000380700
01ffffff80
0000380000
0000380000
0000380000
0000380000
0000380000
0000380000
0000380000
0000380030
0000380078
3ffffffffc
0000000000
ENDCHAR
STARTCHAR 2151
ENCODING 8529
SWIDTH 903 0
DWIDTH 40 0
BBX 40 40 0 -6
BITMAP
00c0000000
00f8000000
00f0000000
00e0000000
00e0018030
00e0c1c078
01c1e1fffc
01fff1c03c
01c0f1c038
01c0e1c038
0380e1c038
0380e1c038
0380e1c038
0700e1c038
0701c1c038
0601c1c038
0f01c1c038
0fc1c1c038
0ce381c038
1c7381c038
183b81c038
383f01c038
301f01c038
600701c038
400e01c078
000e01dff8
001c01c3f0
001c01c0e0
003801c0c0
003801c000
007001c001
00e001c001
00e001c003
01c001c003
038001c006
070001e00e
0e0001ffff
1c0000ffff
3800007ffe
6000000000
ENDCHAR
STARTCHAR 2152
ENCODING 8530
SWIDTH 903 0
DWIDTH 40 0
BBX 40 40 0 -6
BITMAP
0000300000
00003e0000
00003c0000
0000380000
0000380000
0000700018
000070003c
7ffffffffe
0000ec0000
0001c60000
0001c30000
0003818000
000700e000
000e007000
001c003c00
0038001f00
0070c007e0
00e0f803ff
01c0f000ff
0700e0003c
1c00e0000c
f000e00300
0000e00780
03ffffffc0
0000e003c0
0001c00380
0001c00380
0001c00380
0003800380
0003800380
0007000380
0007000380
000e000780
001c000700
0038000f00
0070001e00
00e01ffc00
01c001f800
0700007000
3c00006000
ENDCHAR
STARTCHAR 2153
ENCODING 8531
SWIDTH 903 0
DWIDTH 40 0
BBX 40 40 0 -6
BITMAP
0000c00000
0000700000
0000380000
08001c0000
08001c000c
18000c001e
1fffffffff
380000001f
700000001c
f000000018
e000000030
c000000020
0000000000
0000000008
000000001c
7ffffffffe
00001c0000
00001c0000
00001c0000
00001c0000
00001c0000
00001c0000
00001c0000
00001c0000
00001c0000
00001c0000
00001c0000
00001c0000
00001c0000
00001c0000
00001c0000
00001c0000
00001c0000
00001c0000
00001c0000
00003c0000
001ff80000
0003f00000
0000e00000
0000c00000
ENDCHAR
STARTCHAR 2154
ENCODING 8532
SWIDTH 903 0
DWIDTH 40 0
BBX 40 40 0 -6
BITMAP
0000c00000
0000700000
0000380000
08001c0000
08001c000c
18000c001e
1fffffffff
380000001f
700000001c
f000c00018
e000f80030
c000f00020
0000e00000
0000e00000
0000e00000
0000e01800
0000e03c00
03fffffe00
0000e01e00
0000e01c00
0000e01c00
0000e01c00
0001c01c00
0001c01c00
0001c01c00
0003801c00
0003801c00
0007001c00
0007001c00
000e001c00
000e001c01
001c001c01
0038001c03
0070001c03
00e0001c06
01c0001e0e
0380001fff
0700000fff
1c000007fe
7000000000
ENDCHAR
STARTCHAR 2155
ENCODING 8533
SWIDTH 903 0
DWIDTH 40 0
BBX 40 40 0 -6
BITMAP
0000300000
00003c0000
0000780000
0000780000
0000fc0000
0000e60000
0001c30000
0003818000
000700c000
000e007000
001c003800
0038001c00
0070180f00
00e01f07c0
01c01e03f8
03801c01ff
07001c007f
0e001c003c
38001c000c
e0001c0000
00301c0000
003e1c3000
003c1c1c00
00381c0e00
00701c0700
00701c0380
00e01c01c0
00e01c01e0
01c01c00f0
03801c0078
03001c007c
06001c003c
0c001c003c
18001c001c
30001c000c
60003c0000
000ffc0000
0001f80000
0000700000
0000600000
ENDCHAR
STARTCHAR 2156
ENCODING 8534
SWIDTH 903 0
DWIDTH 40 0
BBX 40 40 0 -6
BITMAP
0000000000
1800000060
1c000000f0
1ffffffff8
1c00000078
1c00000070
1c00000070
1c00000070
1c00000070
1ffffffff0
1c00000070
1c00000060
1c00600000
1c007c0000
1c00780000
1c00700000
1c00700000
1c00701800
1c00703c00
1c7ffffe00
1c00701e00
1c00701c00
1c00701c00
1c00701c00
1c00e01c00
1c00e01c00
3800e01c00
3800e01c00
3801c01c00
3801c01c00
3003801c01
7003801c01
7007001c03
600e001c03
601c001c06
c038001e0e
c070001fff
80e0000fff
03800007fe
0e00000000
ENDCHAR
STARTCHAR 2157
ENCODING 8535
SWIDTH 903 0
DWIDTH 40 0
BBX 40 40 0 -6
BITMAP
0000300000
00003e0000
0c003c00c0
0f803800f8
0f003800f0
0e003800e0
0e003800e0
0e003800e0
0e003800e0
0e003800e0
1fffffffe0
0c000000e0
0000c000c0
0000f80000
0000f00000
0000e00000
0000e00000
0000e000c0
0000e001e0
0ffffffff0
0000e000f0
0000e000e0
0000e000e0
0000e000e0
0001c000e0
0001c000e0
0001c000e0
00038000e0
00038000e0
00070001e0
00070001c0
000e0001c0
001c0003c0
0038000380
0070000780
00e0001f00
01c00ffe00
070000fc00
1c00003800
7000003000
ENDCHAR
STARTCHAR 2158
ENCODING 8536
SWIDTH 903 0
DWIDTH 40 0
BBX 40 40 0 -6
BITMAP
0003800000
0000e00000
0000380000
00007c0000
0000fe0000
0000e70000
0001c38000
000381c000
000700e000
000e007000
001c003c00
0038001e00
0070000f80
00e00007f0
01c03003ff
03803e00ff
0e003c007c
380038001c
e000380000
0000380000
0000380000
0000380000
0300380300
03e03803e0
03c03803c0
0380380380
0380380380
0380380380
0380380380
0380380380
0380380380
0380380380
0380380380
0380380380
0380380380
0380380380
0380380380
07ffffff80
0300000380
0000000300
ENDCHAR
STARTCHAR 2159
ENCODING 8537
SWIDTH 903 0
DWIDTH 40 0
BBX 40 40 0 -6
BITMAP
0180000000
01f0000000
01e0000004
01c000000e
01c07fffff
01c0000e00
01c0000e00
61c6000e00
71cf000e00
7fff800e00
71c7800e00
71c7000e00
71c7000e00
71c7000e00
71c7000e00
71c7000e00
71c7000e00
71c7000e00
71c7000e00
71c7000e00
71c7000e00
71c7000e00
71c7000e00
71c7000e00
71c7000e00
71c7000e00
71c7000e00
71ff000e00
71ce000e00
61cc000e00
01c0000e00
01c0000e00
01c0000e00
01c0000e00
01c0000e00
01c0001e00
01c007fe00
01c000fc00
01c0003800
0180003000
ENDCHAR
STARTCHAR 215a
ENCODING 8538
SWIDTH 903 0
DWIDTH 40 0
BBX 40 40 0 -6
BITMAP
0000300000
00001c0000
00000e0000
0c000e000c
0e0006001e
0fffffffff
0e00000000
0e00000000
0e06000000
0e07c00000
0e07800000
0e07000000
0e07000000
0e07000000
0e07000000
0e07000000
0e070001c0
0e070007e0
0e07001ff0
0e0700ff00
0e0707f000
0e073f0000
0e07f00000
0e07000000
0e07000000
0e07000000
0e07000000
1c07000000
1c07000002
1c07000002
1c07000006
1807000006
380700000c
380700000c
300700001c
700780003e
6007fffffe
c003fffffc
8001fffff0
0000000000
ENDCHAR
STARTCHAR 215b
ENCODING 8539
SWIDTH 903 0
DWIDTH 40 0
BBX 40 40 0 -6
BITMAP
0000300000
00001c0000
00000e0000
0c000e000c
0e0006001e
0fffffffff
0e00000000
0e00000000
0e000c0000
0e000f8000
0e000f0000
0e000e0000
0e000e0000
0e000e0000
0e000e0000
0e000e0000
0e000e0000
0e000f0000
0e000f0000
0e001d0000
0e001d8000
0e001c8000
0e001cc000
0e0038c000
0e00386000
0e00386000
0e00703000
1c00703800
1c00e01800
1c00e01c00
1c01c00e00
1801c00700
3803800780
38070003e0
300e0001f8
701c0000ff
603800007f
c07000003c
81c000000c
0700000000
ENDCHAR
STARTCHAR 215c
ENCODING 8540
SWIDTH 903 0
DWIDTH 40 0
BBX 40 40 0 -6
BITMAP
0600000000
07c0000000
078000000c
070000001e
0701ffffff
070001c00f
070001c00e
070001c00e
070001c00e
078001c00e
27c001c00e
276001c00e
277001c00e
673801c00e
673801c00e
671801c00e
e70001c00e
e70001c00e
c70001c00e
c70003800e
070003800e
070003800e
070003800e
070003800e
070007000e
070007000e
070007000e
07000e000e
07000e000e
07001c001e
07001c001c
070038001c
070038003c
0700700038
0700e00078
0701c000f0
070380ffe0
0707000fc0
070e000380
0638000300
ENDCHAR
STARTCHAR 215d
ENCODING 8541
SWIDTH 903 0
DWIDTH 40 0
BBX 40 40 0 -6
BITMAP
0000180000
00001f0000
00001e1800
00001c0e00
00001c0700
00001c0380
18001c0384
1c001c018e
1fffffffff
1c001c0000
1c001c0000
1c001c0000
1c001c0000
1c001c0000
1c000e0000
1c000e0000
1c000e0000
1c000e00c0
1c000e00f8
1c000700f0
1c000701e0
1c000701c0
1c00038380
1c00038380
1c00038700
1c0001ce00
1c0001dc00
1c0000f800
1c0000f000
1c0380f000
1c0e01f801
1c7803bc01
1fe0071e03
1f800e0f03
1f003c0786
1c007003ee
0c01e001fe
00078000ff
001e00003f
01f000000e
ENDCHAR
STARTCHAR 215e
ENCODING 8542
SWIDTH 903 0
DWIDTH 40 0
BBX 40 40 0 -6
BITMAP
030000c000
03e000f800
03c000f000
038000e000
038000e000
038000e000
038000e000
038000e000
038000e000
039800e00c
7ffc00e01e
0380ffffff
038000e00f
038000e00e
038000e00e
038000e00e
038000e00e
038000e00e
039c00e00e
03f001c00e
03c001c00e
0f8001c00e
ff8001c00e
ff8001c00e
738003800e
338003800e
038003800e
038007000e
038007001e
03800e001c
03800e001c
03801c001c
03801c003c
0380380038
0380700078
0780e000f0
7f81c07fe0
0f83800fc0
070e000380
0638000300
ENDCHAR
STARTCHAR 215f
ENCODING 8543
SWIDTH 903 0
DWIDTH 40 0
BBX 40 40 0 -6
BITMAP
0300000000
03c0000000
0380000060
03800000f0
07fffffff8
0700000000
0700000000
0e00000000
0e00000180
0fffffffc0
1c00000000
1800000000
3800000000
3000000700
67ffffff80
c000000780
0000000700
0000000700
0000180700
00001f0700
00001e0700
00001c0700
0000380700
0000380700
0000700700
0000700380
0000e00380
0000e00380
0001c00381
00038001c1
00070001c3
000e0001c3
001c0000e6
00380000ee
007000007e
00e000007e
038000003f
0e0000001f
000000000e
0000000000
ENDCHAR
STARTCHAR 2160
ENCODING 8544
SWIDTH 903 0
DWIDTH 40 0
BBX 40 40 0 -6
BITMAP
0000000000
0000001800
0000003c00
007ffffe00
0000003e00
0000003800
0000007000
000000e000
000000c000
0000018000
0000030000
0000060000
00001c00c0
00001c01e0
00061c03f0
000f1e0780
1fff9e0e00
000f9f1c00
000e1f3000
000e1de000
000e1dc000
000e1cc000
001c1ce000
001c1c6000
00381c3000
00381c3800
00701c1c00
00701c1e00
00e01c0f00
00e01c0780
01c01c03e0
03801c01f8
07001c00ff
0e001c007f
1c001c001e
38003c0006
e00ffc0000
0001f80000
0000700000
0000600000
ENDCHAR
STARTCHAR 2161
ENCODING 8545
SWIDTH 903 0
DWIDTH 40 0
BBX 40 40 0 -6
BITMAP
0000000000
0c00006000
0700003000
0380003800
01c0001800
01c0001800
00c0001800
0000001c00
0000300c00
00083e0c00
00083c0c00
c018380c00
7010380e00
3830380600
1c30380600
1c60380600
0c60380600
0060380700
00c0380300
00c0700300
01c0700380
0180700380
0380700380
0300700180
07007001c0
0700e001c0
0e00e001c0
1e00e000e0
fe00e000e0
3c01c000e0
1c01c000f0
1c03800078
0e03800078
0e0300003c
0f0700003e
0f0600001f
0f0e00001f
0f0c00000e
0618000006
0030000000
ENDCHAR
STARTCHAR 2162
ENCODING 8546
SWIDTH 903 0
DWIDTH 40 0
BBX 40 40 0 -6
BITMAP
00000c0000
0c000f8000
07000f0000
03800e0000
01c00e0000
01c00e0000
00c00e0000
00000e0000
00000e0000
00080e0300
00080e0780
c01bffffc0
70100e03c0
38300e0380
1c300e0380
1c600e0380
0c600e0380
00600e0380
00c00e0380
00c00e0380
01c00e0380
01801c0380
03801c0380
03001c0380
07001c0380
07001c0380
0e00180380
1e00380380
fe00380380
3c00300380
1c00700380
1c00600381
0e00e00381
0e00c00383
0f01800383
0f030003c6
0f060003ff
0f0c0001ff
06180000fe
0030000000
ENDCHAR
STARTCHAR 2163
ENCODING 8547
SWIDTH 903 0
DWIDTH 40 0
BBX 40 40 0 -6
BITMAP
000000c000
0c0000f800
070000f000
038000e000
01c000e000
01c000e000
00c000e000
000000e000
000000e000
000800e00c
000800e01e
c018ffffff
701000e00f
383000e00e
1c3000e00e
1c6000e00e
0c6000e00e
006000e00e
00c000e00e
00c001c00e
01c001c00e
018001c00e
038001c00e
030001c00e
070003800e
070003800e
0e0003800e
1e0007000e
fe0007001e
3c000e001c
1c000e001c
1c001c001c
0e001c003c
0e00380038
0f00700078
0f00e000f0
0f01c07fe0
0f03800fc0
060e000380
0038000300
ENDCHAR
STARTCHAR 2164
ENCODING 8548
SWIDTH 903 0
DWIDTH 40 0
BBX 40 40 0 -6
BITMAP
0000300000
00003e0000
00003c0000
0000386000
0000383800
0000381c00
0000380e00
0000380700
0000380700
0000380300
0000380018
000038003c
7ffffffffe
0000700000
0000700000
0000780000
0000780000
0000e80000
0000ec0000
0000e40000
0000e60000
0001c60180
0001c301e0
0001c303c0
0003818380
000381c700
000700ce00
000700fc00
000e007800
000e007800
001c00fc00
003801de00
0070038f00
00e00707c0
01c00e03f0
03801c01ff
070070007f
0e01c0003e
380000000e
6000000000
ENDCHAR
STARTCHAR 2165
ENCODING 8549
SWIDTH 903 0
DWIDTH 40 0
BBX 40 40 0 -6
BITMAP
0000030000
00c003e000
c0f003c000
61e0038000
31c0038000
1b80038000
0f00038000
0e00038000
0f00038000
1b00038300
3380038780
6181ffffc0
c1c00383c0
01c0038380
00c0038380
00e0038380
01e0038380
01e0038380
03e0038380
03f0038380
0770038380
0e70070380
0c70070380
1870070380
3070070380
6070070380
c0700e0380
00700e0380
00700e0380
00701c0380
00701c0380
0070380381
00f0380381
00e0700383
01e0e00383
03c1c003c6
7fc38003ff
1f870001ff
070e0000fe
0638000000
ENDCHAR
STARTCHAR 2166
ENCODING 8550
SWIDTH 903 0
DWIDTH 40 0
BBX 40 40 0 -6
BITMAP
0000000000
0000000018
000000003c
3ffffffffe
0000380000
0000380000
0000380000
0000380000
0000380000
000038e000
0000383800
0000381e00
0000380f00
0000380700
0000380300
0000380000
0000380000
0000380000
00003800c0
00003801e0
0ffffffff0
0000380000
0000380000
0000380000
0000380000
0000380000
0000380000
0000380000
0000380000
0000380000
0000380000
0000380000
0000380000
0000380000
0000380000
0000380000
000038000c
000038001e
ffffffffff
0000000000
ENDCHAR
STARTCHAR 2167
ENCODING 8551
SWIDTH 903 0
DWIDTH 40 0
BBX 40 40 0 -6
BITMAP
0000300000
00003e0000
00003c0000
0000380000
0000380000
0000380000
0000380000
0000380000
0000380000
0000380000
3000380000
3c00380000
3800380030
3800380078
fffffffffc
380038003c
3800380038
3800380038
3800380038
3800380038
3800386038
3800383038
3800381838
3800381c38
3800380e38
3800380e38
380039ff38
3800ff8738
39fff00738
39fe000738
38f0000338
3870000038
3800000038
3800000038
3800000038
3800000078
3800003ff0
38000007e0
38000001c0
3000000180
ENDCHAR
STARTCHAR 2168
ENCODING 8552
SWIDTH 903 0
DWIDTH 40 0
BBX 40 40 0 -6
BITMAP
0000000000
1818000000
1c3c000000
1ffe000018
1c1e00003c
1c1c1ffffe
1c1c00003e
1c1c000078
1c1c000070
1c1c0000e0
1c1c0001c0
1f1c0001c0
1ddc000380
1cfc000700
1c7c000e00
1c1c001c00
1c1c003800
1c1c003800
1c1c007000
1c1c00e000
1c1c01c000
1c3c038000
1cfc070000
1fdc0e0000
1f9c0e0000
3b1c1c0000
381c380000
381c700000
381c700000
381ce00000
381ce00001
701ce00001
701ce00003
701ce00003
603c700006
e7fc7c000e
c1fc3fffff
c0781fffff
807007fffe
0000000000
ENDCHAR
STARTCHAR 2169
ENCODING 8553
SWIDTH 903 0
DWIDTH 40 0
BBX 40 40 0 -6
BITMAP
0000018000
603001f000
707801e000
7ffc01c000
703c01c000
703801c000
703001c000
707001c000
706001c000
706001c00c
70c001c01e
70c1ffffff
718001c00f
718001c00e
708001c00e
70c001c00e
706001c00e
707001c00e
703001c00e
703803800e
703803800e
701c03800e
701c03800e
701c03800e
701c07000e
701c07000e
701c07000e
703c0e000e
7ffc0e001e
71f81c001c
707038001c
706038001c
700070003c
7000e00038
7001c00078
70038000f0
700700ffe0
700e000fc0
7038000380
60e0000300
ENDCHAR
STARTCHAR 216a
ENCODING 8554
SWIDTH 903 0
DWIDTH 40 0
BBX 40 40 0 -6
BITMAP
0030018000
003e01f000
003c01e000
007801c000
007001c000
007001c000
00e001c000
00e001c018
01c001c03c
01cffffffe
038001c000
038001c000
078001c000
078001c000
0f8001c000
0f8001c0c0
1f8001c1e0
3b83fffff0
33804001f0
63804001c0
c3806001c0
0380200380
0380300380
0380100700
0380180700
03800c0e00
0380060e00
0380071c00
038003b800
038001f000
038000f000
038001f800
038003bc00
0380070f00
03800e07c0
03801c01ff
03807000ff
0381c0003e
038700000e
033c000000
ENDCHAR
STARTCHAR 216b
ENCODING 8555
SWIDTH 903 0
DWIDTH 40 0
BBX 40 40 0 -6
BITMAP
003000c000
003e00f800
003c00f000
007800e180
007000e0e0
007000e070
00e000e078
00e000e038
01c000e018
01c000e000
038000e000
038000e00c
0783fffffe
078000e000
0f8000e000
0f8000e000
1f8000e000
3b8000e000
338001d800
638001de00
c38001dc00
038001dc00
0380039c00
0380039c00
0380039c00
0380071c00
0380071c00
03800e1c00
03800e1c00
03801c1c00
03801c1c01
0380381c01
0380381c03
0380701c03
0380e01c06
0381c01e0e
0383801fff
0387000fff
038e0007fe
0338000000
ENDCHAR
STARTCHAR 216c
ENCODING 8556
SWIDTH 903 0
DWIDTH 40 0
BBX 40 40 0 -6
BITMAP
0030000000
003e300030
003c380078
00783ffffc
007038003c
0070380038
00e0380038
00e0380038
01c0380038
01c0380038
0380380038
0380380038
0780380038
0780380038
0f80380038
0f80380038
1f803ffff8
3b80382038
3380382030
6380382000
c380383000
0380383000
0380381000
0380381800
0380701800
0380700c00
0380700c00
0380700600
0380600600
0380e00300
0380e00380
0380c001c0
0381c001e0
03818000f0
038380007c
038300003f
038600001f
038c00000e
0398000006
0330000000
ENDCHAR
STARTCHAR 216d
ENCODING 8557
SWIDTH 903 0
DWIDTH 40 0
BBX 40 40 0 -6
BITMAP
0030300000
003e3e0000
003c3c0000
0078380000
0070380000
0070380000
00e0700030
00e0700078
01c07ffffc
01c0e07000
0380e07000
0380c07000
0781c07000
0781807000
0f83807000
0f83007000
1f86007000
3b84007000
3380007000
6380007000
c38000700c
038000701e
0387ffffff
0380007000
0380007000
0380007000
0380007000
0380007000
0380007000
0380007000
0380007000
0380007000
0380007000
0380007000
0380007000
0380007000
0380007000
0380007000
0380007000
0300006000
ENDCHAR
STARTCHAR 216e
ENCODING 8558
SWIDTH 903 0
DWIDTH 40 0
BBX 40 40 0 -6
BITMAP
0060000000
007c800000
007880000c
007080001e
00f1ffffff
00e180001f
00e380001c
01c3800018
01c7000030
0387000020
03860c0c00
07000f8f80
07000f0f00
0f000e0e00
0f000e0e00
1f000e0e00
3f000e0e00
37000e0e00
67000e0e00
c7000e0e00
07000e0e00
07000e0e00
07000e0e00
07000e0e00
07001c0e00
07001c0e00
07001c0e00
07001c0e00
0700380e00
0700380e00
0700380e01
0700700e01
0700700e03
0700e00e03
0700e00e06
0701c00f0e
0703800fff
07070007ff
070e0003fe
0638000000
ENDCHAR
STARTCHAR 216f
ENCODING 8559
SWIDTH 903 0
DWIDTH 40 0
BBX 40 40 0 -6
BITMAP
0030018000
003e01e000
003c03c000
007803e000
007003e000
0070073000
00e0073000
00e00e1800
01c00e1c00
01c01c0c00
03801c0600
0380380700
0780300380
07807001c0
0f80e001e0
0f80c000f0
1f81c00c7c
3b83bffe3f
338300001f
638600000e
c38c000006
0398000000
0380000300
0380000780
0381ffffc0
03800003c0
0380000380
0380000380
0380000700
0380000700
0380000e00
0380000e00
0380001c00
0380001c00
0380003800
0380003800
0380007000
0380007000
038000e000
030000c000
ENDCHAR
STARTCHAR 2170
ENCODING 8560
SWIDTH 903 0
DWIDTH 40 0
BBX 40 40 0 -6
BITMAP
0030006000
003e003000
003c003000
0078001800
0070001800
0070000c00
00e0180c00
00e01f0600
01c01e0600
01c01c0700
0380380300
0380380380
0780380380
07807001c0
0f807001c0
0f806000e0
1f80e180e0
3b80c1e070
3381c1c078
638181c03c
c38383803f
038303801f
038703800e
0386070006
038c070000
0398060000
03800e0000
03800c0000
03801c0300
0380180180
03803800c0
03803000e0
0380700070
0380600070
0380e03ff8
0381fff838
0381ff0038
0380f00018
0380700018
0300000000
ENDCHAR
STARTCHAR 2171
ENCODING 8561
SWIDTH 903 0
DWIDTH 40 0
BBX 40 40 0 -6
BITMAP
003000c000
003e00f000
003c00e000
007801e000
007001f000
007003d000
00e0039800
00e0078c00
01c0070e00
01c00e0700
03801e0380
03801c03c0
07803801e0
07807000f8
0f80e0007f
0f81c0003f
1f8398031c
3b871e03cc
338c1c0380
63801c0380
c3801c0380
03801c0380
03801c0380
03801c0380
03801c0380
03801c0380
03801c0380
0380380380
0380380380
0380380380
0380300380
0380700380
0380600380
0380e00380
0380c00380
0381800380
0383000380
0386000380
038c000380
0318000300
ENDCHAR
STARTCHAR 2172
ENCODING 8562
SWIDTH 903 0
DWIDTH 40 0
BBX 40 40 0 -6
BITMAP
0030000000
003e030000
003c018000
007800c000
007000e000
0070007000
00e0007800
00e0003800
01c0003c00
01c00c1c00
03800f1c00
03800e1c00
07800e0c00
07800e0000
0f800e0000
0f800e0000
1f800e0000
3b800e0000
33808e0000
63808e0000
c3808e0000
03808e00c0
03818e0060
03818e0030
03818e0038
03838e001c
03838e001c
03838e000e
03878e000e
03870e000f
038f0e0007
038f0e0087
038e0e0087
038e0e0183
038c0f0180
03800f8300
038007ff80
038003ff80
038001ff00
0300000000
ENDCHAR
STARTCHAR 2173
ENCODING 8563
SWIDTH 903 0
DWIDTH 40 0
BBX 40 40 0 -6
BITMAP
0030000000
003e000000
003c000000
0078000060
00700000f0
0070fffff8
00e0000000
00e0000000
01c0000000
01c0000000
0380000000
0380000000
0780000000
0780000000
0f8000000c
0f8000001e
1f8fffffff
3b80070000
3380070000
6380070000
c380070000
03800e0000
03800e0000
03800e0000
03801c0000
03801c0000
0380180000
0380380000
03803000c0
0380700060
0380600070
0380e00038
0380c007fc
0381c0ff1e
0383ffe01e
0383fe000e
0381e0000e
0380e00006
0380000000
0300000000
ENDCHAR
STARTCHAR 2174
ENCODING 8564
SWIDTH 903 0
DWIDTH 40 0
BBX 40 40 0 -6
BITMAP
0030006000
003e007c00
003c007800
0078007000
0070007000
007000700c
00e000701e
00e7ffffff
01c0007000
01c0007000
0380007000
0380007000
0780c07030
0780e07078
0f80fffffc
0f80e0703c
1f80e07038
3b80e07038
3380e07038
6380e07038
c380e07038
0380e07038
0380e07038
0380e07038
0380e07038
0380e07038
0380e07038
0380e07038
0380e07038
0380e07038
0380e07078
0380e077f8
0380e071f0
0380e070e0
0380c070c0
0380007000
0380007000
0380007000
0380007000
0300006000
ENDCHAR
STARTCHAR 2175
ENCODING 8565
SWIDTH 903 0
DWIDTH 40 0
BBX 40 40 0 -6
BITMAP
003000c000
003e00f800
003c00f000
007800e000
007000e000
007000e000
00e000e018
00e000e03c
01c7fffffe
01c000e000
038000e000
038000e000
078180e060
0781f0e07c
0f81e0e078
0f81c0e070
1f81c0e070
3b81c0e070
3381c0e070
6381c0e070
c381c0e070
0381c0e070
0381c0e070
0381c0e070
0381c0e070
0381c0e070
0383fffff0
038180e070
038000e060
038000e000
038000e001
038000e001
038000e003
038000e003
038000e006
038000f00e
038000ffff
0380007fff
0380003ffe
0300000000
ENDCHAR
STARTCHAR 2176
ENCODING 8566
SWIDTH 903 0
DWIDTH 40 0
BBX 40 40 0 -6
BITMAP
0030000000
003e000008
003c00001c
00787ffffe
00701c0700
00701c0700
00e01c0700
00e01c0700
01c0380700
01c0380700
0380380700
0380380700
0780700700
0780700700
0f80700704
0f8070070e
1f80ffffff
3b80600f00
3380001f00
6380001f00
c380003f00
0380007700
0380007700
038000e700
038001c700
038001c700
0380038700
0380070700
03800e0700
03800e0700
03801c0700
0380380700
0380700700
0380e00700
0381c00700
0383800f00
038e07ff00
03b8007e00
0380001c00
0300001800
ENDCHAR
STARTCHAR 2177
ENCODING 8567
SWIDTH 903 0
DWIDTH 40 0
BBX 40 40 0 -6
BITMAP
0060000000
007c00000c
007800001e
0073ffffff
00f0003800
00e0003800
00e0007000
01c0007000
01c000e000
038000e000
038001e000
078001e000
078003e000
0f8003e000
0f8007e000
1f800ee180
3b800ee0c0
33801ce060
638038e030
c38038e038
038070e01c
0380e0e01e
0380c0e00e
038180e00f
038300e007
038600e007
038c00e003
039800e000
038000e000
038000e000
038000e000
038000e000
038000e000
038000e000
038000e000
038000e000
038000e000
038000e000
038000e000
030000c000
ENDCHAR
STARTCHAR 2178
ENCODING 8568
SWIDTH 903 0
DWIDTH 40 0
BBX 40 40 0 -6
BITMAP
0060000000
007c000030
0078000078
0071fffffc
00f000e03c
00e000e038
00e000e038
01c000e038
01c000e038
038000e038
038000e038
078180e038
0781fffff8
0f81c0e030
0f81c0e000
1f81c0e000
3b81c0e000
338380e000
638380e00c
c38380e01e
0387ffffff
038300e00f
038000e00e
038000e00e
038000e00e
038000e00e
038000e00e
038000e01e
038000e01c
038000e03c
038000fff8
038000e3f0
038000e0e0
038000e0c0
038000e000
038000e000
038000e000
038000e000
038000e000
030000c000
ENDCHAR
STARTCHAR 2179
ENCODING 8569
SWIDTH 903 0
DWIDTH 40 0
BBX 40 40 0 -6
BITMAP
0030000000
003e180018
003c1c003c
00781ffffe
00701c001e
00701c001c
00e01c001c
00e01c001c
01c01c001c
01c01c001c
03801c001c
03801c001c
07801c001c
07801ffffc
0f801c001c
0f801c001c
1f801c001c
3b801c001c
33801c001c
63801c001c
c3801c001c
03801c001c
03801c001c
03801ffffc
038038001c
038038001c
038038001c
038038001c
038070001c
038070001c
038070001c
0380e0001c
0380e0001c
0381c0001c
0381c0001c
038380003c
0387000ffc
038e0001f8
039c000070
0370000060
ENDCHAR
STARTCHAR 217a
ENCODING 8570
SWIDTH 903 0
DWIDTH 40 0
BBX 40 40 0 -6
BITMAP
0030000070
003e0003f8
003c001ffc
007831ff00
00703fc000
0070380000
00e0380000
00e0380000
01c0380000
01c0380000
0380380000
0380380000
078038000c
078038001e
0f803fffff
0f80380380
1f80380380
3b80380380
3380380380
6380380380
c380380380
0380380380
0380380380
0380380380
0380700380
0380700380
0380700380
0380700380
0380600380
0380e00380
0380e00380
0380e00380
0381c00380
0381c00380
0381800380
0383800380
0383000380
0386000380
038c000380
0318000300
ENDCHAR
STARTCHAR 217b
ENCODING 8571
SWIDTH 903 0
DWIDTH 40 0
BBX 40 40 0 -6
BITMAP
0000000000
0000000030
0000000078
600ffffffc
38001c0000
1c001c0000
0e001c0000
0f001c0000
07001c0000
03001c0000
0020380000
0020380300
0060380780
00403fffc0
00c03803c0
00c0380380
0180700380
0180700380
0380700380
0300700380
0300700380
0700e00700
0600e00700
0e00e00700
0e00e00700
1c00e00700
fc01ffff00
7c00c00e00
3800000e00
3800000e00
1c00000e00
1c00000e00
1c00001c00
1e00001c00
1e00001c00
1e00001c0c
1e00001c1e
0c3fffffff
0000000000
0000000000
ENDCHAR
STARTCHAR 217c
ENCODING 8572
SWIDTH 903 0
DWIDTH 40 0
BBX 40 40 0 -6
BITMAP
0000000018
000000001f
000040001e
0000e0001c
3ffff0001c
000000301c
0000003e1c
0000003c1c
000000381c
000000381c
000000381c
000000381c
000010381c
000038381c
fffffc381c
038700381c
038700381c
038700381c
038700381c
038700381c
038700381c
038700381c
038700381c
070700381c
070700381c
070700381c
070700381c
060700381c
0e0700381c
0e0700301c
0c0706001c
1c071c001c
1c0770001c
3807e0001c
300780001c
700700003c
6003000ffc
c0000001f8
8000000070
0000000060
ENDCHAR
STARTCHAR 217d
ENCODING 8573
SWIDTH 903 0
DWIDTH 40 0
BBX 40 40 0 -6
BITMAP
0000000018
060030001f
070078001e
07fffc001c
07003c001c
070038181c
0700381f1c
0700381e1c
0730381c1c
0718381c1c
070c381c1c
070e381c1c
0707381c1c
0707381c1c
0703381c1c
0700381c1c
0700381c1c
0700391c1c
7fffff9c1c
0700381c1c
0700381c1c
0700381c1c
0700381c1c
0700381c1c
0700381c1c
0e00381c1c
0e00381c1c
0e00381c1c
0e00381c1c
1c0038181c
1c0038001c
1c0038001c
380038001c
380038001c
300038001c
700078003c
601ff80ffc
c003f001f8
8000e00070
0000c00060
ENDCHAR
STARTCHAR 217e
ENCODING 8574
SWIDTH 903 0
DWIDTH 40 0
BBX 40 40 0 -6
BITMAP
0000600000
00007c0000
0000780000
0000700300
0000700780
00ffffffc0
00007003c0
0000700380
0000700380
0000e00380
0000e00380
0001c00380
0003800780
0007000700
000e000f00
001c07fe00
003800fc00
00e0003800
0380003000
0000000000
0000000000
00c0000c00
00f8000f80
00f0000f00
00e0c00e0c
00e1e00e1e
7ffff3ffff
00e0f00e0f
00e0e00e0e
00e0e00e0e
01c0e01c0e
01c0e01c0e
0380e0380e
0380e0380e
0701c0701c
0703c0e03c
0eff81cff8
1c1f0381f0
380e0700e0
600c1c00c0
ENDCHAR
STARTCHAR 2221
ENCODING 8737
SWIDTH 903 0
DWIDTH 40 0
BBX 40 40 0 -6
BITMAP
0000000000
3000000018
380000003c
3ffffffffe
3800000000
3803000000
3803e00000
3803c00000
3803800000
3803800060
38038000f0
3807fffff8
38071c3878
380e1c3870
380e1c3870
381c1c3870
3818383870
3830387070
3860387070
38c0707070
3800707070
3800e0e070
3800e0e070
3801c1c070
380381c0f0
38070380e0
380e0700e0
381c0e01e0
38701c01c0
39c03803c0
3800700780
3801c3ff00
3807007e00
3800001c00
3800001800
380000000c
380000001e
7fffffffff
3000000000
0000000000
ENDCHAR
STARTCHAR 2222
ENCODING 8738
SWIDTH 903 0
DWIDTH 40 0
BBX 40 40 0 -6
BITMAP
0000000000
3000000018
380000003c
3ffffffffe
3800000000
3800000000
3800300000
38001c0000
38000e0000
38000e0040
38000600e0
38fffffff0
3800000000
3800000000
3800000000
3801803800
3801fffc00
3801c03c00
3801c03800
3801c03800
3801c03800
3801c03800
3801c03800
3801c03800
3803803800
3803803800
3803803810
3807003810
3807003830
380e003830
381c003c60
3838003ff0
3870001ff0
38e0000fe0
3b80000000
3800000004
380000000e
7fffffffff
3000000000
0000000000
ENDCHAR
STARTCHAR 2223
ENCODING 8739
SWIDTH 903 0
DWIDTH 40 0
BBX 40 40 0 -6
BITMAP
0000000000
0000300030
000078003e
3ffffc003c
00003c0038
0000380038
0000380038
0000380038
0000380038
0000380038
0000380038
0000380038
0000380038
0000380038
0000380038
0000380038
0000380038
0000380038
0000380038
3000380038
3ffffffff8
3800380038
3800380030
3800380000
3800380000
3800380000
3800380000
3800380000
3800380000
3800380000
3800380000
3800380000
3800380000
3800380000
3800380000
3800380018
380038003c
38007ffffe
3000300000
0000000000
ENDCHAR
STARTCHAR 2224
ENCODING 8740
SWIDTH 903 0
DWIDTH 40 0
BBX 40 40 0 -6
BITMAP
0000000000
0c0000000c
0e0000001e
0fffffffff
0e00000000
0e00000000
0e00000060
0e030000f0
0e03fffff8
0e03803800
0e03803800
0e03803800
0e03803800
0e03803800
0e07003800
0e07003800
0e07003808
0e0700381c
0e0ffffffe
0e06007800
0e0000f800
0e0000f800
1c0001b800
1c0003b800
1c00033800
1c00073800
1c000e3800
18001c3800
3800383800
3800703800
3800e03800
3001c03800
3003803800
7007003800
601e003800
6078007800
c1e01ff800
c00003f000
800000e000
000000c000
ENDCHAR
STARTCHAR 2225
ENCODING 8741
SWIDTH 903 0
DWIDTH 40 0
BBX 40 40 0 -6
BITMAP
0000000000
0000000060
00000000f0
0000fffff8
00000000f8
60600001e0
70f0000380
7ff8000700
7078000e00
7070001800
7070007000
7070007000
7070007000
7070007000
7070007000
7070007000
7070007000
707000700c
707000701e
7077ffffff
7070007000
7070007000
7070007000
7070007000
7070007000
7070007000
7070007000
7ff0007000
7070007000
7060007000
7000007000
6000007000
0000007000
0000007000
0000007000
000000f000
00003ff000
000007e000
000001c000
0000018000
ENDCHAR
STARTCHAR 2226
ENCODING 8742
SWIDTH 903 0
DWIDTH 40 0
BBX 40 40 0 -6
BITMAP
0000000000
3000000030
3800000078
3ffffffffc
380000003c
3801800038
3801f00038
3801e00038
3801c00038
3801c0c038
3801c0f038
3801c0e038
380380e038
380380e338
3bffffffb8
380700e038
380700e038
380700e038
380e01c038
380e01c038
381c01c038
381c038038
3838038038
3870070038
387c070038
380f8e0038
3801fc0038
38003e0038
38007f8038
3800f3e038
3801c0f838
3803807c38
380e001e38
3838000e38
39e0000038
3800000038
3800000038
3ffffffff8
3800000038
3000000030
ENDCHAR
STARTCHAR 2227
ENCODING 8743
SWIDTH 903 0
DWIDTH 40 0
BBX 40 40 0 -6
BITMAP
0060000000
0078000000
0070000000
00e0000000
30c0000030
3980000078
3ffffffffc
380000003c
3800000038
3800006038
3800007838
3800007038
3860007038
383000e038
381800e038
380e00e038
380701c038
380381c038
3801c38038
3800e70038
38007f0038
38003e0038
38001c0038
38003e0038
3800770038
3800e3c038
3801c1e038
380380f038
3807007838
380e003c38
381c001e38
3838000e38
38e0000638
3b80000038
3800000038
3800000038
3800000038
3ffffffff8
3800000038
3000000030
ENDCHAR
STARTCHAR 2228
ENCODING 8744
SWIDTH 903 0
DWIDTH 40 0
BBX 40 40 0 -6
BITMAP
0000000000
0180000030
01f0000078
01e01ffffc
01c000003c
01c0000038
01c0000038
01c0000038
01c0000038
01c0000038
01c0000038
01c4000038
01ce000038
7fff000038
01c0000038
01c0180038
01c01c0038
01c01ffff8
01c01c0038
01c01c0038
01c01c0030
01c01c0000
01c01c0000
01c01c0000
01c01c0000
01c01c0000
01c39c0000
01de1c0000
01f81c0000
0fe01c0000
ff801c0001
fc001c0001
70001c0003
30001c0003
00001c0006
00001e000e
00001fffff
00000fffff
000007fffe
0000000000
ENDCHAR
STARTCHAR 2229
ENCODING 8745
SWIDTH 903 0
DWIDTH 40 0
BBX 40 40 0 -6
BITMAP
0000030000
030003e000
03e003c000
03c0038000
0380038000
0380038000
038007000c
038007001e
03800fffff
03800e0000
03801c0000
0388180000
039c300000
7ffe600000
0380c00060
03800000f0
03801ffff8
03800000f8
03800001e0
0380000380
0380000700
0380000e00
0380001c00
0380003800
0380007000
038000e000
038701c000
03bc038000
03f0070000
0fc00e0000
ff001c0001
fc001c0001
7000380003
3000380003
0000380006
00003c000e
00001fffff
00000fffff
000003fffe
0000000000
ENDCHAR
STARTCHAR 222a
ENCODING 8746
SWIDTH 903 0
DWIDTH 40 0
BBX 40 40 0 -6
BITMAP
0000060000
030007c000
03e0078000
03c0070000
0380070000
0380070000
03800e0000
03800e000c
03800e001e
03801fffff
03801c000f
038818000e
039c38000e
7ffe30000e
038070000e
038060000e
0380c0000e
038083000e
038001c00e
038000e00e
038000700e
038000380e
0380003c0e
0380001c0e
0380000c0e
038000000e
038700000e
03bc00000e
03f000000e
0fc000000e
ff0000001e
fc0000001c
700000001c
300000003c
0000000038
00000000f8
0000007ff0
00000007e0
00000001c0
0000000180
ENDCHAR
STARTCHAR 222b
ENCODING 8747
SWIDTH 903 0
DWIDTH 40 0
BBX 40 40 0 -6
BITMAP
0000300000
00003e0000
00003c0000
0000380000
0000380000
0000700018
000070003c
7ffffffffe
0000ec0000
0001c60000
0001c30000
0003818000
000700e000
000e007000
001c003c00
0038001f00
00700007e0
00e00003ff
01c00000ff
070000003c
1cc000060c
f0f83007c0
00f03e0780
00e03c0700
00e0380700
00e0380700
00e0380700
00e0380700
00e0380700
01c0380700
01c0380700
01c0380700
0180380700
0380380700
0300380700
0700380700
0600380700
0c00300700
1800000700
3000000600
ENDCHAR
STARTCHAR 222c
ENCODING 8748
SWIDTH 903 0
DWIDTH 40 0
BBX 40 40 0 -6
BITMAP
000000c000
000000f800
000000f000
000c00e000
001e00e000
7fff00e000
000f00e000
000e00e000
000e00e0c0
000e01c0f0
000e01c0e0
000e01c0e0
000e01c0e6
000e7fffff
000e01c0e0
000e0380e0
600e0380e0
7ffe0380e0
700c0701c0
70000701c0
70000701c0
70000701c0
70000e0380
70000e0380
70000e0380
70001c0700
70001c0700
70031f0e00
700e01ee00
7038007c00
70f0003f00
73c0007780
7f8000e1e0
7e0001c0f0
7c00038078
700007003c
30000e001e
00001c000e
0000700006
0001c00000
ENDCHAR
STARTCHAR 222d
ENCODING 8749
SWIDTH 903 0
DWIDTH 40 0
BBX 40 40 0 -6
BITMAP
0000000000
0c000001c0
0f800007e0
0f00001ff0
0e00007f00
0e0001f800
0e000fc000
0e3079c000
0e3801c000
0e3801c000
0efe01c000
fff801c000
ff3801c000
6e3801c000
0e3801c000
0e3801c000
0e3801c018
1c3801c03c
1c3801fffe
1c38ffc000
1c3801c000
387001c000
387001c000
387001c000
707001c000
70e001c000
7ce001c000
0fc001c000
03c001c000
03e001c000
07f001c001
077801c001
0e3c01c003
0c1c01c003
180c01c006
300001e00e
600001ffff
c00000ffff
0000007ffe
0000000000
ENDCHAR
STARTCHAR 222e
ENCODING 8750
SWIDTH 903 0
DWIDTH 40 0
BBX 40 40 0 -6
BITMAP
0000000000
0c00000000
0f80000000
0f00000000
0e00000030
0e00000078
0e00fffffc
0e30007000
0e38007000
0e38007000
0efe007000
fff8007000
ff38007000
6e38007000
0e38007000
0e38007000
0e38007000
1c38007000
1c38007000
1c38007000
1c38007000
3870007000
3870007000
3870007000
7070007000
70e0007000
7ce0007000
0fc0007000
03c0007000
03e0007000
07f0007000
0778007000
0e3c007000
0c1c007000
180c00700c
300000701e
6003ffffff
c000000000
0000000000
0000000000
ENDCHAR
STARTCHAR 222f
ENCODING 8751
SWIDTH 903 0
DWIDTH 40 0
BBX 40 40 0 -6
BITMAP
0000006000
0300007c00
03e0007800
03c0007000
0380007000
0380007000
0380007000
0386007000
0387007060
038700e078
039fc0e070
ffff00e072
ff077fffff
670700e070
070700e070
070701c070
070701c070
070701c070
0e070380e0
0e070380e0
0e0e0380e0
0e0e0380e0
1c0e0701c0
1c0e0701c0
1c1c0701c0
1c1c0e0380
1f980e0380
01f80f8700
007c00f700
00fe003e00
00ef001f00
01c7803f80
0383c079e0
0701c0f0f0
0e01c1e078
1c00c3c03c
380007001e
60000e000e
c000380006
0000e00000
ENDCHAR
STARTCHAR 2230
ENCODING 8752
SWIDTH 903 0
DWIDTH 40 0
BBX 40 40 0 -6
BITMAP
0000003000
0c00003e00
0f80003c00
0f00003800
0e00003800
0e00003800
0e00003800
0e30003800
0e38003800
0e38003800
0efe003800
fff8603818
ff387c381f
6e3878381e
0e3870381c
0e3870381c
0e3870381c
1c3870381c
1c3870381c
1c3870381c
1c3870381c
387070381c
387070381c
387070381c
707070381c
70e070381c
7ce070381c
0fc070381c
03c070381c
03e070381c
07f070381c
077870381c
0e3c70381c
0c1c70381c
180c70381c
300070381c
6000fffffc
c00060001c
0000000018
0000000000
ENDCHAR
STARTCHAR 2231
ENCODING 8753
SWIDTH 903 0
DWIDTH 40 0
BBX 40 40 0 -6
BITMAP
00000001c0
0c000007e0
0f80003ff0
0f0001fe00
0e000ff800
0e007e3800
0e00003800
0e18003800
0e1c003800
0e1c003800
0e7f003800
fffc003800
ff9c003800
6e1c003800
0e1c00380c
0e1c00381e
0e1cffffff
1c1c003800
1c1c003800
1c1c003800
1c1c003800
3838003800
3838003800
3838003800
7038003800
7070003800
7c70003800
0f60003800
03e0003800
03f0003800
03f8003800
073c003800
0e1e003800
0c0e003800
1806003800
3000003800
6000003800
c000003800
0000003800
0000003000
ENDCHAR
STARTCHAR 2232
ENCODING 8754
SWIDTH 903 0
DWIDTH 40 0
BBX 40 40 0 -6
BITMAP
0300000000
03e0006000
03c0007c00
0380007800
0380007000
0380007000
03800070c0
03800070f0
03800070e0
03800070e0
03831fffff
038780e0e0
7fffc0e0e0
0383c0e0e0
038380e0e0
038380e0e0
038381c0e0
038381c0e0
038381c1c0
03838381c0
03838381c0
0383870380
03c3878380
03e381e700
0773807e00
073b801f00
073b803f80
071b8071e0
0e0380e0f0
0e0381c078
0e03838039
1c03870019
1c039c0003
3803800003
3003c00006
7003e0000e
6001ffffff
c000ffffff
80003ffffe
0000000000
ENDCHAR
STARTCHAR 2233
ENCODING 8755
SWIDTH 903 0
DWIDTH 40 0
BBX 40 40 0 -6
BITMAP
0000000000
0001800018
0003c0003c
7fffe7fffe
0003e0003e
0007800078
00060000e0
000c0000c0
0018000180
00f0000300
00e0000e00
00e0000e00
00e0000e00
00e0000e00
00e0000e00
00e0000e00
00e0000e00
00e3c00e04
00ff000e0e
07f83fffff
ffe0000e00
fce0000e00
70e0000e00
30e0000e00
00e0000e00
00e0000e00
00e0000e00
00e0000e00
00e0000e00
00e0000e00
00e0000e00
00e0000e00
00e0000e00
00e0000e00
00e0000e00
01e0001e00
3fe003fe00
07e0007c00
01c0003800
0180003000
ENDCHAR
STARTCHAR 2234
ENCODING 8756
SWIDTH 903 0
DWIDTH 40 0
BBX 40 40 0 -6
BITMAP
0000000000
0000000600
0000000f00
03ffffff80
000e000f80
000e000e00
000e000e00
000e001c00
000e001c18
000e001c3c
001c003ffe
001c00181e
001c00001c
003800001c
003800001c
007000001c
00e018003c
01c01f0038
03801e0078
07001c3ff0
0e001c07e0
38001c01c0
e0001c0180
00301c0000
003e1c3000
003c1c1c00
00381c0e00
00701c0700
00701c0380
00e01c01c0
00e01c01e0
01c01c00f0
03801c0078
03001c0078
06001c0038
0c003c0038
180ffc0018
3001f80000
0000700000
0000600000
ENDCHAR
STARTCHAR 2235
ENCODING 8757
SWIDTH 903 0
DWIDTH 40 0
BBX 40 40 0 -6
BITMAP
0180000000
01f0060000
01e007c000
01c0078000
01c0070000
01c0070000
01c0070018
01c00e003c
01c00ffffe
01c10c001e
01c39c001c
7fffd8001c
03b038001c
03be30001c
03bc61801c
03b840e01c
03b800701c
03b800381c
03b800381c
03b800181c
03b800001c
03b800001c
033800001c
073800003c
0738000038
0738000038
0738000070
0e380000f0
0e3801ffe1
0e38001fc1
1c38000383
1c38000303
1c38000006
3838000006
303c00000e
703e00001f
601fffffff
c00ffffffe
8003fffff8
0000000000
ENDCHAR
STARTCHAR 2236
ENCODING 8758
SWIDTH 903 0
DWIDTH 40 0
BBX 40 40 0 -6
BITMAP
0000000000
0300000018
03e000003c
03c1fffffe
0380070700
0380070700
0380070700
0380070700
0380070700
638c070700
738f070700
638e070700
638e070700
638e070700
638e070700
638e070700
638e070700
638e070700
638e070700
638e070700
638e070700
638e070700
638e070700
638e0e0700
638e0e0700
638e0e0700
638e0e0700
638e1c0700
638e1c0700
638e1c0700
fffe380700
600e380701
000c700701
0000700703
0000e00703
0000c00786
00018007ff
00030003ff
00060001fe
000c000000
ENDCHAR
STARTCHAR 2237
ENCODING 8759
SWIDTH 903 0
DWIDTH 40 0
BBX 40 40 0 -6
BITMAP
0000000000
0300000030
03e0000078
03c01ffffc
038000003c
0380000038
0380000038
0380000038
0380000038
638c000038
738f000038
638e000038
638e000038
638e000038
638e000038
638e180038
638e1c0038
638e1ffff8
638e1c0038
638e1c0038
638e1c0030
638e1c0000
638e1c0000
638e1c0000
638e1c0000
638e1c0000
638e1c0000
638e1c0000
638e1c0000
638e1c0000
fffe1c0001
600e1c0001
000c1c0003
00001c0003
00001c0006
00001e000e
00001fffff
00000fffff
000007fffe
0000000000
ENDCHAR
STARTCHAR 2238
ENCODING 8760
SWIDTH 903 0
DWIDTH 40 0
BBX 40 40 0 -6
BITMAP
0000000000
030000000c
03e000001e
03c07fffff
038000700f
038000700e
038000700e
038000700e
038000700e
638c00700e
738f00700e
638e00700e
638e60700e
638e30700e
638e18700e
638e1c700e
638e0e700e
638e0f700e
638e07700e
638e07e00e
638e03e00e
638e00e00e
638e00e00e
638e00e00e
638e01c00e
638e01c00e
638e01c00e
638e03800e
638e03800e
638e07001e
fffe07001c
600e0e001c
000c1c003c
0000380038
0000700078
0000e000f0
0001c07fe0
0003800fc0
000e000380
0038000300
ENDCHAR
STARTCHAR 2239
ENCODING 8761
SWIDTH 903 0
DWIDTH 40 0
BBX 40 40 0 -6
BITMAP
00c0000600
00f80007c0
00f0000780
00e0000700
00e0000700
00e0000700
00e0000700
00e0000700
00e0000700
00e0000700
60e183070c
78e1e3c70f
70e1c3870e
70e1c3870e
70e1c3870e
70e1c3870e
70e1c3870e
70e1c3870e
70e1c3870e
70e1c3870e
70e1c3870e
70e1c3870e
70e1c3870e
70e1c3870e
70e1c3870e
70e1c3870e
70e1c3870e
70e1c3870e
70e1c3870e
70e1c3870e
70e1c3870e
70e1c3870e
70e1c3870e
70e1c3870e
70e1c3870e
70e1c3870e
ffffc7fffe
6001c3000e
0001c0000e
000180000c
ENDCHAR
STARTCHAR 223a
ENCODING 8762
SWIDTH 903 0
DWIDTH 40 0
BBX 40 40 0 -6
BITMAP
0000c00000
0000700000
0000380000
000038000c
000018001e
ffffffffff
01c0000000
01c0000000
01c0000000
01c0000000
01c0000000
01c0000000
01c0000000
01c0000000
01e0000000
01ffffffc0
00ffffffe0
007fffffe0
0000000000
0000000000
0030180c00
003e1f0f80
003c1e0f00
00381c0e00
00381c0e00
00381c0e00
00381c0e00
00381c0e00
00701c0e00
00701c0e00
00701c0e00
00e01c0e00
00e01c0e00
01c01c0e00
01c01c0e00
03801c0f00
07001c0ffe
0e001c07ff
1c001803ff
7000000000
ENDCHAR
STARTCHAR 223b
ENCODING 8763
SWIDTH 903 0
DWIDTH 40 0
BBX 40 40 0 -6
BITMAP
0000000000
0001000010
0003800038
3fffc3fffc
0070000e00
0070000e00
0070000e00
0070000e00
0070000e00
0070000e00
0070000e00
0070000e00
0070000e00
0070000e00
0070000e04
0070000e0e
007f8fffff
03fc000e00
fff0000e00
fe70000e00
7070000e00
3070000e00
0070000e00
0070000e00
0070000e00
00e0000e00
00e0000e00
00e0000e00
00e0000e00
01c0000e00
01c0000e00
01c0000e00
0380000e00
0380000e00
0700000e00
0600000e00
0c00000e00
1800000e00
3000000e00
6000000c00
ENDCHAR
STARTCHAR 223c
ENCODING 8764
SWIDTH 903 0
DWIDTH 40 0
BBX 40 40 0 -6
BITMAP
0000300000
00001c0000
00000e0000
0c000e000c
0e0006001e
0fffffffff
0e00000000
0e00000000
0e00030000
0e0003e000
0e0003c000
0e00038000
0e00038000
0e00038000
0e00038000
0e00038000
0e00038000
0e00038000
0e00038040
0e000380e0
0e1ffffff0
0e00038000
0e00038000
0e00038000
0e00038000
0e00038000
0e00038000
1c00038000
1c00038000
1c00038000
1c00038000
1800038000
3800038000
3800038000
3000038000
700003800c
600003801e
c1ffffffff
8000000000
0000000000
ENDCHAR
STARTCHAR 223d
ENCODING 8765
SWIDTH 903 0
DWIDTH 40 0
BBX 40 40 0 -6
BITMAP
0000000600
0000000f00
0fffffff80
0000000780
0000000700
0000000700
0000000700
0000000700
0c00000700
0fffffff00
0e00000600
0e00000010
0e00000010
0e00000030
0e00000030
0f00000060
0ffffffff0
07fffffff0
03ffffffe0
0000000000
0030003000
003e003e00
003c003c00
0038003800
0038003800
003800380c
003800381e
ffffffffff
0038003800
0038003800
0038003800
0070003800
0070003800
00e0003800
00e0003800
01c0003800
0380003800
0700003800
0e00003800
3800003000
ENDCHAR
STARTCHAR 223e
ENCODING 8766
SWIDTH 903 0
DWIDTH 40 0
BBX 40 40 0 -6
BITMAP
0000070000
000c01c000
000f80e000
000f007000
001e003800
001c001c00
0038000e00
0070000780
00e00003c0
01c00001f0
03800000ff
0700000e7f
0effffff1e
3800380f0e
e000380e00
0000380e00
0000380e00
0000380e00
0180380e00
01fffffe00
01c0380c00
01c0380000
0380380000
03803800c0
03803801e0
07fffffff0
03003800f0
00003800e0
00003800e0
00003800e0
00003801e0
00003801c0
00003803c0
000039ff80
0000383f00
0000380e00
0000380c00
0000380000
0000380000
0000300000
ENDCHAR
STARTCHAR 223f
ENCODING 8767
SWIDTH 903 0
DWIDTH 40 0
BBX 40 40 0 -6
BITMAP
0030060000
003c07c000
0078078000
0070070000
00e0070000
01e0070000
01c00e0000
03800e000c
07000e001e
0e001fffff
1c301c000f
303c18000e
007838000e
007030000e
00e070000e
01e060000e
01c0c0000e
038083000e
078001c00e
078000e00e
0f8000700e
1f8000380e
1b80003c0e
3380001c0e
6380000c0e
c38000000e
038000000e
038000000e
038000000e
038000000e
038000001e
038000001c
038000001c
038000003c
0380000038
03800000f8
0380007ff0
03800007e0
03800001c0
0300000180
ENDCHAR
STARTCHAR 2240
ENCODING 8768
SWIDTH 903 0
DWIDTH 40 0
BBX 40 40 0 -6
BITMAP
0600006000
07c0007c00
0780007800
0700007000
0700007000
0700007000
0700007000
0700007000
0700007000
0780007000
27c0007008
276000701c
2771fffffe
6738007000
6738007000
6718007000
e700007000
e700007000
c70000f800
c70000f800
070000f800
070000d800
070001cc00
070001cc00
070001cc00
0700038600
0700038600
0700038700
0700070300
0700070380
07000e01c0
07000e01e0
07001c00f0
07003c00f8
070038007c
070070003f
0700e0001f
0701c0000e
0703800006
060e000000
ENDCHAR
STARTCHAR 2241
ENCODING 8769
SWIDTH 903 0
DWIDTH 40 0
BBX 40 40 0 -6
BITMAP
0600060000
07c007c000
0780078000
0700070000
0700070000
0700070000
07000e0018
07000e003c
07001ffffe
07801c0000
27c0380000
2760300000
2770600000
6738c00000
6739800000
6718000300
e700000780
e7003fffc0
c7000003c0
c700000700
0700000e00
0700001c00
0700003800
0700007000
070000e000
070001c000
0700038000
0700070000
07000e0000
07001c0000
0700380001
0700380001
0700700003
0700700003
0700700006
070078000e
07003fffff
07001fffff
070007fffe
0600000000
ENDCHAR
STARTCHAR 2242
ENCODING 8770
SWIDTH 903 0
DWIDTH 40 0
BBX 40 40 0 -6
BITMAP
06000001c0
07c00007e0
0780003ff0
070001fe00
07000ff800
07007e3800
0700003800
0700003800
0700003800
0780003800
27c0003800
2760003800
2770003800
6738003800
673800380c
671800381e
e701ffffff
e700003800
c700003800
c700003800
0700003800
0700003800
0700003800
0700003800
0700003800
0700003800
0700003800
0700003800
0700003800
0700003800
0700003800
0700003800
0700003800
0700003800
0700003800
0700003800
0700003800
0700003800
0700003800
0600003000
ENDCHAR
STARTCHAR 2243
ENCODING 8771
SWIDTH 903 0
DWIDTH 40 0
BBX 40 40 0 -6
BITMAP
0300000000
03e0000010
03c0000038
03807ffffc
0380003800
0380003800
0380003800
0380003800
0380003800
0398003800
7ffc003800
0380003800
0380003800
0380003800
0380003804
038000380e
0381ffffff
0380003800
039c003800
03f0003800
03c0003800
0f80003800
ff80003800
ff80003800
7380003800
3380003800
0380003800
0380003800
0380003800
0380003800
0380003800
0380003800
0380003800
0380003800
0380003800
0780007800
7f801ff800
0f8003f000
070000e000
060000c000
ENDCHAR
STARTCHAR 2244
ENCODING 8772
SWIDTH 903 0
DWIDTH 40 0
BBX 40 40 0 -6
BITMAP
0300000000
03e0000010
03c0000038
03807ffffc
0380003800
0380003800
0380003800
0380003800
0380003800
0398003800
7ffc003800
0380003800
0380003800
0380003800
0380003800
0380003804
038000380e
0381ffffff
039c003800
03f0003800
03c0003800
0f80003800
ff80003800
ff80003800
7380003800
3380003800
0380003800
0380003800
0380003800
0380003800
0380003800
0380003800
0380003800
0380003800
0380003800
0780003800
7f80003800
0f80003800
0700003800
0600003000
ENDCHAR
STARTCHAR 2245
ENCODING 8773
SWIDTH 903 0
DWIDTH 40 0
BBX 40 40 0 -6
BITMAP
0300000000
03e000000c
03c000001e
0381ffffff
0380070380
0380070380
0380070380
0380070380
0380070380
0398070380
7ffc070380
0380070380
0380070380
0380070380
0380070380
0380070380
0380070380
0380070380
039c070380
03f0070380
03c0070380
0f80070380
ff80070380
ff800e0380
73800e0380
33800e0380
03800e0380
03801c0380
03801c0380
03801c0380
0380380380
0380380381
0380700381
0380700383
0380e00383
0780c003c6
7f818003ff
0f830001ff
07060000fe
060c000000
ENDCHAR
STARTCHAR 2246
ENCODING 8774
SWIDTH 903 0
DWIDTH 40 0
BBX 40 40 0 -6
BITMAP
0300003000
03e0003e00
03c0003c00
0380303800
03803e3800
03803c3800
0380383800
0380383800
0380383800
0398383800
7ffc383818
038038383c
0380383ffe
03803ff83e
0383f83838
0380383838
0380383838
0380383838
039c383870
03f0383870
03c0383870
0f80383860
ff803838e0
ff803838e0
73803838c0
33803838c0
0380383880
0380383800
0380383800
0380383000
0380380001
0380380001
0380380003
0380380003
0380380006
03803c000e
7f803fffff
07801fffff
07000ffffe
0600000000
ENDCHAR
STARTCHAR 2247
ENCODING 8775
SWIDTH 903 0
DWIDTH 40 0
BBX 40 40 0 -6
BITMAP
03000001c0
03e00007e0
03c0003ff0
038001fe00
03800ff800
03807e3800
0380003800
0380003800
0380003800
0398003800
7ffc003800
0380003800
0380003800
0380003800
038000380c
038000381e
0381ffffff
0380003800
039c003800
03f0003800
03c0003800
0f80003800
ff80003800
ff80003800
7380003800
3380003800
0380003800
0380003800
0380003800
0380003800
0380003800
0380003800
0380003800
0380003800
0380003800
0380003800
7f80003800
0780003800
0700003800
0600003000
ENDCHAR
STARTCHAR 2248
ENCODING 8776
SWIDTH 903 0
DWIDTH 40 0
BBX 40 40 0 -6
BITMAP
0300060000
03e007c000
03c0078000
0380070000
0380070000
0380070000
03800e0018
03800e003c
03801ffffe
03981c0000
7ffc380000
0380300000
0380600000
0380c00000
0381800000
0380000300
0380000780
03803fffc0
039c0003c0
03f0000700
03c0000e00
0f80001c00
ff80003800
ff80007000
738000e000
338001c000
0380038000
0380070000
03800e0000
03801c0000
0380380001
0380380001
0380700003
0380700003
0380700006
078078000e
7f803fffff
0f801fffff
070007fffe
0600000000
ENDCHAR
STARTCHAR 2249
ENCODING 8777
SWIDTH 903 0
DWIDTH 40 0
BBX 40 40 0 -6
BITMAP
0300000600
03e00007c0
03c0000780
0380000700
0380000700
0380000700
0380000700
0380000700
0380000700
0398000704
7ffc00070e
0381ffffff
0380000700
0380000700
0380100700
0380100700
0380180700
0380080700
039c0c0e00
03f00c0e00
03c0060e00
0f80060e00
ff80031c00
ff80031c00
7380019c00
338001b800
038000f800
038000f000
038000f000
038001f800
038001dc00
0380038e00
0380070700
03800e03c0
03801c01f0
03803800ff
7f8070007f
0781c0001e
0707000006
061c000000
ENDCHAR
STARTCHAR 224a
ENCODING 8778
SWIDTH 903 0
DWIDTH 40 0
BBX 40 40 0 -6
BITMAP
0300000000
03e0000000
03c0000060
03800000f0
0381fffff8
0380100078
0380100070
0380100070
0380118070
039818c070
7ffc18e0e0
03801870e0
03801870e0
03800c30e0
03800c31c0
03800c01c0
03800c01c0
0380060380
039c060380
03f0060380
03c0030700
0f80030700
ff80038e00
ff80018e00
738001dc00
338000fc00
038000f800
0380007000
038000f800
038001fc00
0380039e00
0380070f00
03800e0780
03801c03e0
03803801f8
03807000ff
7f80e0007f
078380001e
070e000006
0638000000
ENDCHAR
STARTCHAR 224b
ENCODING 8779
SWIDTH 903 0
DWIDTH 40 0
BBX 40 40 0 -6
BITMAP
03000c0000
03e00f8000
03c00f0000
03800e0000
03800e0000
03800e0000
03801c0000
03801c000c
03801c001e
03983fffff
7ffc38000f
038030000e
038070000e
038060000e
0380e0000e
0380c0000e
038180000e
038106000e
039c03800e
03f001c00e
03c000e00e
0f8000700e
ff8000780e
ff8000380e
738000180e
338000000e
038000000e
038000000e
038000000e
038000000e
038000001e
038000001c
038000001c
038000003c
0380000038
03800000f8
7f80007ff0
07800007e0
07000001c0
0600000180
ENDCHAR
STARTCHAR 224c
ENCODING 8780
SWIDTH 903 0
DWIDTH 40 0
BBX 40 40 0 -6
BITMAP
030000c000
03e000f800
03c000f000
038000e000
038000e000
038000e0e0
038000e3f0
038000eff8
038000ff80
039800fc00
7ffc07e000
03803ce000
038000e000
038000e000
038000e000
038000e000
038000e000
038000e000
039c00e000
03f000e018
03c000e03c
0f81fffffe
ff8000e000
ff8000e000
738000e000
338000e000
038000e000
038000e000
038000e000
038000e000
038000e001
038000e001
038000e003
038000e003
038000e006
078000f00e
7f8000ffff
0f80007fff
0700003ffe
0600000000
ENDCHAR
STARTCHAR 224d
ENCODING 8781
SWIDTH 903 0
DWIDTH 40 0
BBX 40 40 0 -6
BITMAP
000000c000
000000f800
000100f000
000380e000
ffffc0e000
070000e000
070001c000
070001c000
070001c000
0e0003800c
0e0003801e
0e0003ffff
0e000700e0
1c000700e0
1c060700e0
1c0f0d00e0
3fff8d80e0
18079981c0
00071081c0
000700c1c0
000700c1c0
0007004380
0007006380
0007006380
0007003700
0007003f00
0007001e00
0007001e00
0007001e00
0007003f00
000f003b80
000e0073c0
000e00e1e0
001e01c0f0
003c03807c
007807003f
3ff00e001f
07e01c000e
01c0700006
0181c00000
ENDCHAR
STARTCHAR 224e
ENCODING 8782
SWIDTH 903 0
DWIDTH 40 0
BBX 40 40 0 -6
BITMAP
0000000000
0180000600
01c0000f00
01ffffff80
01c0000780
01c0000700
01c0000700
01c0000700
01ffffff00
01c0000700
01c0000700
01c0000700
01c0000700
01ffffff00
01c0000700
0181800600
0001f00000
0001e00000
0001c00000
0001c00000
0001c01800
0001c03c00
07fffffe00
0001c01e00
0001c01c00
0001c01c00
0003801c00
0003801c00
0003801c00
0007001c00
0007001c01
000e001c01
000e001c03
001c001c03
0038001c06
0070001e0e
00e0001fff
01c0000fff
07000007fe
3c00000000
ENDCHAR
STARTCHAR 224f
ENCODING 8783
SWIDTH 903 0
DWIDTH 40 0
BBX 40 40 0 -6
BITMAP
0006000000
0007c00000
0007800000
0007000000
0007000000
0007003000
0007007800
0ffffffc00
0007003c00
0007003800
0007003800
000e003800
000e003802
001c003802
001c003806
0038003806
007000380c
00e0003c1c
01c0003ffe
0380001ffe
0e00000ffc
7800000000
0000000000
0180000e00
01ffffff00
01c0000f00
01c0000e00
01c0000e00
01c0000e00
01c0000e00
01fffffe00
01c0000e00
01c0000e00
01c0000e00
01c0000e00
01c0000e00
01fffffe00
01c0000e00
01c0000c00
0180000000
ENDCHAR
STARTCHAR 2250
ENCODING 8784
SWIDTH 903 0
DWIDTH 40 0
BBX 40 40 0 -6
BITMAP
0180000000
01f0000000
01e0000004
01c000000e
01c0ffffff
01c0000e00
01c0000e00
01c0000e00
01c2000e00
01c7000e00
7fff800e00
01c0000e00
01c0000e00
03c0000e00
03c0000e00
03e0000e00
07f0000e00
07d8000e00
07dc000e00
0fce000e00
0fc7000e00
0dc7000e00
1dc3000e00
19c0000e00
39c0000e00
31c0000e00
71c0000e00
61c0000e00
c1c0000e00
81c0000e00
01c0000e00
01c0000e00
01c0000e00
01c0000e00
01c0000e00
01c0001e00
01c007fe00
01c000fc00
01c0003800
0180003000
ENDCHAR
STARTCHAR 2251
ENCODING 8785
SWIDTH 903 0
DWIDTH 40 0
BBX 40 40 0 -6
BITMAP
0300060000
03e007c000
03c0078000
0380070000
0380070000
0380070000
0380070000
0388070000
039c070000
7ffe070300
0380070780
0381ffffc0
07800703c0
0780070380
07c0070380
0fe0070380
0fb0070380
0fb8070380
1b9c070380
1b9c070380
3b8c070380
3380070380
3380070380
63800e0380
63800e0380
c3800e0380
c3800c0380
83801c0380
03801c0380
0380180380
0380380380
0380300381
0380700381
0380600383
0380e00383
0380c003c6
03818003ff
03830001ff
03860000fe
030c000000
ENDCHAR
STARTCHAR 2252
ENCODING 8786
SWIDTH 903 0
DWIDTH 40 0
BBX 40 40 0 -6
BITMAP
018000c000
01f000f800
01e000f000
01c000e000
01c000e000
01c000e000
01c000e000
01c400e000
01ce00e000
7fff00e00c
01c000e01e
03c0ffffff
03c000e00f
03c000e00e
07e000e00e
07f000e00e
0fd800e00e
0ddc00e00e
0dce00e00e
1dce00e00e
19c600e00e
39c000e00e
31c001c00e
71c001c00e
61c001c00e
c1c001c00e
81c003800e
01c003800e
01c003801e
01c007001c
01c007001c
01c00e001c
01c01c003c
01c01c0038
01c0380078
01c07000f0
01c0e07fe0
01c1c00fc0
01c3800380
018e000300
ENDCHAR
STARTCHAR 2253
ENCODING 8787
SWIDTH 903 0
DWIDTH 40 0
BBX 40 40 0 -6
BITMAP
0180000030
01f000003e
01e000003c
01c0000038
01c00c0038
01c00f8038
01c00f0038
01c00e0038
01c40e0038
01ce0e0038
7fff0e0038
01c00e0038
01c00e0038
03c00e0038
03c00e0038
03e00e0038
07f00e0038
07d80e0038
07dc0e0038
0fce0e0038
0fce0e0038
0dc60e0038
1dc00e0038
19c00e0038
39c00e0038
31c00e0038
71c01ffff8
61c00c0038
c1c0000038
81c0000038
01c0000038
01c0000038
01c0000038
01c0000038
01c0000038
01c0000038
01c0000038
01c0000038
01c0000038
0180000030
ENDCHAR
STARTCHAR 2254
ENCODING 8788
SWIDTH 903 0
DWIDTH 40 0
BBX 40 40 0 -6
BITMAP
0300000000
03e0000000
03c0180300
03801c0780
03801fffc0
03801c03c0
03801c0380
03881c0380
039c1c0380
7ffe1c0380
03801c0380
03801c0380
07801c0380
07801c0380
07c01c0380
0fe01c0380
0fb01c0380
0fb81c0380
1f9c1c0380
1b9c1c0380
3b8c1c0380
3b801c0380
33801c0380
73801c0380
63801c0380
c3801c0380
c3801c0380
8380380380
0380380380
0380380380
0380300380
0380700381
0380600381
0380e00383
0380c00383
03818003c6
03830003ff
03860001ff
038c0000fe
0318000000
ENDCHAR
STARTCHAR 2255
ENCODING 8789
SWIDTH 903 0
DWIDTH 40 0
BBX 40 40 0 -6
BITMAP
0000300000
00003e0000
00003c0000
0000380000
0000380000
000038000c
000038001e
ffffffffff
0000380000
0000380000
0000380000
0000380180
06003803c0
07ffffffe0
07003801e0
07003801c0
07003801c0
07003801c0
07003801c0
07003801c0
07003801c0
07003803c0
07007c3fc0
07007c0380
0600fe0300
0001fb0000
0001bb8000
0003b9c000
000738e000
000e387800
001c383c00
0038381f00
0070380fc0
00e03803f8
01c03801ff
078038007f
0e0038003c
380038000c
e000380000
0000300000
ENDCHAR
STARTCHAR 2256
ENCODING 8790
SWIDTH 903 0
DWIDTH 40 0
BBX 40 40 0 -6
BITMAP
01800c0000
01f00f8000
01e00f0000
01c00e0000
01c00e0000
01c00e0000
01c00e0000
01c00e0000
01c40e0000
01ce0e0000
7fff0e0000
01c00e0000
01c00e0000
03c00e0030
03c00e0078
03e00ffffc
07f00e0000
07d80e0000
07dc0e0000
0fce0e0000
0fce0e0000
0dc60e0000
1dc00e0000
19c00e0000
39c00e0000
31c00e0000
71c00e0000
61c00e0000
c1c00e0001
81c00e0001
01c00e0003
01c00e0003
01c00e0006
01c00e0006
01c00e000e
01c00f001f
01c00fffff
01c007fffe
01c003fff8
0180000000
ENDCHAR
STARTCHAR 2257
ENCODING 8791
SWIDTH 903 0
DWIDTH 40 0
BBX 40 40 0 -6
BITMAP
0300000000
03e0006000
03c0003000
0380003800
0380001800
0380001800
0380001800
0388001c00
039c0c0c00
7ffe0f8c00
03800f0c00
03800e0c00
07800e0e00
07800e0600
07c00e0600
0fe00e0600
0fb00e0600
0fb80e0700
1f9c0e0300
1b9c1c0300
3b8c1c0380
3b801c0380
33801c0380
73801c0180
63801c01c0
c3803801c0
c3803801c0
83803800e0
03803800e0
03807000e0
03807000f0
0380e00078
0380e00078
0380c0003c
0381c0003e
038180001f
038380001f
038300000e
0386000006
030c000000
ENDCHAR
STARTCHAR 2258
ENCODING 8792
SWIDTH 903 0
DWIDTH 40 0
BBX 40 40 0 -6
BITMAP
0300000000
03c0000000
0380000060
03800000f0
07fffffff8
0700000000
0700000000
0e00000000
0e00000180
0fffffffc0
1c00000000
1800000000
3800000000
3000000700
67ffffff80
c000000780
0000000700
0000000700
00600c0700
007c0f8700
00780f0700
00700e0700
00700e0700
00700e0700
00700e0700
00700e0380
00700e0380
00700e0380
00700e0381
00700e01c1
00e00e01c3
00e00e01c3
00e00e00e6
01c00e00ee
01c00e007e
03800e007e
07000e003f
0e000e001f
1c000e000e
70000c0000
ENDCHAR
STARTCHAR 2259
ENCODING 8793
SWIDTH 903 0
DWIDTH 40 0
BBX 40 40 0 -6
BITMAP
0003800000
0000e00000
0000380000
00007c0000
0000fe0000
0000e70000
0001c38000
000381c000
000700e000
000e007000
001c003c00
0038001e00
0070000f80
00e01807f0
01c01f03ff
03801e00ff
0e001c007c
38001c001c
e0001c0000
00001c0000
00001c0180
00061c03c0
000f1c07e0
1fff9e0f00
000f9e1c00
000e1f7000
000e1dc000
001c1cc000
001c1ce000
00381c7000
00381c3800
00701c1e00
00e01c0f00
01c01c07e0
03801c03ff
07003c00ff
0e0ffc007c
3801f8001c
e000700000
0000600000
ENDCHAR
STARTCHAR 225a
ENCODING 8794
SWIDTH 903 0
DWIDTH 40 0
BBX 40 40 0 -6
BITMAP
0000000000
1800030000
0e00018000
070000c000
070000e000
0300007000
0000007800
0000003800
000000380c
002000181e
0027ffffff
c060380000
7060380000
3860380000
38c0380000
18c0380000
00c0380000
01c0380000
0180380000
0180380000
0380380000
0300380000
0300380000
0700380000
0600380000
0e00380000
0e00380000
1e00380000
fc00380000
3c00380000
1c00380000
1c00380000
0e00380000
0e00380000
0f003c0000
0f003ffff8
0f001ffffc
0f000ffffc
0600000000
0000000000
ENDCHAR
STARTCHAR 225b
ENCODING 8795
SWIDTH 903 0
DWIDTH 40 0
BBX 40 40 0 -6
BITMAP
0000000000
0c00c00030
0700e00078
0380fffffc
01c0e0003c
01c0e00038
00c0e00038
0000e00038
0000e00038
0008e00038
0008e00038
c018e00038
7010e00038
3830e00038
1c30e00038
1c60e00038
0c60e00038
0060fffff8
00c0e00038
00c0e00038
01c0e00030
0180e00000
0380e00000
0300e00000
0700e00000
0700e00000
0e00e00000
1e00e00000
fe00e00000
3c00e00001
1c00e00001
1c00e00003
0e00e00003
0e00e00006
0f00f0000e
0f00ffffff
0f007fffff
0f001ffffe
0600000000
0000000000
ENDCHAR
STARTCHAR 225c
ENCODING 8796
SWIDTH 903 0
DWIDTH 40 0
BBX 40 40 0 -6
BITMAP
0000006000
0c00007c00
0700007800
0380007000
01c0007000
01c0007000
00c0007000
0000007000
0000007000
0008007000
000800700c
c01800701e
7013ffffff
3830007000
1c30007000
1c60007000
0c60007800
006000e800
00c000e800
00c000e800
01c000ec00
018001cc00
038001c400
030001c600
0700038600
0700038600
0e00038300
1e00070300
fe00070380
3c000e01c0
1c000e01c0
1c001c00e0
0e003800f0
0e00380078
0f0070007c
0f00e0003f
0f01c0001f
0f0380000e
060e000006
0038000000
ENDCHAR
STARTCHAR 225d
ENCODING 8797
SWIDTH 903 0
DWIDTH 40 0
BBX 40 40 0 -6
BITMAP
0000000000
0c00000000
0700000060
03800000f0
01c1fffff8
01c0100078
00c0100070
0000100070
0000118070
000818c070
000818e0e0
c0181870e0
70101870e0
38300c30e0
1c300c31c0
1c600c01c0
0c600c01c0
0060060380
00c0060380
00c0060380
01c0030700
0180030700
0380038e00
0300018e00
070001dc00
070000fc00
0e0000f800
1e00007000
fe0000f800
3c0001fc00
1c00039e00
1c00070f00
0e000e0780
0e001c03e0
0f003801f8
0f007000ff
0f00e0007f
0f0380001e
060e000006
0038000000
ENDCHAR
STARTCHAR 225e
ENCODING 8798
SWIDTH 903 0
DWIDTH 40 0
BBX 40 40 0 -6
BITMAP
0000180000
0c001f0000
07001e0000
03801c0000
01c01c0000
01c01c0000
00c0380018
000038003c
00007ffffe
0008700000
0008e00000
c018c00000
7011800000
3833000000
1c36000000
1c60000180
0c600003c0
0060ffffe0
00c00007e0
00c0000f00
01c0001e00
0180003800
0380007000
030000e000
070001c000
0700038000
0e00070000
1e000e0000
fe001c0000
3c00380000
1c00700001
1c00e00001
0e00e00003
0e01c00003
0f01c00006
0f01e0000e
0f00ffffff
0f007fffff
06001ffffe
0000000000
ENDCHAR
STARTCHAR 225f
ENCODING 8799
SWIDTH 903 0
DWIDTH 40 0
BBX 40 40 0 -6
BITMAP
0000180000
0c001f0000
07001e0000
03801c0000
01c01c0000
01c01c0000
00c0380000
0000380018
000038003c
00087ffffe
000870001e
c01860001c
7010e0001c
3830c0001c
1c31c0001c
1c6180001c
0c6300001c
00620c001c
00c007001c
00c003801c
01c001c01c
018000e01c
038000f01c
030000701c
070000301c
070000001c
0e0000001c
1e0000001c
fe0000001c
3c0000001c
1c0000003c
1c00000038
0e00000038
0e00000078
0f00000070
0f000001f0
0f0000ffe0
0f00000fc0
0600000380
0000000300
ENDCHAR
STARTCHAR 2260
ENCODING 8800
SWIDTH 903 0
DWIDTH 40 0
BBX 40 40 0 -6
BITMAP
0000000000
0c00600018
07007c001f
038078001e
01c070301c
01c0703e1c
00c0703c1c
000070381c
000070381c
000870381c
000870381c
c01870381c
701070381c
383070381c
1c3070381c
1c6070381c
0c6070381c
006070381c
00c070381c
00c070381c
01c070381c
018070381c
038070381c
030070381c
070070381c
0700e0381c
0e00e0381c
1e00e0381c
fe00e0381c
3c00c0381c
1c01c0381c
1c01c0381c
0e0180381c
0e0380381c
0f0300301c
0f0700001c
0f0600001c
0f0c00001c
061800001c
0030000018
ENDCHAR
STARTCHAR 2261
ENCODING 8801
SWIDTH 903 0
DWIDTH 40 0
BBX 40 40 0 -6
BITMAP
0000000000
0300000000
03e000000c
03c000001e
03807fffff
038000e00f
038000e00e
038000e00e
038000e00e
039800e00e
839e00e00e
c39c00e00e
63b800e00e
73b000e00e
3be000e00e
3bc000e00e
3b8000e00e
1b8000e00e
038000e00e
038001c00e
038001c00e
038001c00e
038001c00e
038001c00e
070003800e
070003800e
078003800e
07c007000e
0e6007000e
0e700e001e
0c380e001c
1c3c1c001c
181c1c003c
381c380038
300c700078
7000e000f0
6001c07fe0
c003800fc0
8007000380
001c000300
ENDCHAR
STARTCHAR 2262
ENCODING 8802
SWIDTH 903 0
DWIDTH 40 0
BBX 40 40 0 -6
BITMAP
00c0006000
00f8007c00
00f0007800
30e0007000
3ce0007000
38e0007000
38e0007000
38e0007000
38e2007000
38e700700c
3fff80701e
70e03fffff
70e000700f
60e000700e
60e000700e
c0e000700e
c0e000700e
80e000700e
00e000700e
00e000700e
00e700e00e
00fc00e00e
0ff000e00e
ffe000e00e
fce000c00e
70e001c00e
30e001c00e
00e001800e
00e003801e
00e003001c
00e007001c
00e006001c
00e00e003c
00e00c0038
00e0180078
00e03000f0
00e0607fe0
00e0c00fc0
00e1800380
00c3000300
ENDCHAR
STARTCHAR 2263
ENCODING 8803
SWIDTH 903 0
DWIDTH 40 0
BBX 40 40 0 -6
BITMAP
0000000000
0060000010
6078000038
30f07ffffc
18e0003800
0dc0003800
0780003800
0700003800
0780003800
0d80003800
19c0003800
30c0003800
60e0003800
c0e0003800
0060003800
0070003804
00f000380e
00f1ffffff
01f0003800
01f8003800
03b8003800
0738003800
0638003800
0c38003800
1838003800
3038003800
6038003800
c038003800
0038003800
0038003800
0038003800
0038003800
0078003800
0070003800
00f0003800
01e0003800
3fe0003800
0fc0003800
0380003800
0300003000
ENDCHAR
STARTCHAR 2264
ENCODING 8804
SWIDTH 903 0
DWIDTH 40 0
BBX 40 40 0 -6
BITMAP
0000030000
006003e000
607803c000
30f0038000
18e0038000
0dc0038000
078007000c
070007001e
07800fffff
0d800e0000
19c01c0000
30c0180000
60e0300000
c0e0600000
0060c00060
00700000f0
00f01ffff8
00f00000f8
01f00001e0
01f8000380
03b8000700
0738000e00
0638001c00
0c38003800
1838007000
303800e000
603801c000
c038038000
0038070000
00380e0000
00381c0001
00381c0001
0078380003
0070380003
00f0380006
01e03c000e
3fe01fffff
0fc00fffff
038003fffe
0300000000
ENDCHAR
STARTCHAR 2265
ENCODING 8805
SWIDTH 903 0
DWIDTH 40 0
BBX 40 40 0 -6
BITMAP
0000000000
0000000000
0000000004
000800000e
001c7fffff
fffe000e00
0380000e00
0380000e00
0380000e00
0380000e00
0380000e00
0380000e00
0380000e00
0380000e00
0380000e00
0380000e00
0398000e00
7ffc000e00
0380000e00
0380000e00
0380000e00
0380000e00
0380000e00
0380000e00
0380000e00
0380000e00
0380000e00
0380000e00
038e000e00
03f8000e00
0fe0000e00
ff00000e00
fc00000e00
7000000e00
3000000e00
0000001e00
000007fe00
000000fc00
0000003800
0000003000
ENDCHAR
STARTCHAR 2266
ENCODING 8806
SWIDTH 903 0
DWIDTH 40 0
BBX 40 40 0 -6
BITMAP
0000600000
0000f00000
0003f80000
0007c00000
001e000000
0070000000
01c0000060
07000000f0
07fffffff8
07001c0078
07001c0070
07001c0070
07001c0070
07001c0070
07001c0070
07001c0070
07001c0070
07fffffff0
07001c0070
07001c0070
07001c0070
07001c0070
07001c0070
07001c0070
07001c0070
07001c0070
07fffffff0
07001c0070
07001c0070
07001c0070
0e001c0070
0e001c0070
0e001c0070
0c001c0070
1c001c0070
18001c00f0
38001c3ff0
30001c07e0
60001801c0
4000000180
ENDCHAR
STARTCHAR 2267
ENCODING 8807
SWIDTH 903 0
DWIDTH 40 0
BBX 40 40 0 -6
BITMAP
0000030000
00c003e000
00f003c000
00e0038000
01c0038000
0180038000
0380038000
0306038000
660f038000
7fff838000
7007838000
7007038000
7007038000
7007038000
7007038000
7007038000
7007038000
7007038000
7007038000
7007038000
7fff038000
7007038000
7007038000
7007038000
7007038000
7007038000
7007038000
7007038000
7007038001
7007038001
7007038003
7fff038003
7007038006
7006038006
600003800e
000003c01f
000003ffff
000001fffe
000000fff8
0000000000
ENDCHAR
STARTCHAR 2268
ENCODING 8808
SWIDTH 903 0
DWIDTH 40 0
BBX 40 40 0 -6
BITMAP
0000c00000
0000700000
0800380000
080038000c
180018001e
1fffffffff
380701c01f
700701c01c
f00e01c018
e01c01e010
c03801fff8
007000fffc
00e0003ffc
0380000000
0e00000000
3800001800
0000003c00
01fffffe00
0000007e00
000000f000
000003c000
00000f8000
00003e0000
0000780000
0001e00000
0003c00000
000f000000
001e000000
0038000000
00f0000000
01e0000004
03c0000004
078000000c
070000000c
0f00000018
0f80000038
07fffffffc
03fffffffc
00fffffff8
0000000000
ENDCHAR
STARTCHAR 2269
ENCODING 8809
SWIDTH 903 0
DWIDTH 40 0
BBX 40 40 0 -6
BITMAP
0000000000
6000000018
700000003c
7ffffffffe
700000001e
700000001c
700000001c
7003000c1c
7003e00f9c
7003c00f1c
7003800e1c
73038c0e1c
7183860e1c
70c3830e1c
7063818e1c
703700dc1c
703f00fc1c
701f007c1c
700e00381c
700f003c1c
700f003c1c
701f807e1c
701dc0771c
7018e0639c
7038f0e3dc
703070c1dc
707071c1dc
70603180dc
70c003001c
718006001c
73000c001c
760018001c
700000001c
700000001c
700000001c
700000003c
7000000ffc
70000001f8
7000000070
6000000060
ENDCHAR
STARTCHAR 226a
ENCODING 8810
SWIDTH 903 0
DWIDTH 40 0
BBX 40 40 0 -6
BITMAP
00c0000600
00f80007c0
00f0000780
00e0000700
00e0000700
00e0000700
00e0000700
60e183070c
78e1e3c70f
70e1c3870e
70e1c3870e
70e1c3870e
70e1c3870e
70e1c3870e
70e1c3870e
70e1c3870e
70e1c3870e
70e1c3870e
70e1c3870e
70e1c3870e
70e1c3870e
70e1c3870e
ffffc7fffe
60e1c3070e
00e180070c
00e0000700
01c0000700
01c0000700
01c0000700
01c0000700
0380000700
0380000700
0700000700
0700000700
0e00000700
0e00000700
1c00000700
1800000700
3000000700
6000000600
ENDCHAR
STARTCHAR 226b
ENCODING 8811
SWIDTH 903 0
DWIDTH 40 0
BBX 40 40 0 -6
BITMAP
0060001800
007c001f00
0078001e00
0070801c04
0071c01c0e
ffffe7ffff
0070001c00
0070001c00
0070001c00
0060001800
0000000000
0000000000
0000000018
000000003c
7ffffffffe
00001c0000
00001c0000
00001c0000
00001c0000
00001c0000
00001c0000
00001c0000
00001c0000
00001c0000
00001c0000
00001c0000
00001c0000
00001c0000
00001c0000
00001c0000
00001c0000
00001c0000
00001c0000
00001c0000
00001c0000
00003c0000
001ffc0000
0001f80000
0000700000
0000600000
ENDCHAR
STARTCHAR 226c
ENCODING 8812
SWIDTH 903 0
DWIDTH 40 0
BBX 40 40 0 -6
BITMAP
0060001800
007c001f00
0078001e00
0070801c04
0071c01c0e
ffffe7ffff
0070001c00
0070001c00
0070001c00
0060001800
0000000000
0000000180
00000003c0
03ffffffe0
0001c001e0
0001c001c0
0001c001c0
0001c001c0
0001c001c0
0001c001c0
0001c001c0
0001c001c0
0001c001c0
0001c001c0
00038001c0
00038001c0
00038001c0
00038001c0
00070001c0
00070001c0
000e0001c0
000e0003c0
001c000380
0038000380
0070000780
00e0000f00
01c00ffe00
038000fc00
0e00003800
7800003000
ENDCHAR
STARTCHAR 226d
ENCODING 8813
SWIDTH 903 0
DWIDTH 40 0
BBX 40 40 0 -6
BITMAP
0060001800
007c001f00
0078001e00
0070801c04
0071c01c0e
ffffe7ffff
0070001c00
0070001c00
0070001c00
0061801800
0001f00000
0001e00000
0001c00000
0001c00000
0001c00000
0001c00000
0001c01800
0001c03c00
07fffffe00
0001c01e00
0001c01c00
0001c01c00
0001c01c00
0001c01c00
0001c01c00
0003801c00
0003801c00
0003801c00
0007001c00
0007001c00
000e001c01
000e001c01
001c001c03
0038001c03
0070001c06
00e0001e0e
01c0001fff
0380000fff
0e000007fe
7800000000
ENDCHAR
STARTCHAR 226e
ENCODING 8814
SWIDTH 903 0
DWIDTH 40 0
BBX 40 40 0 -6
BITMAP
0060001800
007c001f00
0078001e00
0070801c04
0071c01c0e
ffffe7ffff
0070001c00
0070001c00
0070001c00
0060001800
0000000000
0000000000
0000000600
0000000f00
07ffffff80
0003800f80
0003800e00
0003800e00
0003801c00
0003801c00
0003801c00
000380380c
000380381e
0003807fff
000380300f
000700000e
000700000e
000700000e
000e00000e
000e00000e
001c00000e
001c00000e
003800001e
007000001c
00e000003c
01c0000078
0380007ff0
07000007e0
1c000001c0
7000000180
ENDCHAR
STARTCHAR 226f
ENCODING 8815
SWIDTH 903 0
DWIDTH 40 0
BBX 40 40 0 -6
BITMAP
0000300000
00003e0000
00003c0000
0000380000
0000380180
00003803c0
00003fffe0
0000380000
0000380000
180038000c
1c0038001e
1fffffffff
1c0000001f
1c00c0001c
1c00f80018
1c00f00010
1c00e00000
1c00e00300
1c00e00780
1dffffffc0
1c00e00000
1c00e00000
1c00e00000
1c00e00000
1c00e00000
1c00f00000
1c00ffffe0
1c007ffff0
1c003ffff0
1800000000
3800000000
3800000000
3800000000
3000000000
7000000000
6000000000
6000000000
c000000000
8000000000
0000000000
ENDCHAR
STARTCHAR 2270
ENCODING 8816
SWIDTH 903 0
DWIDTH 40 0
BBX 40 40 0 -6
BITMAP
0000000000
000000000c
000000001e
ffffffffff
000e00e000
000e00e000
000e00e000
000e00e000
000e00e000
000e00e000
000e00e000
000e00e000
300e00e030
380e00e078
3ffffffffc
380e00e03c
380e00e038
380e00e038
380e00e038
380e00e038
380e00e038
380e00e038
380e00e038
380e00e038
380e00e038
380fffe038
380e00e038
380e00c038
380c000038
3800000038
3800000038
3800000038
3800000038
3800000038
3800000038
3800000038
3800000038
3800000038
3800000038
3000000030
ENDCHAR
STARTCHAR 2271
ENCODING 8817
SWIDTH 903 0
DWIDTH 40 0
BBX 40 40 0 -6
BITMAP
0000000000
0300003018
018000383c
00c0003ffe
00e000381e
007000381c
0078003818
0038003838
0038183830
00183c3870
fffffe3860
1c000038c0
1c000038c0
1c00003980
1c000038c0
1c00003860
1c00003830
1c00003818
1c0000381c
1c0000380c
1c0000380e
1c0000380e
1c00003807
1c00003807
1c00003807
1c00003807
1c00003807
1c00003807
1c0000380f
1c00003ffe
1c000038fe
1e0000383c
1ffff03838
0ffff83800
07fff83800
0000003800
0000003800
0000003800
0000003800
0000003000
ENDCHAR
STARTCHAR 2272
ENCODING 8818
SWIDTH 903 0
DWIDTH 40 0
BBX 40 40 0 -6
BITMAP
0000000000
0000203018
000070383c
3ffff83ffe
003800381e
003800381c
0038003818
0038003838
0038003830
0038003870
0038003860
00380038c0
00380038c0
0038003980
00380038c0
0038083860
00381c3830
fffffe3818
003800381c
003800380c
003800380e
003800380e
0038003807
0038003807
0038003807
0038003807
0038003807
0038003807
003800380f
0038003ffe
00380038fe
003800383c
0038003838
0038003800
0038003800
0038003800
0038003800
0038003800
0038003800
0030003000
ENDCHAR
STARTCHAR 2273
ENCODING 8819
SWIDTH 903 0
DWIDTH 40 0
BBX 40 40 0 -6
BITMAP
0000000000
0000203018
000070383c
3ffff83ffe
003800381e
003800381c
0038003818
0038003838
0038003830
0038003870
0038003860
00380038c0
00380038c0
0038003980
00380838c0
00381c3860
fffffe3830
0038003818
003800381c
003800380c
003800380e
003800380e
0038003807
0038003807
0038003807
0038003807
0038003807
0038003807
003800380f
0038003ffe
00380038fe
003800383c
0038003838
0038003800
0038003800
0078003800
1ff8003800
03f0003800
00e0003800
00c0003000
ENDCHAR
STARTCHAR 2274
ENCODING 8820
SWIDTH 903 0
DWIDTH 40 0
BBX 40 40 0 -6
BITMAP
0000000000
000000c018
000000e03c
000000fffe
000040e03e
0000e0e038
3ffff0e038
007000e070
007000e060
007000e060
007000e0c0
007000e0c0
007000e180
007000e180
007000e0c0
007000e060
007000e030
007000e018
007000e01c
007000e00c
007000e00e
007000e00e
007000e007
007000e007
007000e007
007000e007
007000e007
007000e00f
0073f8e00e
01ff80e01e
fff000fffc
ff0000e3f8
780000e070
380000e060
000000e000
000000e000
000000e000
000000e000
000000e000
000000c000
ENDCHAR
STARTCHAR 2275
ENCODING 8821
SWIDTH 903 0
DWIDTH 40 0
BBX 40 40 0 -6
BITMAP
0000000000
000180c018
0003c0e03c
7fffe0fffe
0001e0e03e
0001c0e038
0001c0e038
0001c0e070
0001c0e060
0001c0e060
0001c0e0c0
0001c0e0c0
0001c0e180
0001c0e180
6001c0e0c0
7001c0e060
7fffc0e030
7001c0e018
700180e01c
700000e00c
700000e00e
700000e00e
700000e007
700000e007
700000e007
700000e007
700000e007
700000e00f
700000e00e
7001e0e01e
700f80fffc
70fc00e3f8
7fe000e070
7f0000e060
7c0000e000
700000e000
300000e000
000000e000
000000e000
000000c000
ENDCHAR
STARTCHAR 2276
ENCODING 8822
SWIDTH 903 0
DWIDTH 40 0
BBX 40 40 0 -6
BITMAP
0000000000
603000000c
707800001e
7ffdffffff
703c070380
7038070380
7030070380
7070070380
7060070380
7060070380
70c0070380
70c0070380
7180070380
7180070380
7080070380
70c0070380
7060070380
7070070380
7030070380
7038070380
7038070380
701c070380
701c070380
701c0e0380
701c0e0380
701c0e0380
701c0c0380
703c1c0380
7ffc1c0380
71f8180380
7070380380
7060300381
7000700381
7000600383
7000c00383
70018003c6
70030003ff
70060001ff
700c0000fe
6018000000
ENDCHAR
STARTCHAR 2277
ENCODING 8823
SWIDTH 903 0
DWIDTH 40 0
BBX 40 40 0 -6
BITMAP
0000003000
6060003e00
70f0003c00
7ff8303800
70783e3800
70703c3800
7060383800
70e0383800
70c0383800
70c0383800
7180383818
718038383c
7300383ffe
73003ff83e
7103f83838
7180383838
70c0383838
70e0383838
7060383870
7070383870
7070383870
7038383860
70383838e0
70383838e0
70383838c0
70383838c0
7038383880
7078383800
7ff0383800
71f0383000
70e0380001
70c0380001
7000380003
7000380003
7000380006
70003c000e
70003fffff
70001fffff
70000ffffe
6000000000
ENDCHAR
STARTCHAR 2278
ENCODING 8824
SWIDTH 903 0
DWIDTH 40 0
BBX 40 40 0 -6
BITMAP
0000000000
6060000300
70f0000780
7ff9ffffc0
70780703c0
7070070380
7060070380
70e0070380
70c0070380
70c0070380
7180070380
7180070380
7300070380
7300070380
7100070380
7180070380
70c0071380
70e0073b80
7061ffff80
7070070380
7070070380
7038070380
70380701c0
70380701c0
70380701c0
70380701c0
70380701c0
70780701c0
7ff00700e0
71f00700e1
70e00700e1
70c00700e3
7000070073
7000070076
700007003e
700007003e
700007001e
700007001f
700007000f
6000060006
ENDCHAR
STARTCHAR 2279
ENCODING 8825
SWIDTH 903 0
DWIDTH 40 0
BBX 40 40 0 -6
BITMAP
00000c0000
60300f8000
70780f0000
7ffc0e0000
703c0e0000
70380e0000
70301c0018
70701c003c
70603ffffe
7060380000
70c0700000
70c0600000
7180c00000
7181800000
7083000000
70c0000180
70600003c0
70707fffe0
70300003e0
7038000780
7038000e00
701c001c00
701c003800
701c007000
701c00e000
701c01c000
701c038000
703c070000
7ffc0e0000
71f81c0000
7070380001
7060700001
7000700003
7000e00003
7000e00006
7000f0000e
70007fffff
70003fffff
70000ffffe
6000000000
ENDCHAR
STARTCHAR 227a
ENCODING 8826
SWIDTH 903 0
DWIDTH 40 0
BBX 40 40 0 -6
BITMAP
0030000000
003e000000
003c00c030
007800703e
007000383c
0070001c38
00e0001c78
00e0000c70
01c0060070
01c007c0e0
03800780e0
03800701c0
07800701c0
0780070380
0f80070380
0f80070700
1f80070700
3b80070e00
3380870e00
6380871c00
c380871c30
0381873818
038187380c
038187700e
038387700e
038387e007
038787c007
038707c007
0387078003
0386078013
03800f8010
03800f8030
03801f8030
03803bc060
038073fff0
0380e1fff0
0381c0ffe0
0383800000
038e000000
0338000000
ENDCHAR
STARTCHAR 227b
ENCODING 8827
SWIDTH 903 0
DWIDTH 40 0
BBX 40 40 0 -6
BITMAP
0030000000
003e000030
003c000078
0078fffffc
0070007000
0070007000
00e0007000
00e0007060
01c0c0707c
01c0607078
03803070f0
03803870e0
07801c70c0
07801c71c0
0f800e7180
0f800e7300
1f800e7300
3b80067200
3380007000
6380007004
c38000700e
0383ffffff
0380007000
0380007000
0380007000
0380007000
0380007000
0380007000
0380007000
0380007000
0380007000
0380007000
0380007000
0380007000
0380007000
0380007000
0380007000
0380007000
0380007000
0300006000
ENDCHAR
STARTCHAR 227c
ENCODING 8828
SWIDTH 903 0
DWIDTH 40 0
BBX 40 40 0 -6
BITMAP
0030000000
003c000008
003800001c
0079fffffe
0070380000
0070380000
00e0380000
00e0380000
01c0380000
01c0380000
0380380000
0380380000
0780380060
07803800f0
0f803ffff8
0f80380078
1f80380070
3b80380070
3380380070
6380380070
c380380070
0380380070
0380380070
0380380070
0380380070
03803ffff0
0380380070
0380380060
0380380000
0380380000
0380380000
0380380000
0380380000
0380380000
0380380000
038038000c
038038001e
0383ffffff
0380000000
0300000000
ENDCHAR
STARTCHAR 227d
ENCODING 8829
SWIDTH 903 0
DWIDTH 40 0
BBX 40 40 0 -6
BITMAP
003000c000
003e00f800
003c00f000
007800e000
007000e000
007000e000
00e000e000
00e000e000
01c000e020
01c000e070
0381fffff8
038000e000
078000e000
078000e000
0f8000e000
0f8000e000
1f8000e000
3b8000e000
338000e00c
638000e01e
c38fffffff
038003c000
0380038000
0380038000
0380070000
0380070000
03800e0000
03800e0000
03801c00c0
03801c0060
0380380070
0380380038
038070003c
03807007fc
0380e0ff1e
0381ffe00e
0381fe000e
0380f00006
0380700006
0300000000
ENDCHAR
STARTCHAR 227e
ENCODING 8830
SWIDTH 903 0
DWIDTH 40 0
BBX 40 40 0 -6
BITMAP
003000c000
003e00f800
003c00f000
007800e000
007000e000
007000e000
00e000e000
00e000e000
01c000e018
01c000e03c
0387fffffe
038001f000
078001f000
078003f800
0f8003f800
0f8003f800
1f8007ec00
3b8006ec00
33800eee00
63800ee600
c3801ce700
03801ce300
038038e380
038038e1c0
038070e1e0
038070e0f0
0380e0e078
0381c0e07c
038180e03f
038300e01f
038600e18e
038c7fffc6
039800e000
038000e000
038000e000
038000e000
038000e000
038000e000
038000e000
030000c000
ENDCHAR
STARTCHAR 2321
ENCODING 8993
SWIDTH 903 0
DWIDTH 40 0
BBX 40 40 0 -6
BITMAP
0060000000
007c000018
007800003c
0073fffffe
00701c0000
00f01c0000
00e01c0000
00e01c0000
01c01c0000
01c01c0000
03801c0180
03801c03c0
07801fffe0
07803801e0
0f803801c0
0f803801c0
1f803801c0
3b803801c0
33803b01c0
63803981c0
c38039c1c0
038038e1c0
038038f1c0
03803871c0
0380387380
0380703380
0380700380
0380700380
0380700380
0380700380
0380700380
0380700381
0380700381
0380700383
0380707383
038073c3c6
0387fe03ff
0387f001ff
03838000fe
0301800000
ENDCHAR
STARTCHAR 2322
ENCODING 8994
SWIDTH 903 0
DWIDTH 40 0
BBX 40 40 0 -6
BITMAP
0060000000
007c000008
007800001c
0073fffffe
00f0003800
00e0003800
00e0007000
01c0007000
01c000e000
038000e000
038001e000
078001e000
078003e000
0f8003e000
0f8007e300
1f800ee180
3b800ee0c0
33801ce060
638018e070
c38038e038
038070e03c
0380e0e01c
0380c0e01e
038180e00e
038300e00e
038600e006
038c00e000
038000e000
038000e000
038000e000
038000e000
038000e000
038000e000
038000e000
038000e000
038000c004
038000000e
038fffffff
0380000000
0300000000
ENDCHAR
STARTCHAR 2323
ENCODING 8995
SWIDTH 903 0
DWIDTH 40 0
BBX 40 40 0 -6
BITMAP
0060018000
007c01f000
007801e000
007001c000
00f001c000
00e001c000
00e001c040
01c001c0e0
01c001fff0
038001c000
038001c000
078001c000
078001c000
0f8001c000
0f8001c00c
1f8001c01e
3b8fffffff
338001c000
638001c000
c38001c000
038001c000
038001c000
038001f000
038001dc00
038001c700
038001c3c0
038001c1e0
038001c0f0
038001c078
038001c038
038001c018
038001c000
038001c000
038001c000
038001c000
038001c000
038001c000
038001c000
038001c000
0300018000
ENDCHAR
STARTCHAR 2324
ENCODING 8996
SWIDTH 903 0
DWIDTH 40 0
BBX 40 40 0 -6
BITMAP
003000c000
003e00f800
003c00f000
007800e000
007000e000
007000e000
00e000e000
00e000e000
01c0c0e0c0
01c0e0e1e0
0380fffff0
0380e0e0f0
0780e0e0e0
0780e0e0e0
0f80e0e0e0
0f80e0e0e0
1f80e0e0e0
3b80e0e0e0
3380e0e0e0
6380e0e0e0
c380e0e0e0
0380e0e0e0
0380e0e0e0
0380e0e0e2
039fffffff
038001c000
038001c000
038001c000
0380038000
0380038600
0380070380
03800701c0
03800e00e0
03801c0070
0380380078
038070003c
0380e0003c
0381c0001c
038700001c
031c00000c
ENDCHAR
STARTCHAR 2325
ENCODING 8997
SWIDTH 903 0
DWIDTH 40 0
BBX 40 40 0 -6
BITMAP
0030180000
003e1f0000
003c1e0000
00781c0000
00701c0180
00703803c0
00e03fffe0
00e03803e0
01c0780380
01c06c0380
0380ec0700
0380c60700
0781820e00
0783030e00
0f86019c00
0f8401d800
1f8000f800
3b8000f000
338000f000
638001f800
c380039c00
0380070e00
03800e0700
03801c03c0
03803801f0
03807380ff
0380e0e03f
0381c0781e
0387003c06
039c001c00
0380000c00
0380000000
03800f0000
038003c000
038000f000
0380007800
0380003c00
0380001e00
0380000e00
0300000600
ENDCHAR
STARTCHAR 2326
ENCODING 8998
SWIDTH 903 0
DWIDTH 40 0
BBX 40 40 0 -6
BITMAP
0030018000
003e01f000
003c01e000
007801c000
0070038000
0070038000
00e0070000
00e0070000
01c00e0300
01c01c0180
03801800c0
0380380060
0780700070
0780600038
0f80e0003c
0f81c00ffe
1f83fffc1e
3b83ff800e
3381e0000e
6380e00006
c380000000
0380000000
0380000060
03806000f0
03807ffff8
0380700078
0380700070
0380700070
0380700070
0380700070
0380700070
0380700070
0380700070
0380700070
0380700070
0380700070
03807ffff0
0380700070
0380700060
0300600000
ENDCHAR
STARTCHAR 2327
ENCODING 8999
SWIDTH 903 0
DWIDTH 40 0
BBX 40 40 0 -6
BITMAP
0000300000
00003c0000
0000780000
0000780000
0000fc0000
0000e60000
0001c30000
0003818000
000700c000
000e007000
001c003800
0038001c00
0070000f00
00e00007c0
01c00023f8
03800071ff
073ffff87f
0e0000003c
380000000c
e000000000
0000000000
00000000c0
00000001e0
0ffffffff0
0000380000
0000380000
0000380000
0030380000
003c383000
0078381c00
0070380e00
00e0380700
01c0380380
01803803c0
03003801e0
06003801e0
0c003800e0
1800380060
3000380000
0000300000
ENDCHAR
STARTCHAR 2328
ENCODING 9000
SWIDTH 903 0
DWIDTH 40 0
BBX 40 40 0 -6
BITMAP
0030030000
003e018000
003c00c000
007800e000
0070007000
0070007000
00e000300c
00e000001e
01cfffffff
01c0018000
038001e000
038003c000
0780038000
0780078000
0f80070000
0f800e0300
1f801c03e0
3b803807c0
3380700780
6380e00f00
c380f01e00
0380f81c00
03801e3c00
038007f800
038001f000
038000e000
038001c000
0380038000
0380070000
03800e0180
03801c00c0
03803800e0
0380700070
0380e007f8
0381c07f3c
0383fff03c
0383fe001c
0381e0001c
0380e0000c
0300000000
ENDCHAR
STARTCHAR 2329
ENCODING 9001
SWIDTH 903 0
DWIDTH 40 0
BBX 40 40 0 -6
BITMAP
0030018300
003c01e3e0
0038c1c3c0
0078f9c380
0070f1c380
0070e1c380
00e0e1c380
00e0e1c380
01c0e1c380
01c0e1c380
0380e1c380
0380e1c380
0780e1c380
0780e1c384
0f80e1c38e
0f8fffffff
1f80e1c380
3b80e1c380
3380e1c380
6380e1c380
c380e1c380
0380e1c380
0380e1c380
0380e1c380
0380e1c380
0380e1c380
0380e1c380
0380e1ff80
0380e1c380
0380e18300
0380e00000
0380e00000
0380e00000
0380e00000
0380e00000
0380e00018
0380e0003c
0381fffffe
0380c00000
0300000000
ENDCHAR
STARTCHAR 232a
ENCODING 9002
SWIDTH 903 0
DWIDTH 40 0
BBX 40 40 0 -6
BITMAP
0030000000
003e000000
003c600030
0078700078
00707ffffc
007070003c
00e0700038
00e0700038
01c0700038
01c0700038
0380700038
0380700038
0780700038
0780700038
0f80700038
0f80700038
1f80700038
3b80700038
3380700038
63807ffff8
c380700038
0380600030
0380000000
0380000000
0380180000
03801e0180
03801c00c0
03801c0060
0380380070
0380380038
0380700038
038070001c
0380e0001e
0380c0001e
0381c0000f
038380000f
0383000007
0386000007
038c000003
0318000000
ENDCHAR
STARTCHAR 232b
ENCODING 9003
SWIDTH 903 0
DWIDTH 40 0
BBX 40 40 0 -6
BITMAP
0030018000
003e01e000
003c03c000
007803e000
007003b000
0070073000
00e0071800
00e00e0c00
01c00e0c00
01c01c0600
03801c0700
0380380380
07803001c0
07807001e0
0f80e000f0
0f80c0c07c
1f8180f83f
3b8300f01f
338600e00e
638c00e006
c39800e000
038000e000
038180e060
0381f0e07c
0381e0e078
0381c0e070
0381c0e070
0381c0e070
0381c0e070
0381c0e070
0381c0e070
0381c0e070
0381c0e070
0381c0e070
0381c0e070
0381c0e070
0381c0e070
0383fffff0
0381800070
0300000060
ENDCHAR
STARTCHAR 232c
ENCODING 9004
SWIDTH 903 0
DWIDTH 40 0
BBX 40 40 0 -6
BITMAP
0000000000
3000000030
3800000078
3ffffffffc
380701c03c
380701c038
380701c038
380701c038
380701c038
380e01c038
380e01c038
380e01c038
381c01c038
381c01e038
383801ffb8
383000fff8
3860007ff8
38c0000038
3980000038
3b00000038
3e1800e038
381ffff038
381c00f038
381c00e038
381c00e038
381c00e038
381c00e038
381c00e038
381c00e038
381c00e038
381fffe038
381c00e038
381c00c038
3818000038
3800000038
3800000078
3800001ff8
38000003f0
38000000e0
30000000c0
ENDCHAR
STARTCHAR 232d
ENCODING 9005
SWIDTH 903 0
DWIDTH 40 0
BBX 40 40 0 -6
BITMAP
0000180000
00001f0000
00001e0000
60001c1800
38001c0e00
1c001c0700
0e001c0380
0f001c0380
07001c0180
03001c000c
00201c001e
0027ffffff
0060380000
0040380000
00c0380000
00c03800c0
01803900f8
01803900f0
03803980e0
03007180e0
03007080e0
070070c0e0
060070c1c0
0e007061c0
0e006061c0
1c00e03380
fc00e03b80
7c00e01f00
3800c01f00
3801c00e00
1c01c00f00
1c03801f80
1c03803bc0
1e030071e0
1e0700e0f8
1e0601c07f
1e0c03803f
0c180e001e
0030380006
0001e00000
ENDCHAR
STARTCHAR 232e
ENCODING 9006
SWIDTH 903 0
DWIDTH 40 0
BBX 40 40 0 -6
BITMAP
00c300000c
00f3e0000f
00e3c0000e
00e380000e
00e380000e
00e38c060e
00e39e078e
3fffff070e
00e38f070e
00e38e070e
00e38e070e
00e38e070e
00e38e070e
00e38e070e
30e38e070e
3ffffe070e
38e38e070e
38e38c070e
38e380070e
70e380070e
70e380070e
70e383070e
70e387870e
ffffffc70e
61c383c70e
01c383870e
01c383870e
01c383870e
038383870e
038383860e
038383800e
070387800e
0703ff800e
07039f000e
0e038e000e
0e038c001e
1c038007fe
18038000fc
3003800038
6003000030
ENDCHAR
STARTCHAR 232f
ENCODING 9007
SWIDTH 903 0
DWIDTH 40 0
BBX 40 40 0 -6
BITMAP
0000000018
000000001f
1800c0001e
1c01e0001c
1ffff0001c
1c00f0601c
1c00e07c1c
1c00e0781c
1c00e0701c
1c00e0701c
1c00e0701c
1c00e0701c
1c00e0701c
1c00e0701c
1fffe0701c
1c00e0701c
1c00e0701c
1c00e0701c
1c00e0701c
1c00e0701c
1c00e0701c
1c00e0701c
1c00e0701c
1c00e0701c
1fffe0701c
1c00e0701c
1c00e0701c
1c00e0701c
1c00e0701c
1c00e0601c
1c00e0001c
1c00e0001c
1c00e0001c
1c00fe001c
1c3fe0001c
fffe00003c
ffc0000ffc
78000001f8
3800000070
0000000060
ENDCHAR
STARTCHAR 2330
ENCODING 9008
SWIDTH 903 0
DWIDTH 40 0
BBX 40 40 0 -6
BITMAP
0000000018
600030001f
700078001e
7ffffc001c
70003c001c
700038181c
7000381f1c
7000381e1c
7000381c1c
7000381c1c
7000381c1c
7000381c1c
7ffff81c1c
7038381c1c
7038301c1c
7038001c1c
7038001c1c
7038001c1c
7038001c1c
70380c1c1c
70381e1c1c
7fffff1c1c
701c001c1c
701c001c1c
701c001c1c
700e001c1c
700e001c1c
700e001c1c
7007001c1c
700700181c
700380001c
700380801c
7031c0801c
70e1e1801c
7380f1801c
7f007b003c
7c003f0ffc
78001f81f8
70000f8070
3000030060
ENDCHAR
STARTCHAR 2331
ENCODING 9009
SWIDTH 903 0
DWIDTH 40 0
BBX 40 40 0 -6
BITMAP
0000000c00
0000600f80
0000f00f00
fffff80e00
01c0780e00
01c0700e00
01c0700e00
01c0700e00
01c0700e00
01c0700e00
0380700e0c
0380700e1e
038071ffff
0700700e0f
0700f00e0e
0e00e00e0e
0e3fe00e0e
1c0fc00e0e
1803800e0e
3003000e0e
6000000e0e
c000000e0e
0000e00e0e
3ffff01c0e
3800f01c0e
3800e01c0e
3800e01c0e
3800e0380e
3800e0381e
3800e0381c
3800e0701c
3800e0701c
3800e0e03c
3800e0e038
3800e1c078
3800e180f8
3fffe31ff0
3800c603e0
38000c01c0
3000180180
ENDCHAR
STARTCHAR 2332
ENCODING 9010
SWIDTH 903 0
DWIDTH 40 0
BBX 40 40 0 -6
BITMAP
0060001800
007c001f00
0078001e00
1870001c00
1e70001c00
1c70001c00
1c70001c00
1c70801c00
1c71c01c00
3fffe01c00
3870001c0c
3070001c1e
70700fffff
6070001c0f
c070001c0e
8070001c0e
0070001c0e
0070201c0e
0070701c0e
7ffff81c0e
0070001c0e
007000380e
007000380e
00e000380e
00f800380e
00ec00380e
01c600700e
01c300700e
018380701e
0381c0e01c
0301e0e01c
0700e1c01c
0600e1c03c
0e00638038
0c00070078
18000e00f8
30001c3ff0
60003807e0
c000e001c0
0003800180
ENDCHAR
STARTCHAR 2333
ENCODING 9011
SWIDTH 903 0
DWIDTH 40 0
BBX 40 40 0 -6
BITMAP
0180000000
01f0000000
01e0000000
01c0000000
03c0000000
0380000018
038000003c
07fffffffe
070000001e
070000001c
0e0000001c
0e0000101c
1c0000381c
18fffffc1c
380070001c
300070001c
600070601c
406070781c
003070f01c
001870e01c
001c71c01c
000e71801c
000e73001c
000672001c
000070041c
0000700e1c
03ffffff1c
000070001c
000070001c
000070001c
000070003c
0000700038
0000700038
0000700078
0000700070
00007001f0
000073ffe0
0000603fc0
0000000780
0000000700
ENDCHAR
STARTCHAR 2334
ENCODING 9012
SWIDTH 903 0
DWIDTH 40 0
BBX 40 40 0 -6
BITMAP
0000300000
00003e0000
00003c0000
0000380000
0000380030
0000380078
00003ffffc
0000380000
0000380000
0000380000
0000380000
0c003800c0
0e003801e0
0ffffffff0
0e000000f0
0e000000e0
0e000000e0
0e000000e0
0e000000e0
0e000180e0
0e0003c0e0
0fffffe0e0
0e0001e0e0
0e0001c0e0
0e0001c0e0
0e0001c0e0
0e0001c0e0
0e0001c0e0
0e0001c0e0
0fffffc0e0
0e0001c0e0
0e000180e0
0e000000e0
0e000000e0
0e000000e0
0e000000e0
0e000000e0
0fffffffe0
0e000000e0
0c000000c0
ENDCHAR
STARTCHAR 2335
ENCODING 9013
SWIDTH 903 0
DWIDTH 40 0
BBX 40 40 0 -6
BITMAP
0000000000
0000606018
0000f0703c
fffff87ffe
01c078701e
01c070701c
01c070701c
01c070701c
01c070701c
01c070701c
038070701c
038070701c
038070701c
070070701c
0700f0701c
0e00e0701c
0e7fe0701c
1c0fc0701c
180380701c
300300701c
600000701c
c00000701c
0000e0701c
3ffff0701c
3800f0701c
3800e0701c
3800e0701c
3800e0701c
3800e0703c
3800e07ffc
3800e071f8
3800e07070
3800e07060
3800e07000
3800e07000
3800e07000
3fffe07000
3800c07000
3800007000
3000006000
ENDCHAR
STARTCHAR 2336
ENCODING 9014
SWIDTH 903 0
DWIDTH 40 0
BBX 40 40 0 -6
BITMAP
0000000000
0c0000000c
0e0000001e
0fffffffff
0e00000000
0e00000000
0e00000000
0e00000780
0e1800ffc0
0e1c3fffe0
0e1fffc000
0e1c070000
0e1c070000
0e1c070000
0e1c070000
0e1c070000
0e1c070000
0e1c038060
0e1c0380f0
0e1ffffff8
0e1c038000
0e1c038000
1c1c01c000
1c1c01c000
1c1c01c000
1c1c00e000
1c1c00e000
181c007000
381c007000
381c0e3800
381c783800
301fe01c02
301f801e02
701e000f06
601c000786
600c0023cc
c0000071fc
c007fff8fe
800000007e
000000001c
ENDCHAR
STARTCHAR 2337
ENCODING 9015
SWIDTH 903 0
DWIDTH 40 0
BBX 40 40 0 -6
BITMAP
0000000000
0c0000000c
0e0000001e
0fffffffff
0e00000000
0e00000000
0e03000000
0e03e00000
0e03c00000
0e03800000
0e03800000
0e03800018
0e0380003c
0e07fffffe
0e070e0000
0e070e0000
0e060e0000
0e0e0e0000
0e0c0e0000
0e1c0e0040
0e180e00e0
0e300ffff0
1c600e0000
1c000e0000
1c000e0000
1c000e0000
1c000e0000
18000e0040
38000e00e0
38000ffff0
38000e0000
30000e0000
30000e0000
70000e0000
60000e0000
60000e0000
c0000e0000
c0000e0000
80000e0000
00000c0000
ENDCHAR
STARTCHAR 2338
ENCODING 9016
SWIDTH 903 0
DWIDTH 40 0
BBX 40 40 0 -6
BITMAP
0000018000
000001f000
000001e000
000001c000
000001c000
606001c000
70f001c000
7ff801c000
707801c000
707001c00c
707001c01e
7071ffffff
7070038000
7070038000
7070038000
7070038000
7070070600
70700707c0
7070070780
70700e0f00
70700e0e00
70700e0e00
70701c1c00
70701c1c00
7070383800
7070383800
7070307000
7ff0707000
707060e000
7070e0e180
7060c1c0c0
6001c18060
0003838070
0003070038
000607003c
000c0e0ffe
00181ffe1e
00001fc00e
00000e000e
0000060006
ENDCHAR
STARTCHAR 2339
ENCODING 9017
SWIDTH 903 0
DWIDTH 40 0
BBX 40 40 0 -6
BITMAP
000000c000
000000f800
000000f000
000000e000
000000e000
606000e000
70f000e000
7ff800e0c0
707800e1e0
70707ffff0
707000e0f0
707000e0e0
707000e0e0
707000e0e0
707000e0e0
707000e0e0
707000e0e0
707000e0e0
707000e0e0
707000e0e0
707000e0e2
7073ffffff
707001c000
707001c000
707001c000
707001c000
7070038300
7ff0038180
70700380c0
7070070060
7060070070
60000e0038
00000e001c
00001c001e
000038000e
000070000f
0000e00007
0001c00007
0003800003
000e000000
ENDCHAR
STARTCHAR 233a
ENCODING 9018
SWIDTH 903 0
DWIDTH 40 0
BBX 40 40 0 -6
BITMAP
0000003000
00000c3e00
00000f3c00
00000e3800
00000e3800
00601c3800
60f01c3800
7ff81c3800
7078383800
7070383800
7070383800
7070703800
7070703800
707070380c
7070f0381e
7070f03fff
7071f03800
7071f03800
7073703800
7073703800
7076703800
7074703800
7070703800
7070703800
7070703800
7070703800
7070703800
7ff0703800
7070703800
7060703800
6000703800
0000703801
0000703801
0000703803
0000703803
0000703c06
0000703fff
0000701fff
0000700ffe
0000600000
ENDCHAR
STARTCHAR 233b
ENCODING 9019
SWIDTH 903 0
DWIDTH 40 0
BBX 40 40 0 -6
BITMAP
0000018000
000001f000
000001e000
000001c000
000001c000
606001c000
70f001c000
7ff801c000
707801c000
707001c000
707001c018
707001c03c
7073fffffe
707001c000
707001c000
707001c000
707001e000
707001e000
707003e000
707003b000
707003b000
7070033000
7070071800
7070071800
7070071c00
70700e0c00
70700e0e00
7ff01c0600
70701c0700
7060380300
6000700380
00007001c0
0000e601e0
0001c380f0
000381c07c
000700e03f
000e00e01f
001c00600e
0070000006
01c0000000
ENDCHAR
STARTCHAR 233c
ENCODING 9020
SWIDTH 903 0
DWIDTH 40 0
BBX 40 40 0 -6
BITMAP
0000060000
0000038000
000001c000
000000e000
000000f000
6060007000
70f0007000
7ff800300c
707800001e
7073ffffff
70701000e0
70701000e0
70701800e0
70701800e0
70700801c0
70700c01c0
70700c01c0
7070060380
7070060380
7070030380
7070030700
7070018700
7070018e00
707000ce00
707000fc00
7070007c00
7070007800
7ff0007800
707000fc00
707000ee00
706001cf00
6000038780
00000703c0
00000e01e0
00001c00f8
000038007f
000070003f
0001c0001e
0007000006
003c000000
ENDCHAR
STARTCHAR 233d
ENCODING 9021
SWIDTH 903 0
DWIDTH 40 0
BBX 40 40 0 -6
BITMAP
0000006000
0000007c00
0000007800
0000007000
0000007000
6060007000
70f0007000
7ff8007000
7078007030
707180703e
7070c0703c
7070e07038
7070707070
7070787070
70703870e0
70703870c0
7070387180
7070187100
7070007000
707000f800
707000f800
707000f800
707000ec00
707001cc00
707001ce00
707001c600
7070038700
7ff0038700
7070070380
70700703c0
70600e01c0
60001e01e0
00001c00f0
0000380078
000070007c
0000e0003f
0001c0001f
000380000e
000e000006
0038000000
ENDCHAR
STARTCHAR 233e
ENCODING 9022
SWIDTH 903 0
DWIDTH 40 0
BBX 40 40 0 -6
BITMAP
0000000000
0000000000
00000000c0
00000001e0
0000fffff0
60600700f0
70f00700e0
7ff80700e0
70780700e0
70700700e0
70700700e0
70700700e0
70700700e0
70700700e0
70700700e0
70700700e0
70700700e0
70700700e0
70700700e6
7073ffffff
70700e01c0
70700e01c0
70700e01c0
70700e01c0
70700e01c0
70700e01c0
70700e01c0
7ff00e01c0
70700e01c0
70700e01c0
70600e01c0
60000e01c0
00000e01c0
00000e01c0
00000e01c0
00000e01c4
00000e01ce
0003ffffff
0000000000
0000000000
ENDCHAR
STARTCHAR 233f
ENCODING 9023
SWIDTH 903 0
DWIDTH 40 0
BBX 40 40 0 -6
BITMAP
0000000000
0000000004
000000000e
0001ffffff
0000000e00
6060000e00
70f0001c00
7ff8001c00
7078003800
7070003800
7070007800
7070007800
707000f800
707000f800
707001f980
707003b8c0
707003b860
7070073830
7070063838
70700e381c
70701c381e
707038380e
707030380f
7070603807
7070c03807
7071803803
7073003800
7ff0003800
7070003800
7070003800
7060003800
6000003800
0000003800
0000003800
0000003800
0000003800
0000003800
0000003800
0000003800
0000003000
ENDCHAR
STARTCHAR 2340
ENCODING 9024
SWIDTH 903 0
DWIDTH 40 0
BBX 40 40 0 -6
BITMAP
0000180000
00001f0000
00001e0000
00001c0000
00001c0000
60601c0000
70f0380010
7ff8380038
70783ffffc
7070703800
7070703800
7070603800
7070e03800
7070c03800
7071c03800
7071803800
7073003800
7072003800
707000380c
707000381e
7073ffffff
7070003800
7070003800
7070003800
7070003800
7070003800
7070003800
7ff0003800
7070003800
7070003800
7060003800
6000003800
0000003800
0000003800
0000003800
0000003800
0000003800
0000003800
0000003800
0000003000
ENDCHAR
STARTCHAR 2341
ENCODING 9025
SWIDTH 903 0
DWIDTH 40 0
BBX 40 40 0 -6
BITMAP
0000003000
0000003e00
0000003c00
0000303800
00003e3800
60603c3800
70f0383800
7ff8383800
7078383800
7070703810
7070703838
70707ffffc
7070603800
7070e03800
7070c03800
7071c03800
7071803800
7073003800
7072003800
7070003800
7070003800
7070003804
707000380e
7073ffffff
7070003800
7070003800
7070003800
7ff0003800
7070003800
7070003800
7060003800
6000003800
0000003800
0000003800
0000003800
0000003800
0000003800
0000003800
0000003800
0000003000
ENDCHAR
STARTCHAR 2342
ENCODING 9026
SWIDTH 903 0
DWIDTH 40 0
BBX 40 40 0 -6
BITMAP
0000018180
000007c1f0
00001fe1e0
00007e01c0
0001ee01c0
60600e01c0
70f00e01c0
7ff80e01c0
70780e01c0
70700e01c0
70700e01c0
70700e01c0
70700e01c0
70700e01c0
70700e01c0
70700e01c0
70700e01c6
7077ffffff
70700e01c0
70700e01c0
70700e01c0
70700e01c0
70700e01c0
70700c01c0
70701c01c0
70701c01c0
70701c01c0
7ff01801c0
70703801c0
70603801c0
60003001c0
00007001c0
00006001c0
0000e001c0
0000c001c0
0001c001c0
00018001c0
00030001c0
00060001c0
000c000180
ENDCHAR
STARTCHAR 2343
ENCODING 9027
SWIDTH 903 0
DWIDTH 40 0
BBX 40 40 0 -6
BITMAP
00000c0000
00000f8000
00000f0000
00000e0000
00000e0000
60601c000c
70f01c001e
7ff81fffff
707838000f
707030000e
707070000e
707060000e
7070e0000e
7070c0000e
707180040e
7071000e0e
70703fff0e
707000000e
707000000e
707000000e
707000000e
707000000e
707000000e
707000000e
707000040e
7070000e0e
70703fff0e
7ff000000e
707000000e
707000000e
706000001e
600000001c
000000001c
000000003c
0000000038
00000000f8
0000007ff0
00000007e0
00000001c0
0000000180
ENDCHAR
STARTCHAR 2344
ENCODING 9028
SWIDTH 903 0
DWIDTH 40 0
BBX 40 40 0 -6
BITMAP
0000006000
0000007c00
0000007800
0000007000
0000007000
6060007000
70f0007018
7ff800703c
7079fffffe
7070007000
7070007000
7070007000
7070607060
70707c707c
7070787078
7070707070
7070707070
7070707070
7070707070
7070707070
7070707070
7070707070
7070707070
7070707070
7070707070
7070707070
7070fffff0
7ff0607070
7070007060
7070007000
7060007001
6000007001
0000007003
0000007003
0000007006
000000780e
0000007fff
0000003fff
0000001ffe
0000000000
ENDCHAR
STARTCHAR 2345
ENCODING 9029
SWIDTH 903 0
DWIDTH 40 0
BBX 40 40 0 -6
BITMAP
0000006000
0000007800
0000007000
000000f000
000000f800
606001e800
70f001cc00
7ff803c600
7078038700
7070070380
70700f01c0
70700e01e0
70701c00f0
707038007c
707070003f
7070e0001f
7071cc030e
70738f03c6
70760e0380
70700e0380
70700e0380
70700e0380
70700e0380
70700e0380
70700e0380
70700e0380
70700e0380
7ff01c0380
70701c0380
70701c0380
7060180380
6000380380
0000300380
0000700380
0000600380
0000c00380
0001800380
0003000380
0006000380
000c000300
ENDCHAR
STARTCHAR 2346
ENCODING 9030
SWIDTH 903 0
DWIDTH 40 0
BBX 40 40 0 -6
BITMAP
0000180000
00001f0000
00001e0000
00001c0000
00001c0000
00001c0180
00061c03c0
000f1c07e0
1fff9e0f00
000f9e1c00
000e1f7000
000e1dc000
001c1cc000
001c1ce000
00381c7000
00381c3800
00701c1e00
00e01c0f00
01c01c07e0
03801c03ff
07003c00ff
0e0ffc007c
3801f8001c
e000700000
0000600000
0000000600
0180000f00
01ffffff80
01c0000780
01c0000700
01c0000700
01c0000700
01c0000700
01c0000700
01c0000700
01c0000700
01c0000700
01ffffff00
01c0000700
0180000600
ENDCHAR
STARTCHAR 2347
ENCODING 9031
SWIDTH 903 0
DWIDTH 40 0
BBX 40 40 0 -6
BITMAP
3000000030
3800000078
3ffffffffc
380000003c
3800000038
3806000038
3807980038
38071f0038
38071e0038
38071c0038
380e1c0038
380e1c0038
380e1c0038
381c1c0038
381c1c0038
383c1c0438
383c1c0e38
387c1fff38
387c1c0038
38fc1c0038
38dc1c0038
399c1c0038
3b1c1c0038
381c1c0038
381c1c0038
381c1c00b8
381c1c00b8
381c1c01b8
381c1c01b8
381c1e0338
381c1fffb8
381c0fffb8
381c07ff38
3818000038
3800000038
3800000038
3800000038
3ffffffff8
3800000038
3000000030
ENDCHAR
STARTCHAR 2348
ENCODING 9032
SWIDTH 903 0
DWIDTH 40 0
BBX 40 40 0 -6
BITMAP
3000000030
3800000078
3ffffffffc
380701c03c
380701c038
380701c038
380701c038
380701c038
380701c038
380701c038
380e01c038
380e01c038
380e01c038
381c01c038
381c01e038
383801ffb8
387000fff8
38e0007ff8
39c0000038
3b80000038
3e00000038
3800000038
380000c038
381801e038
381ffff038
381c00f038
381c00e038
381c00e038
381c00e038
381c00e038
381c00e038
381c00e038
381c00e038
381c00e038
381c00e038
381c00e038
381c00e038
3ffffffff8
3800000038
3000000030
ENDCHAR
STARTCHAR 2349
ENCODING 9033
SWIDTH 903 0
DWIDTH 40 0
BBX 40 40 0 -6
BITMAP
3000000030
3800000078
3ffffffffc
380000003c
3801800038
3800e00038
3800700038
3800380038
3800380438
3800180e38
39ffffff38
3800000038
3800000038
3800000038
3800018038
380603c038
3807ffe038
380701e038
380701c038
380701c038
380701c038
380701c038
380701c038
380701c038
380e01c038
380e01c038
380e01c0b8
380c01c0b8
381c01c1b8
381801c1b8
383801e338
383001ffb8
386000ffb8
38c0007f38
3980000038
3800000038
3800000038
3ffffffff8
3800000038
3000000030
ENDCHAR
STARTCHAR 234a
ENCODING 9034
SWIDTH 903 0
DWIDTH 40 0
BBX 40 40 0 -6
BITMAP
00000001c0
06000007e0
07c0007ff0
0780c7fc00
0700ffb800
0700e03800
0700e03800
0700e03800
0700e03800
0700e03800
0700e03800
0700e03800
0730e03800
7ff8e03800
0700e03818
0700e0383c
0700fffffe
0700e03800
0700e03800
0700e01c00
0700e01c00
0700e01c00
0700e01c00
0700e00e00
0700e00e00
0700e00e00
0738e00e00
07e0e00700
0780e00700
1f00e00380
fc00e00381
f800e0e1c1
7000e3c1c3
3000ef00e3
0000fe00f6
0000f8007e
0000f0003e
0000e0001f
000060000f
0000000006
ENDCHAR
STARTCHAR 234b
ENCODING 9035
SWIDTH 903 0
DWIDTH 40 0
BBX 40 40 0 -6
BITMAP
000000c000
060000f000
07c001e000
078001f000
070001f000
0700039800
0700039800
0700070c00
0700070e00
07000e0600
07000e0300
07001c0380
07301801c0
7ff83801e0
07007000f0
0700600078
0700e0067c
0701dfff3f
070180001f
070300000e
0706000006
070c000000
0700000180
07000003c0
0700ffffe0
07000001e0
07380001c0
07e00001c0
0780000380
1f00000380
fc00000700
f800000700
7000000e00
3000000e00
0000001c00
0000001c00
0000003800
0000003800
0000007000
0000006000
ENDCHAR
STARTCHAR 234c
ENCODING 9036
SWIDTH 903 0
DWIDTH 40 0
BBX 40 40 0 -6
BITMAP
00001c0000
0000070000
0000038000
000601c000
000780e000
000f007000
000e003800
001c001c00
0038000f00
0070000780
00e00003f0
01c00001ff
0380001c7f
077ffffe3c
0e01c01e0c
3801c01c00
e001c01c00
0003801c00
0003801c00
0007001c00
000e001c00
001c003c00
00380ff800
007003f000
01c000e000
070030c000
00003c0000
0000380000
0000380000
0000380300
0000380780
03ffffffc0
0000380000
0000380000
0000380000
0000380000
000038000c
000038001e
ffffffffff
0000000000
ENDCHAR
STARTCHAR 234d
ENCODING 9037
SWIDTH 903 0
DWIDTH 40 0
BBX 40 40 0 -6
BITMAP
0000006000
0600007c00
07c0007800
0780007000
0700007000
0700007000
0700007018
070000703c
0701fffffe
0700007000
0700007000
0700007000
0730607060
7ff87c707c
0700787078
0700707070
0700707070
0700707070
0700707070
0700707070
0700707070
0700707070
0700707070
0700707070
0700707070
0700707070
0738fffff0
07e0607070
0780007060
1f00007000
fc00007001
f800007001
7000007003
3000007003
0000007006
000000780e
0000007fff
0000003fff
0000001ffe
0000000000
ENDCHAR
STARTCHAR 234e
ENCODING 9038
SWIDTH 903 0
DWIDTH 40 0
BBX 40 40 0 -6
BITMAP
0000001800
0600000c00
07c0180c00
07801f0600
07001e0600
07001c0700
07001c0300
07001c0300
0700380380
0700380180
07003001c0
07007000c0
07306000e0
7ff8e00070
0700c00078
0701c0003c
070180003f
070380001f
07037ffffc
07060700ec
070c0700e0
07000700e0
07000700e0
07000700e0
07000700e0
07000e00e0
07380e00e0
07e00e00e0
07801c00e0
1f001c00e0
fc003800e0
f8003801e0
70007001c0
30007001c0
0000e00380
0001c00780
000383ff00
0007007e00
000e001c00
0038001800
ENDCHAR
STARTCHAR 234f
ENCODING 9039
SWIDTH 903 0
DWIDTH 40 0
BBX 40 40 0 -6
BITMAP
0000060000
0c0007c000
0f80078000
0f00070000
0e00070000
0e00070000
0e00070000
0e00070000
0e00870020
0e01c70070
0fffe7fff8
0e00070000
0e00070000
0e00070000
0e00070002
0e00070002
0e00e70006
0e07870006
0e3c07000c
0ff007801c
0fc007fffe
0f0003fffe
0e0001fffc
0600300000
00003e0000
00003c0000
0000380000
0000380000
0000380300
0000380780
03ffffffc0
0000380000
0000380000
0000380000
0000380000
0000380000
000038000c
000038001e
ffffffffff
0000000000
ENDCHAR
STARTCHAR 2350
ENCODING 9040
SWIDTH 903 0
DWIDTH 40 0
BBX 40 40 0 -6
BITMAP
0018000000
001f000000
001e001800
001c003c00
003ffffe00
0038003e00
0078007800
00ec007000
01c600e000
038381c000
0701e38000
1c007f0000
00003e0000
00007f8000
0000f3f000
0003c0ff00
000f003fff
003c300fff
00f03c03f8
03c0380078
1e00380000
f000380300
03ffffff80
0000380000
0000380000
0000380000
0000380c00
00fffffe00
0000380000
0000380000
0000380030
0000380078
3ffffffffc
0000380000
0000380000
0000380000
0000380000
0000380000
0000380000
0000300000
ENDCHAR
STARTCHAR 2351
ENCODING 9041
SWIDTH 903 0
DWIDTH 40 0
BBX 40 40 0 -6
BITMAP
0000000000
0000000018
000000003c
7ffffffffe
00000f0000
00001e0000
00003c0000
0000780000
0000f80000
0001f87000
0003b81c00
000f380700
001c3803c0
00783800f0
00e0380078
038038003c
0e0038001c
380038000c
e000380000
0000300000
0000000000
0000000000
0000600000
00007c0000
0000780000
0000700000
000070000c
0000e0001e
ffffffffff
0001c00000
0003800000
000700e000
000e003c00
001c000f00
00380003c0
00f00001f0
01c0000078
078000003c
1e0000001c
700000000c
ENDCHAR
STARTCHAR 2352
ENCODING 9042
SWIDTH 903 0
DWIDTH 40 0
BBX 40 40 0 -6
BITMAP
0000003000
0c00003e00
0f80003c00
0f00003800
0e00003860
0e00003bf0
0e00007ff8
0e3007ff00
0e387f3800
0e38003800
0efe003800
fff8003800
ff38003800
6e38003800
0e38003810
0e38003838
0e387ffffc
1c38003800
1c38003800
1c38003800
1c38003800
3870003800
3870003800
3870003804
707000380e
70e1ffffff
7ce0003800
0fc0003800
03c0003800
03e0003800
07f0003800
0778003800
0e3c003800
0c1c003800
180c003800
3000003800
6000003800
c000003800
0000003800
0000003000
ENDCHAR
STARTCHAR 2353
ENCODING 9043
SWIDTH 903 0
DWIDTH 40 0
BBX 40 40 0 -6
BITMAP
0000000000
0c00000000
0f80000000
0f00000060
0e000000f0
0e001ffff8
0e00000000
0e30000000
0e38000000
0e38000000
0efe000000
fff8000000
ff38000000
6e38000000
0e3800000c
0e3800001e
0e38ffffff
1c3800e000
1c3800e000
1c3800e000
1c3800e000
387001c000
387001c000
387001c000
7070038000
70e0038000
7ce0030000
0fc0070000
03c00600c0
03e00e0060
07f00c0070
07781c0038
0e3c1803fc
0c1c383f1e
180c7ff01e
30007f800e
60003c000e
c0001c0006
0000000000
0000000000
ENDCHAR
STARTCHAR 2354
ENCODING 9044
SWIDTH 903 0
DWIDTH 40 0
BBX 40 40 0 -6
BITMAP
0000018000
0c0000c000
0f80006000
0f00007000
0e00003000
0e00003800
0e0030380c
0e3038181e
0e383fffff
0e38381c0f
0efe381c0e
fff8381c0e
ff38381c0e
6e38383c0e
0e38383e0e
0e38383e0e
0e38383e0e
1c3838770e
1c3838770e
1c3838630e
1c3838e38e
387038c38e
387039c1ce
38703981ee
70703b80fe
70e03b00fe
7ce03e006e
0fc03c000e
03c038000e
03e038000e
07f038000e
077838000e
0e3c38000e
0c1c38000e
180c38000e
300038001e
60003807fe
c0003800fc
0000380038
0000300030
ENDCHAR
STARTCHAR 2355
ENCODING 9045
SWIDTH 903 0
DWIDTH 40 0
BBX 40 40 0 -6
BITMAP
0000006000
0c00007800
0f8000f000
0f0000f800
0e0000f800
0e0001cc00
0e0001cc00
0e30038600
0e38038700
0e38070300
0efe070180
fff80e01c0
ff380c00e0
6e381c00f0
0e38380078
0e3830003c
0e3870033f
1c386fff9f
1c38c0000e
1c39800006
1c3b000000
3870000000
38700000c0
38700001e0
70707ffff0
70e00000f0
7ce00000e0
0fc00000e0
03c00001c0
03e00001c0
07f0000380
0778000380
0e3c000700
0c1c000700
180c000e00
3000000e00
6000001c00
c000001c00
0000003800
0000003000
ENDCHAR
STARTCHAR 2356
ENCODING 9046
SWIDTH 903 0
DWIDTH 40 0
BBX 40 40 0 -6
BITMAP
0000003000
0c00003c00
0f80003800
0f00007800
0e00007c00
0e0000f400
0e0000e600
0e3001e300
0e3801c380
0e380381c0
0efe0780e0
fff80700f0
ff380e007c
6e381c003f
0e3838001f
0e3870000e
0e38e60186
1c39c781e0
1c3b0701c0
1c380701c0
1c380701c0
38700701c0
38700701c0
38700701c0
70700701c0
70e00701c0
7ce00701c0
0fc00e01c0
03c00e01c0
03e00e01c0
07f00c01c0
07781c01c0
0e3c1801c0
0c1c3801c0
180c3001c0
30006001c0
6000c001c0
c0018001c0
00030001c0
0006000180
ENDCHAR
STARTCHAR 2357
ENCODING 9047
SWIDTH 903 0
DWIDTH 40 0
BBX 40 40 0 -6
BITMAP
0000001800
0c00000c00
0f80060c00
0f0007c600
0e00078600
0e00070700
0e00070300
0e30060300
0e380e0380
0e380e0180
0efe0c01c0
fff81c00c0
ff381800e0
6e38380070
0e38300078
0e3870003c
0e3860003f
1c38e0001f
1c38dffffc
1c3981c0ec
1c3901c0e0
387001c0e0
387001c0e0
387001c0e0
707001c0e0
70e00380e0
7ce00380e0
0fc00380e0
03c00700e0
03e00700e0
07f00e00e0
07780e01e0
0e3c1c01c0
0c1c1c01c0
180c380380
3000700780
6000e1ff00
c001c03e00
0003801c00
000e001800
ENDCHAR
STARTCHAR 2358
ENCODING 9048
SWIDTH 903 0
DWIDTH 40 0
BBX 40 40 0 -6
BITMAP
0000003000
0c00001800
0f80001800
0f00000c00
0e00000c00
0e00000600
0e00060600
0e30078300
0e38070300
0e38070380
0efe0e0180
fff80e01c0
ff380e01c0
6e381c00e0
0e381c00e0
0e381800f0
0e38386070
1c38307878
1c3870703c
1c3860703e
1c3860e01f
3870c0e01f
3870c0e00e
387181c006
707101c000
70e0018000
7ce0038000
0fc0030000
03c0070300
03e0060180
07f00e00c0
07780c00e0
0e3c1c0070
0c1c180070
180c381ff8
30007ffc38
60007f8038
c0003c0018
00001c0018
0000000000
ENDCHAR
STARTCHAR 2359
ENCODING 9049
SWIDTH 903 0
DWIDTH 40 0
BBX 40 40 0 -6
BITMAP
0000030000
0c0001c000
0f8000e000
0f00007000
0e00007800
0e00003800
0e00003800
0e30001804
0e3800000e
0e38ffffff
0efe040070
fff8040070
ff38040070
6e38060070
0e380600e0
0e380600e0
0e380300e0
1c380301c0
1c380301c0
1c380181c0
1c38018380
387000c380
387000c700
3870006700
7070007e00
70e0003e00
7ce0003c00
0fc0003c00
03c0007e00
03e0007700
07f000e780
077801c3c0
0e3c0381e0
0c1c0700f0
180c0e007c
30001c003f
600038001f
c000e0000e
0003800006
001e000000
ENDCHAR
STARTCHAR 235a
ENCODING 9050
SWIDTH 903 0
DWIDTH 40 0
BBX 40 40 0 -6
BITMAP
0000000000
0c00000000
0f80000020
0f00000070
0e003ffff8
0e00000000
0e00000000
0e30000000
0e38000000
0e38000000
0efe000000
fff8000000
ff38000000
6e38000008
0e3800001c
0e38fffffe
0e38038700
1c38038700
1c38038700
1c38038700
1c38038700
3870038700
3870038700
3870038700
7070070700
70e0070700
7ce0070700
0fc0070700
03c00e0700
03e00e0700
07f01c0700
07781c0701
0e3c380701
0c1c380703
180c700703
3000e00786
6001c007ff
c0038003ff
00070001fe
001c000000
ENDCHAR
STARTCHAR 235b
ENCODING 9051
SWIDTH 903 0
DWIDTH 40 0
BBX 40 40 0 -6
BITMAP
0000000070
0c000003f8
0f80001ffc
0f0019ff00
0e001fe000
0e001c0000
0e001c0000
0e301c0000
0e381c0000
0e381c0000
0efe1c0000
fff81c0000
ff381c000c
6e381c001e
0e381fffff
0e381c0380
0e381c0380
1c381c0380
1c381c0380
1c381c0380
1c381c0380
38701c0380
38701c0380
38701c0380
7070380380
70e0380380
7ce0380380
0fc0380380
03c0300380
03e0700380
07f0700380
0778700380
0e3ce00380
0c1ce00380
180cc00380
3001c00380
6001800380
c003000380
0006000380
000c000300
ENDCHAR
STARTCHAR 235c
ENCODING 9052
SWIDTH 903 0
DWIDTH 40 0
BBX 40 40 0 -6
BITMAP
0000600000
0000380000
08001c0000
08001c000c
18000c001e
1fffffffff
380000001f
700000001c
f000000018
e000000030
c000007c20
00001ffe00
000fffff00
03fff80000
0000380000
0000380000
0000380000
0000380000
0000380000
0000380018
000038003c
7ffffffffe
0000780000
00007c0000
0000e40000
0000e60000
0001c30000
0001c18000
000381c000
000380e000
0007007000
000e003c00
001c001e00
0038000f80
00700007f0
00e00001ff
03c00000ff
070000003c
1c0000000c
7000000000
ENDCHAR
STARTCHAR 235d
ENCODING 9053
SWIDTH 903 0
DWIDTH 40 0
BBX 40 40 0 -6
BITMAP
0000600000
0000380000
08001c0000
08001c000c
18000c001e
1fffffffff
380000001f
700000001c
f000000018
e000007830
c00007fc20
00007ffe00
000ffe0000
01fe700000
0000700000
0000700000
0000700000
0000700000
0000700600
0000700f00
03ffffff80
0000700000
0000700000
0000700000
0000700000
0000700030
0000700078
3ffffffffc
0000700000
0000700000
0000700001
0000700001
0000700003
0000700003
0000700006
000078000e
00007fffff
00003fffff
00001ffffe
0000000000
ENDCHAR
STARTCHAR 235e
ENCODING 9054
SWIDTH 903 0
DWIDTH 40 0
BBX 40 40 0 -6
BITMAP
0180000000
01f0000060
01e00000f0
01cc0001f8
01c70003e0
01c3800780
01c1c00f00
01c1c03c00
01c0c07000
01c001c000
01c0070000
01c0c00030
7fffe00078
03b80000fc
03b80001f0
03b80003c0
03b8000780
03b8000e00
03b8003c00
03b8007000
03b801c000
03b80f0018
073800003c
073800007e
07380000f8
07380001f0
07380003c0
0f38000780
0e38001e01
0e38003c01
1c3800f003
1c3803c003
1c380f0006
3838780006
383c00000e
703e00001f
601fffffff
c00ffffffe
8003fffff8
0000000000
ENDCHAR
STARTCHAR 235f
ENCODING 9055
SWIDTH 903 0
DWIDTH 40 0
BBX 40 40 0 -6
BITMAP
0180000000
01f0000000
01e0000020
01c0000070
01c03ffff8
01c0003800
01c0003800
01c0003800
01c0003800
01c0003800
01c1003800
01c3803800
7fffc03800
03b8003800
03b8003800
03b8003800
03b8003860
03b81ffff0
03b8003800
03b8003800
03b8003800
03b8003800
03b8003800
0738003800
0738003800
0738003800
0738003800
0e38003800
0e38003810
0e38003838
1c387ffffd
1c38000001
1838000003
3838000003
303c000006
703e00000e
601fffffff
c00fffffff
8003fffffe
0000000000
ENDCHAR
STARTCHAR 2360
ENCODING 9056
SWIDTH 903 0
DWIDTH 40 0
BBX 40 40 0 -6
BITMAP
0000000000
0600000010
07c0000038
07807ffffc
07000701c0
07000701c0
07000701c0
07000701c0
07000701c0
c7180701c0
e71e0701c0
c71c0701c0
c71c0701c0
c71c0701c0
c71c0701c0
c71c0701c0
c71c0701c6
c71dffffff
c71c0701c0
c71c0701c0
c71c0701c0
c71c0701c0
c71c0701c0
c71c0e01c0
c71c0e01c0
c71c0e01c0
c71c0e01c0
c71c0e01c0
c71c1c01c0
c71c1c01c0
fffc1c01c0
c01c3801c0
00183801c0
00007001c0
00007001c0
0000e001c0
0000c001c0
00018001c0
00030001c0
0006000180
ENDCHAR
STARTCHAR 2361
ENCODING 9057
SWIDTH 903 0
DWIDTH 40 0
BBX 40 40 0 -6
BITMAP
0000000000
0600000000
07c0000020
0780000070
07003ffff8
0700000000
0700000000
0700000000
0700000000
c718000000
e71e000000
c71c000000
c71c000000
c71c000008
c71c00001c
c71cfffffe
c71c038700
c71c038700
c71c038700
c71c038700
c71c038700
c71c038700
c71c038700
c71c038700
c71c070700
c71c070700
c71c070700
c71c070700
c71c0e0700
c71c0e0700
fffc1c0700
c01c1c0701
0018380701
0000380703
0000700703
0000e00786
0001c007ff
00038003ff
00070001fe
001c000000
ENDCHAR
STARTCHAR 2362
ENCODING 9058
SWIDTH 903 0
DWIDTH 40 0
BBX 40 40 0 -6
BITMAP
0000000000
0600000008
07c000001c
07803ffffe
07000e0380
07000e0380
07000e0380
07000e0380
07001c0380
c7181c0380
e71e1c0380
c71c1c0380
c71c380380
c71c380380
c71c380384
c71c38038e
c71c7fffff
c71c300f80
c71c001f80
c71c001f80
c71c003b80
c71c003b80
c71c007380
c71c007380
c71c00e380
c71c01c380
c71c01c380
c71c038380
c71c070380
c71c070380
fffc0e0380
c01c1c0380
0018380380
0000700380
0000e00380
0001c00780
000703ff80
001c003f00
0000000e00
0000000c00
ENDCHAR
STARTCHAR 2363
ENCODING 9059
SWIDTH 903 0
DWIDTH 40 0
BBX 40 40 0 -6
BITMAP
0000000000
06000000c0
07c00001e0
0781fffff0
07000700f0
07000700e0
07000700e0
07000700e0
07000701c0
c7180701c0
e71e0701c0
c71c0701c0
c71c070380
c71c070380
c71c07039c
c71c07fffe
c71c07401e
c71c07401c
c71c0e601c
c71c0e601c
c71c0e2038
c71c0e3038
c71c0e3038
c71c1c1870
c71c1c1870
c71c1c1ce0
c71c380ce0
c71c380fc0
c71c3807c0
c71c700780
fffc700780
c01ce00fc0
0018e01de0
0001c038f0
0001c0707c
000380e03f
000301c01f
000607000e
000c1c0006
0018f00000
ENDCHAR
STARTCHAR 2364
ENCODING 9060
SWIDTH 903 0
DWIDTH 40 0
BBX 40 40 0 -6
BITMAP
00000c0000
06000f8000
07c00f0000
07800e0000
07000e0000
07000e0000
07001c0000
07001c000c
07001c001e
c7183fffff
e71e38e38f
c71c30e38e
c71c70e38e
c71c60e38e
c71c60e38e
c71cc1c38e
c71cc1c70e
c71d81c70e
c71d03870e
c71c03870e
c71c038e0e
c71c070e0e
c71c070e0e
c71c0e1c0e
c71c0e1c0e
c71c1c380e
c71c1c380e
c71c38700e
c71c30700e
c71c60e00e
fffcc0e01e
c01d81c01c
001803801c
000007003c
00000e0038
00001c0078
0000383ff0
00006007e0
00000001c0
0000000180
ENDCHAR
STARTCHAR 2365
ENCODING 9061
SWIDTH 903 0
DWIDTH 40 0
BBX 40 40 0 -6
BITMAP
0000006000
0600007800
07c000f000
078000f800
070000f800
070001cc00
070001cc00
0700038600
0700038700
c718070300
e71e070180
c71c0e01c0
c71c0c00e0
c71c1c00f0
c71c380078
c71c30003c
c71c70033f
c71c6fff9f
c71cc0000e
c71d800006
c71f000000
c71c000000
c71c0000c0
c71c0001e0
c71c7ffff0
c71c0000f0
c71c0000e0
c71c0000e0
c71c0001c0
c71c0001c0
fffc000380
c01c000380
0018000700
0000000700
0000000e00
0000000e00
0000001c00
0000001c00
0000003800
0000003000
ENDCHAR
STARTCHAR 2366
ENCODING 9062
SWIDTH 903 0
DWIDTH 40 0
BBX 40 40 0 -6
BITMAP
0000000000
0c00000180
0e000003c0
0fffffffe0
0e003801e0
0e003801c0
0e003801c0
0e003801c0
0e003801c0
0e003801c0
0fffffffc0
0e00000180
0e00000000
0e00000000
0e00000008
0e00000008
0e00000018
0e00000018
0f00000030
0ffffffff8
07fffffff8
03fffffff0
0000000000
0000300000
00003e0000
00003c0000
0000380000
0c003800c0
0f803800f8
0f003800f0
0e003800e0
0e003800e0
0e003800e0
0e003800e0
0e003800e0
0e003800e0
0e003800e0
1fffffffe0
0c000000e0
00000000c0
ENDCHAR
STARTCHAR 2367
ENCODING 9063
SWIDTH 903 0
DWIDTH 40 0
BBX 40 40 0 -6
BITMAP
00000000e0
06000007f0
07c0007ff8
078007fe00
07007f7000
0700007000
0700007000
0700007000
0700007000
c718007000
e71e007000
c71c007000
c71c007000
c71c007008
c71c00701c
c71dfffffe
c71c007000
c71c007000
c71c00f800
c71c00f800
c71c00f800
c71c00ec00
c71c01cc00
c71c01ce00
c71c01c600
c71c038700
c71c038700
c71c070380
c71c070380
c71c0e01c0
fffc0e01e0
c01c1c00f0
00181c0078
000038007c
000070003f
0000e0001f
0001c0000e
0003800006
000e000000
0038000000
ENDCHAR
STARTCHAR 2368
ENCODING 9064
SWIDTH 903 0
DWIDTH 40 0
BBX 40 40 0 -6
BITMAP
0000000070
06000003f8
07c0001ffc
078019ff00
07001fe000
07001c0000
07001c0000
07001c0000
07001c0000
c7181c0000
e71e1c0000
c71c1c0000
c71c1c000c
c71c1c001e
c71c1fffff
c71c1c0380
c71c1c0380
c71c1c0380
c71c1c0380
c71c1c0380
c71c1c0380
c71c1c0380
c71c1c0380
c71c1c0380
c71c380380
c71c380380
c71c380380
c71c380380
c71c300380
c71c700380
fffc700380
c01c700380
0018e00380
0000e00380
0000c00380
0001c00380
0001800380
0003000380
0006000380
000c000300
ENDCHAR
STARTCHAR 2369
ENCODING 9065
SWIDTH 903 0
DWIDTH 40 0
BBX 40 40 0 -6
BITMAP
0000300000
00003e0000
0c003c00c0
0f803800f8
0f003800f0
0e003800e0
0e003800e0
0e003800e0
1fffffffe0
0c000000e0
00003000c0
00007c0000
0000780000
0000fc0000
0001e60000
0003c30000
000781c000
000f00e000
001e007800
003c003e00
0078000fc0
00ec0067ff
01cf0079ff
070e00707c
1c0e00701c
f00e007000
000e007000
000e007000
000e007000
001c007000
001c007000
001c007000
0038007000
0038007000
0070007000
00e0007000
01c0007000
0380007000
0e00007000
3800006000
ENDCHAR
STARTCHAR 236a
ENCODING 9066
SWIDTH 903 0
DWIDTH 40 0
BBX 40 40 0 -6
BITMAP
0000000000
0000000060
00000000f0
1ffffffff8
0000000000
0000000000
00600c0180
00780f01e0
00f01e03c0
00e01c0380
01c0380700
0380700e00
0700e01c00
0e01c03800
0e01c03800
0380700e00
01e03c0780
00f01e03c0
00780f01e0
00380700e0
0018030060
0000000000
0000000000
0000000080
00000001c0
07ffffffe0
0000380000
0000380000
0000380000
0000380000
0000380000
0000380000
0000380000
0000380000
0000380000
0000380000
000038000c
000038001e
ffffffffff
0000000000
ENDCHAR
STARTCHAR 236b
ENCODING 9067
SWIDTH 903 0
DWIDTH 40 0
BBX 40 40 0 -6
BITMAP
0300000000
03e0000000
03c0180018
03801c003c
03801ffffe
03801c1c1e
03801c1c1c
03801c1c1c
638e1c1c1c
7fff1c1c1c
638f1c1c1c
638e1c1c1c
638e1c1c1c
638e1c1c1c
638e1c1c1c
638e1c1c1c
638e1c1c1c
638e1c1c1c
638e1ffffc
638e1c001c
638e1c0018
638e1c0000
638e1c0000
638e1c0000
638e1c0000
638e1c0000
63fe1c0000
63be1c0000
639c1c0000
63981c0000
03801c0001
03801c0001
03801c0003
03801c0003
03801c0006
03801e000e
03801fffff
03800fffff
038007fffe
0300000000
ENDCHAR
STARTCHAR 236c
ENCODING 9068
SWIDTH 903 0
DWIDTH 40 0
BBX 40 40 0 -6
BITMAP
0300003000
03e0003e00
03c0003c00
0380003800
0380003800
0380003800
0380003800
0380103800
638e10380c
7fff10381e
638f3fffff
638e30381f
638e70381c
638ef03818
638ee03830
638ec03820
638e003800
638e007000
638e007000
638e007c00
638e007f80
638e00ef00
638e00ee00
638e00ee00
638e01ce00
638e01ce00
63fe01ce00
63be038e00
639c038e00
6398070e00
0380070e00
03800e0e01
03800e0e01
03801c0e03
0380380e03
0380700f06
0380e00fff
0381c007ff
03870003fe
031c000000
ENDCHAR
STARTCHAR 236d
ENCODING 9069
SWIDTH 903 0
DWIDTH 40 0
BBX 40 40 0 -6
BITMAP
0000300000
00001c0000
00000e0000
0c000e000c
0e0006001e
0fffffffff
0e00000000
0e00060000
0e0007c000
0e00078000
0e00070000
0e00070000
0e00070060
0e000700f0
0e7ffffff8
0e00070000
0e00070000
0e00070000
0e00070000
0e00070600
0e00070f00
0e0fffff80
0e00800f80
0e00c00e00
0e00400e00
0e00601c00
0e00301c00
1c00383800
1c001c7000
1c000ee000
1c0007c000
180007c000
38000fe000
38001ef800
3000383e00
7000f01fc0
6003c007ff
c00f0003ff
807c0000f8
03e0000038
ENDCHAR
STARTCHAR 236e
ENCODING 9070
SWIDTH 903 0
DWIDTH 40 0
BBX 40 40 0 -6
BITMAP
0000300000
00001c0000
00000e0000
0c000e000c
0e0006001e
0fffffffff
0e00000000
0e00030000
0e0003e000
0e0003c000
0e00038000
0e00038000
0e00038018
0e0003803c
0e7ffffffe
0e00038000
0e00038000
0e00038000
0e0c0380e0
0e0f8380f8
0e0f0380f0
0e0e0380e0
0e0e0380e0
0e0e0380e0
0e0e0380e0
0e0e0380e0
0e0e0380e0
1c0e0380e0
1c1fffffe0
1c0c0380e0
1c000380c1
1800038001
3800038003
3800038003
3000038006
700003c00e
600003ffff
c00001ffff
800000fffe
0000000000
ENDCHAR
STARTCHAR 236f
ENCODING 9071
SWIDTH 903 0
DWIDTH 40 0
BBX 40 40 0 -6
BITMAP
0000300000
00001c0000
00000e0000
0c000e000c
0e0006001e
0fffffffff
0e00000000
0e00000000
0e00000000
0e060000c0
0e07ffffe0
0e07007000
0e07007000
0e07007000
0e07007000
0e0e007000
0e0e007000
0e0e007010
0e0e007038
0e1ffffffc
0e0c077000
0e00077000
0e000e7000
0e000e7000
0e001c7000
0e001c7000
0e00387000
1c00387000
1c00707000
1c00e07000
1c01c07000
1803807000
3807007000
380e007000
301c007000
703800f000
60e03ff000
c38007e000
800001c000
0000018000
ENDCHAR
STARTCHAR 2370
ENCODING 9072
SWIDTH 903 0
DWIDTH 40 0
BBX 40 40 0 -6
BITMAP
0000300000
00001c0000
00000e0000
0c000e000c
0e0006001e
0fffffffff
0e00000000
0e00030000
0e0003c000
0e00038000
0e00078000
0e0007c000
0e000e6000
0e001c3000
0e00381800
0e00700e00
0e00e00700
0e01c003c0
0e038001f0
0e07000cff
0e0efffe3f
0e1c00001e
0e70000006
0fc0000000
0e00000300
0e00000780
0e03ffffc0
1c000007c0
1c00000700
1c00000700
1c00000e00
1800000e00
3800001c00
3800001800
3000003800
7000003000
6000006000
c00000c000
8000018000
0000030000
ENDCHAR
STARTCHAR 2371
ENCODING 9073
SWIDTH 903 0
DWIDTH 40 0
BBX 40 40 0 -6
BITMAP
0000300000
00001c0000
00000e0000
0c000e000c
0e0006001e
0fffffffff
0e00000000
0e00000000
0e00000380
0e00001fc0
0e0601ffe0
0e071ff000
0e07fc0000
0e07000000
0e07000000
0e07000000
0e07000000
0e07000018
0e0700003c
0e07fffffe
0e07003800
0e07003800
0e07003800
0e07003800
0e07003800
0e07003800
0e07003800
1c07003800
1c0e003800
1c0e003800
1c0e003800
181c003800
381c003800
3838003800
3038003800
7070003800
60e0003800
c1c0003800
8380003800
0e00003000
ENDCHAR
STARTCHAR 2372
ENCODING 9074
SWIDTH 903 0
DWIDTH 40 0
BBX 40 40 0 -6
BITMAP
00000e0000
0006038000
000781c000
000f007000
000e003800
001c001c00
0038000f00
0070000780
00e00003f0
01c00001ff
03fffffe7f
0701c00e3c
0e01c00e0c
3801c00e00
e003800e00
0003800e00
0007000e00
000e001e00
001c0ffc00
003801f800
0070007000
01c0006000
0700000000
0018006000
001f007c00
001e007800
001c007000
001c00700c
001c00701e
ffffffffff
0038007000
0038007000
0070007000
0070007000
00e0007000
01c0007000
0380007000
0700007000
1c00007000
7000006000
ENDCHAR
STARTCHAR 2373
ENCODING 9075
SWIDTH 903 0
DWIDTH 40 0
BBX 40 40 0 -6
BITMAP
0000000000
0030000000
0078300030
fffc380078
003c3ffffc
003838383c
0038383838
0038383838
0038383838
0038383838
0038383838
3038383838
3ff8383838
3838383838
3830383838
3800383838
3800383838
3800383838
70003ffff8
7018380038
703c380030
fffe380000
601e380000
001c380000
001c380000
001c380000
001c380000
001c380000
001c380000
001c380001
0038380001
0038380003
0038380003
0070380006
00703c000e
00e03fffff
7fe01fffff
0fc00ffffe
0380000000
0300000000
ENDCHAR
STARTCHAR 2374
ENCODING 9076
SWIDTH 903 0
DWIDTH 40 0
BBX 40 40 0 -6
BITMAP
0030003000
003c001800
0078001800
0070000c00
00e0000c00
01e0000600
01c0180600
03801e0300
07001c0300
0e001c0380
1c30380180
303c3801c0
00783801c0
00707000e0
00e07000e0
01e06000f0
01c0e18070
0380c1e078
0781c1c03c
078181c03e
0f8183801f
1f8303801f
1b8303800e
3386070006
6384070000
c380060000
03800e0000
03800c0000
03801c0300
0380180180
03803800c0
03803000e0
0380700070
0380600070
0380e03ff8
0381fff838
0381ff0038
0380f00018
0380700018
0300000000
ENDCHAR
STARTCHAR 2375
ENCODING 9077
SWIDTH 903 0
DWIDTH 40 0
BBX 40 40 0 -6
BITMAP
0030000000
003c000180
00780003c0
0071ffffe0
00e00e01e0
01e00e01c0
01c00e01c0
03800e01c0
07000e0380
0e000e0380
1c300e0380
303c0e0380
00780e0700
00700e0730
00e00e0778
01e00ffffc
01c00e803c
03800e8038
07801cc038
07801cc038
0f801c4070
1f801c6070
1b801c6070
33803830e0
63803830e0
c3803839c0
03807019c0
0380701f80
0380700f80
0380e00f00
0380e00f00
0381c01f80
0381c03fc0
03838079e0
038380f0f8
038701e07f
038603803f
038c0f001c
03983c000c
0331e00000
ENDCHAR
STARTCHAR 2376
ENCODING 9078
SWIDTH 903 0
DWIDTH 40 0
BBX 40 40 0 -6
BITMAP
000000c000
000000f000
000000e300
000000e180
000000e1c0
000000e0e0
000000e0e0
000000e060
000000e004
000000e00e
ffffffffff
000000e000
000000e000
000000e000
000000e000
001800e000
000e00e000
000700e000
0007807000
0003807000
0003807000
00c1807000
00f0007000
00e0003800
00e0003800
00e0003800
08e0001c00
08e00c1c00
08e0060e00
18e0070e00
18e0038701
38e0138701
38e011c383
78e031c3c3
70f031c1e6
70f860c0fe
607ff0007e
003ff0003f
001fe0001f
0000000006
ENDCHAR
STARTCHAR 2377
ENCODING 9079
SWIDTH 903 0
DWIDTH 40 0
BBX 40 40 0 -6
BITMAP
0000000000
000000000c
000000001e
ffffffffff
0000700000
0000700000
0000700000
0000700000
00007c0000
0000778000
000071e000
0000707800
0000703e00
0000700f00
0000700780
0000700380
0000700180
0000700000
0000700000
0000700000
0000700000
0000600000
0000000000
0000000000
0000000000
0000300000
00301c0000
003e0e0000
083c070000
0838070060
1838030038
183800021c
383800020e
383800060f
703c000607
f03e000c07
e01ffffe03
c00ffffe00
0003fffc00
0000000000
ENDCHAR
STARTCHAR 2378
ENCODING 9080
SWIDTH 903 0
DWIDTH 40 0
BBX 40 40 0 -6
BITMAP
0000600000
00007c0000
0000780000
0000700000
0000700000
0000700000
0000700000
0000700000
0000700600
0000700f00
00007fff80
0000700000
0000700000
0000700000
0000700000
0000700000
0000700000
0000700000
000070000c
000070001e
ffffffffff
0000000000
0000000000
0000600000
0000380000
00301c0000
003e0e0000
003c0f0000
0838070000
08380300c0
1838000070
1838000238
383800021c
383800060e
703c00060f
f03e000c07
e01ffffe07
c00ffffe03
0003fffc00
0000000000
ENDCHAR
STARTCHAR 2379
ENCODING 9081
SWIDTH 903 0
DWIDTH 40 0
BBX 40 40 0 -6
BITMAP
0600000000
07c0030000
078001c000
070000e000
0700007000
0700007800
0700003800
0700003800
070000180c
078000001e
27c3ffffff
2760007000
2770007000
6738007000
6738007000
6718007000
e700007000
e700007000
c700007c00
c700007700
07000073c0
07000071e0
07000070f0
0700007078
0700007038
0700007038
0700007018
0700007000
0700007000
0700007000
0700007000
0700007000
0700007000
0700007000
0700007000
0700007000
0700007000
0700007000
0700007000
0600006000
ENDCHAR
STARTCHAR 237a
ENCODING 9082
SWIDTH 903 0
DWIDTH 40 0
BBX 40 40 0 -6
BITMAP
0600000000
07c0000000
0780000020
0700000070
07007ffff8
0700000000
0700000000
0700000000
0700000000
0780000000
27c0000000
2760000000
2770000000
6738000008
673800001c
6719fffffe
e700038700
e700038700
c700038700
c700038700
0700038700
0700038700
0700038700
0700038700
0700070700
0700070700
0700070700
0700070700
07000e0700
07000e0700
07001c0701
07001c0701
0700380703
0700380703
0700700706
0700e0078e
0701c007ff
07038003ff
07070001fe
061c000000
ENDCHAR
STARTCHAR 237b
ENCODING 9083
SWIDTH 903 0
DWIDTH 40 0
BBX 40 40 0 -6
BITMAP
060000c000
07c000f800
078000f000
070000e000
070000e000
070000e000
070000e000
070000e00c
070000e01e
078fffffff
27c000e000
276000e000
277000e000
673800e000
673800e000
671800e060
e70000e0f0
e701fffff8
c7002000f8
c7003000e0
07001000e0
07001801c0
07000801c0
07000c0380
0700060380
0700070700
0700038e00
070001ce00
070001fc00
070000f800
0700007800
070000fc00
070001df00
0700038fc0
07000703f8
07001c01ff
070038007f
0700e0001e
0703800006
061e000000
ENDCHAR
STARTCHAR 237c
ENCODING 9084
SWIDTH 903 0
DWIDTH 40 0
BBX 40 40 0 -6
BITMAP
0600006000
07c0007c00
0780007800
0700007000
0700007000
0700007000
0700007008
070000701c
0701fffffe
0780007000
27c0007000
2760007000
2770607060
67387c707c
6738787078
6718707070
e700707070
e700707070
c700707070
c700707070
0700707070
0700707070
0700707070
0700707070
0700707070
0700707070
0700fffff0
0700607070
0700007060
0700007000
0700007001
0700007001
0700007003
0700007003
0700007006
070000780e
0700007fff
0700003fff
0700001ffe
0600000000
ENDCHAR
STARTCHAR 237d
ENCODING 9085
SWIDTH 903 0
DWIDTH 40 0
BBX 40 40 0 -6
BITMAP
0600003000
07c0003e00
0780003c00
0700003800
0700003800
0700003800
0700003800
0700003800
0700c0380c
0780e0381e
27c0ffffff
2760e0380f
2770e0380e
6738e0380e
6738e0380e
6718e0380e
e700e0380e
e700e0380e
c700e0380e
c700e0380e
0700e0380e
0700e0380e
0700e0380e
0700fffffe
0700e0380e
0700e0380e
0700c0380c
0700003800
0700003800
0700003800
0700003800
0700003800
0700003800
0700003800
0700003800
0700003800
0700003800
0700003800
0700003800
0600003000
ENDCHAR
STARTCHAR 237e
ENCODING 9086
SWIDTH 903 0
DWIDTH 40 0
BBX 40 40 0 -6
BITMAP
0600180000
07c01f0000
07801e0000
07001c0000
07001c0000
07001c0000
0700380010
0700380038
07003ffffc
0780703800
27c0703800
2760603800
2770e03800
6738c03800
6739c03800
6719803800
e703003800
e702003800
c700003804
c70000380e
0703ffffff
0700003800
0700003800
0700003800
0700003800
0700003800
0700003800
0700003800
0700003800
0700003800
0700003800
0700003800
0700003800
0700003800
0700003800
0700003800
0700003800
0700003800
0700003800
0600003000
ENDCHAR
STARTCHAR 2421
ENCODING 9249
SWIDTH 903 0
DWIDTH 40 0
BBX 40 40 0 -6
BITMAP
0600000000
07c0000180
07800003c0
0703ffffe0
07000e01e0
07000e01c0
07000e01c0
07000e01c0
07000e0380
07800e0380
27c00e0380
27600e0380
27700e0700
67380e0718
67380e073c
67180ffffe
e7000e803e
e7000e8038
c7001cc038
c7001cc038
07001c4070
07001c6070
07001c6070
07003830e0
07003830e0
07003839c0
07007019c0
0700701f80
0700700f80
0700e00f00
0700e00f00
0701c01f80
0701c03bc0
07038071e0
070380e0f8
070701c07f
070603803f
070c0e001c
071838000c
0631e00000
ENDCHAR
STARTCHAR 2422
ENCODING 9250
SWIDTH 903 0
DWIDTH 40 0
BBX 40 40 0 -6
BITMAP
06000c0000
07c00f8000
07800f0000
07000e0000
07000e0000
07000e0000
07001c0000
07001c0000
07001c0030
0780380078
27c03ffffc
276030e07c
277070e070
673860e0e0
6738e0e0c0
6718c0e180
e70180e100
e70300e000
c70200e000
c70000f000
070001f000
070001d000
070001d800
070001d800
0700039800
0700038c00
0700038c00
0700070e00
0700070700
07000e0700
07000e0380
07001c03c0
07001c01e0
07003801f0
07007000fc
0700e0007f
0701c0003f
070380001c
070e00000c
0638000000
ENDCHAR
STARTCHAR 2423
ENCODING 9251
SWIDTH 903 0
DWIDTH 40 0
BBX 40 40 0 -6
BITMAP
06000001c0
07c00007e0
0780007ff0
0700c7fc00
0700ffb800
0700e03800
0700e03800
0700e03800
0700e03800
0780e03800
27c0e03800
2760e03800
2770e03800
6738e03800
6738e03818
6718e0383c
e700fffffe
e700e03800
c700e03800
c700e01c00
0700e01c00
0700e01c00
0700e01c00
0700e00e00
0700e00e00
0700e00e00
0700e00e00
0700e00700
0700e00700
0700e00380
0700e00381
0700e0e1c1
0700e3c1c3
0700ef00e3
0700fe00f6
0700f8007e
0700f0003e
0700e0001f
070060000f
0600000006
ENDCHAR
STARTCHAR 2424
ENCODING 9252
SWIDTH 903 0
DWIDTH 40 0
BBX 40 40 0 -6
BITMAP
0600000000
07c0000000
078300000c
0703c0000f
070380018e
07038001ee
07039801ce
07038c01ce
070386038e
078387038e
27c383838e
276381870e
277381c70e
673b80c60e
673b80ee0e
671b807c0e
e703807c0e
e70380380e
c703803c0e
c703807c0e
0703807e0e
070380760e
070380e70e
070380e70e
070381c38e
070381c38e
07038381ce
07038301ce
07038701ee
07038600ee
07038c00ee
070398006e
0703b0000e
070380000e
070380000e
070380000e
0707fffffe
070300000e
070000000c
0600000000
ENDCHAR
STARTCHAR 2425
ENCODING 9253
SWIDTH 903 0
DWIDTH 40 0
BBX 40 40 0 -6
BITMAP
0600000070
07c00003f8
0780003ffc
070063fe00
07007fc000
0700700000
0700700000
0700700000
0700700000
0780700000
27c0700000
2760700000
277070000c
673870001e
67387fffff
6718700380
e700700380
e700700380
c700700380
c700700380
0700700380
0700700380
0700700380
0700700380
0700e00380
0700e00380
0700e00380
0700e00380
0700e00380
0701c00380
0701c00380
0701c00380
0703800380
0703800380
0703000380
0707000380
0706000380
070c000380
0718000380
0630000300
ENDCHAR
STARTCHAR 2426
ENCODING 9254
SWIDTH 903 0
DWIDTH 40 0
BBX 40 40 0 -6
BITMAP
0600000000
07c000000c
078000001e
0707ffffff
0700003800
0700003800
0700007000
0700007000
070000e000
078000e000
27c001e000
276001e000
277003e000
673803e300
673807e180
67180ee0c0
e7000ee060
e7001ce030
c70018e038
c70038e01c
070070e01e
0700e0e00e
0700c0e00f
070180e007
070300e007
070600e003
070c00e000
070000e000
070000e000
070000e000
070000e000
070000e000
070000e000
070000e000
070000e000
070000e000
070000e000
070000e000
070000e000
060000c000
ENDCHAR
STARTCHAR 2427
ENCODING 9255
SWIDTH 903 0
DWIDTH 40 0
BBX 40 40 0 -6
BITMAP
060000c000
07c000f000
078001e000
070001f000
070001f000
0700039800
0700039800
0700070c00
0700070e00
07800e0600
27c00e0300
27601c0380
27701801c0
67383801e0
67387000f0
6718600078
e700e0067c
e701dfff3f
c70180001f
c70300000e
0706000006
070c000000
0700000180
07000003c0
0700ffffe0
07000001e0
07000001c0
07000001c0
0700000380
0700000380
0700000700
0700000700
0700000e00
0700000e00
0700001c00
0700001c00
0700003800
0700003800
0700007000
0600006000
ENDCHAR
STARTCHAR 2428
ENCODING 9256
SWIDTH 903 0
DWIDTH 40 0
BBX 40 40 0 -6
BITMAP
0001800000
0007c00000
001fe30018
0c7c03803c
0fc003fffe
0e0003801e
0e0003801c
0e0003801c
0e00c3801c
0e01e3801c
0ffff3801c
0e00f3801c
0e00e3801c
0e00e3801c
0e00e3801c
0e00e3801c
0e00e3801c
0e00e3801c
0e00e3fffc
0e00e3801c
0e00e38018
0e00e38000
0fffe38000
0e00e38000
0e00c38000
0e00038000
0e00038000
0e00038000
1c00038000
1c00038000
1c00038001
1c00038001
3800038003
3800038003
3000038006
700003c00e
600003ffff
c00001ffff
800000fffe
0000000000
ENDCHAR
STARTCHAR 2429
ENCODING 9257
SWIDTH 903 0
DWIDTH 40 0
BBX 40 40 0 -6
BITMAP
0300000000
03e0030000
03c001c000
038000e000
0380007000
0380007800
0380003800
0380003800
0380001804
039800000e
7ffdffffff
0380007000
0380007000
0380007000
0380007000
0380007000
0380007000
0380007000
039c007c00
03f0007700
03c00073c0
0f800071e0
ff800070f0
ff80007078
7380007038
3380007038
0380007018
0380007000
0380007000
0380007000
0380007000
0380007000
0380007000
0380007000
0380007000
0380007000
7f80007000
0f80007000
0700007000
0600006000
ENDCHAR
STARTCHAR 242a
ENCODING 9258
SWIDTH 903 0
DWIDTH 40 0
BBX 40 40 0 -6
BITMAP
0300006000
03e0007c00
03c0007800
0380007000
0380007000
0380007000
0380007000
0380207000
038020700c
039820701e
7ffc7fffff
038060701f
0380e0701c
0381e07018
0381c07030
0381807020
0380007000
038000e000
039c00e000
03f000f800
03c000ff00
0f8001de00
ff8001dc00
ff8001dc00
7380039c00
3380039c00
0380039c00
0380071c00
0380071c00
03800e1c00
03800e1c00
03801c1c01
03801c1c01
0380381c03
0380701c03
0380e01e06
7f81c01fff
0f83800fff
070e0007fe
0638000000
ENDCHAR
STARTCHAR 242b
ENCODING 9259
SWIDTH 903 0
DWIDTH 40 0
BBX 40 40 0 -6
BITMAP
0300000000
03e0000000
03c0000000
0380000060
03800000f0
03803ffff8
0380000000
0380000000
0380000000
0398000000
7ffc000000
0380000000
0380000000
0380000000
038000000c
038000001e
0381ffffff
038001c000
039c01c000
03f001c000
03c001c000
0f80038000
ff80038000
ff80038000
7380070000
3380070000
0380060000
03800e0000
03800c00c0
03801c0060
0380180070
0380380038
03803003fc
038070ff1e
0380fff01e
0380ff000e
7f8078000e
0f80380006
0700000000
0600000000
ENDCHAR
STARTCHAR 242c
ENCODING 9260
SWIDTH 903 0
DWIDTH 40 0
BBX 40 40 0 -6
BITMAP
0300000000
03e0000000
03c0000020
0380000070
03807ffff8
0380000000
0380000000
0380000000
0380000000
0398000000
7ffc000000
0380000000
0380000000
0380000008
038000001c
0381fffffe
0380038700
0380038700
039c038700
03f0038700
03c0038700
0f80038700
ff80038700
ff80038700
7380070700
3380070700
0380070700
0380070700
03800e0700
03800e0700
03801c0701
03801c0701
0380380703
0380380703
0380700706
0380e0078e
7f81c007ff
0f838003ff
07070001fe
061c000000
ENDCHAR
STARTCHAR 242d
ENCODING 9261
SWIDTH 903 0
DWIDTH 40 0
BBX 40 40 0 -6
BITMAP
0300000000
03e000000c
03c000001e
0383ffffff
0380001c00
0380001c00
0380003800
0380003800
0380007000
0398007000
7ffc00f000
038000f000
038001f000
038001f000
038003f180
03800770c0
0380077060
03800e7030
039c0c7038
03f01c701c
03c038701e
0f8070700e
ff8060700f
ff80c07007
7381807007
3383007003
0386007000
0380007000
0380007000
0380007000
0380007000
0380007000
0380007000
0380007000
0380007000
0380007000
7f80007000
0f80007000
0700007000
0600006000
ENDCHAR
STARTCHAR 242e
ENCODING 9262
SWIDTH 903 0
DWIDTH 40 0
BBX 40 40 0 -6
BITMAP
0180000000
01f0000000
01e0000000
01c018000c
01c01c001e
01c01fffff
01c01c000f
01c01c000e
01c21c000e
01c71c000e
7fff9c000e
01c01c000e
01c01c000e
01c01c000e
01c01c000e
01c01c000e
01c01c000e
01c01c000e
01c71c000e
01fc1ffffe
03f01c000e
1fc01c000e
ffc01c000e
fdc01c000e
71c01c000e
31c01c000e
01c01c000e
01c01c000e
01c01c000e
01c01c000e
01c01c000e
01c01c000e
01c01c000e
01c01ffffe
01c01c000e
01c01c000e
7fc01c000c
0fc0180000
0380000000
0300000000
ENDCHAR
STARTCHAR 242f
ENCODING 9263
SWIDTH 903 0
DWIDTH 40 0
BBX 40 40 0 -6
BITMAP
0300000000
03e0000300
03c0000780
0387ffffc0
03801c03c0
03801c0380
03801c0380
03801c0380
03801c0700
03981c0700
7ffc1c0700
03801c0700
03801c0e00
03801c0e30
03801c0e78
03801ffffc
03801d007c
03801d0070
039c398070
03f0398070
03c03880e0
0f8038c0e0
ff8038c0e0
ff807061c0
73807061c0
3380707380
0380e03380
0380e03f00
0380e01f00
0381c01e00
0381c01f00
0383803f80
03838073c0
038700e1e0
038701c0f8
038e03807f
7f8c07003f
07981c001e
0730700006
0663c00000
ENDCHAR
STARTCHAR 2430
ENCODING 9264
SWIDTH 903 0
DWIDTH 40 0
BBX 40 40 0 -6
BITMAP
0300060000
03e007c000
03c0078000
0380070000
0380070000
0380070000
03800e0000
03800e0000
03800e0018
03981c003c
7ffc1ffffe
038018703e
0380387038
0380307070
0380707060
03806070c0
0380c07080
0381807000
039d007000
03f0007800
03c000f800
0f8000e800
ff8000ec00
ff8000ec00
738001cc00
338001c600
038001c600
0380038700
0380038380
0380070380
03800701c0
03800e01e0
03800e00f0
03801c00f8
038038007c
038070003f
7f80e0001f
0f81c0000e
0707000006
061c000000
ENDCHAR
STARTCHAR 2431
ENCODING 9265
SWIDTH 903 0
DWIDTH 40 0
BBX 40 40 0 -6
BITMAP
03000001c0
03e00007e0
03c0007ff0
0380c7fc00
0380ffb800
0380e03800
0380e03800
0380e03800
0380e03800
0398e03800
7ffce03800
0380e03800
0380e03800
0380e03800
0380e03818
0380e0383c
0380fffffe
0380e03800
039ce03800
03f0e01c00
03c0e01c00
0f80e01c00
ff80e01c00
ff80e00e00
7380e00e00
3380e00e00
0380e00e00
0380e00700
0380e00700
0380e00380
0380e00381
0380e0e1c1
0380e3c1c3
0380ef00e3
0380fe00f6
0380f8007e
7f80f0003e
0780e0001f
070060000f
0600000006
ENDCHAR
STARTCHAR 2432
ENCODING 9266
SWIDTH 903 0
DWIDTH 40 0
BBX 40 40 0 -6
BITMAP
0300006000
03e0007800
03c0007000
0380007300
03800071c0
03800070e0
0380007070
0380007070
0380007030
0398007000
7ffc007000
038000700c
0380fffffe
0380007000
0380007000
0380007000
0380007000
0380007000
039c00e000
03f000ec00
03c000ef00
0f8000ee00
ff8001ce00
ff8001ce00
738001ce00
3380038e00
0380038e00
0380070e00
0380070e00
03800e0e00
03800e0e01
03801c0e01
03801c0e03
0380380e03
0380700e06
0380e00f0e
7f81c00fff
0f838007ff
07070003fe
061c000000
ENDCHAR
STARTCHAR 2433
ENCODING 9267
SWIDTH 903 0
DWIDTH 40 0
BBX 40 40 0 -6
BITMAP
0300006000
03e0007c00
03c0007800
038000f000
038000e000
038001e000
038001c000
0380038000
0380038000
0398070000
7ffc0700c0
03800e0060
03801c0030
03801c0038
038038001c
03807007fe
0380ffff1e
0380ffc70e
039c79c70e
03f039c706
03c001c700
0f8001c700
ff8001c700
ff8001c700
738001c700
338001c700
0380038700
0380038700
0380038700
0380070700
0380070700
03800e0701
03800e0701
03801c0703
0380380703
0380700786
7f80e007ff
0f81c003ff
07070001fe
061c000000
ENDCHAR
STARTCHAR 2434
ENCODING 9268
SWIDTH 903 0
DWIDTH 40 0
BBX 40 40 0 -6
BITMAP
0180000000
01f0060018
01e007003c
01c007fffe
01c007001e
01c007001c
01c007001c
01c007001c
01c207001c
01c707001c
7fff87001c
01c007001c
01c007001c
01c007fffc
01c007001c
01c007001c
01c007001c
01c007001c
01c707001c
01fc07001c
03f007001c
1fc007001c
ffc007001c
fdc007fffc
71c00e001c
31c00e001c
01c00e001c
01c00e001c
01c01c001c
01c01c001c
01c01c001c
01c038001c
01c038001c
01c070001c
01c070001c
01c0e0003c
7fc1c00ffc
0fc38001f8
0387000070
031c000060
ENDCHAR
STARTCHAR 2435
ENCODING 9269
SWIDTH 903 0
DWIDTH 40 0
BBX 40 40 0 -6
BITMAP
03000000e0
03e00007f0
03c0007ff8
038007fe00
03807f7000
0380007000
0380007000
0380007000
0380007000
0398007000
7ffc007000
0380007000
0380007000
0380007008
038000701c
0381fffffe
0380007000
0380007000
039c00f800
03f000f800
03c000e800
0f8000ec00
ff8001cc00
ff8001c600
738001c600
3380038700
0380038300
0380070380
0380070380
03800e01c0
03800e01c0
03801c00e0
03801c00f0
0380380078
038070003c
0380e0003f
7f81c0001f
078380000e
070e000006
0638000000
ENDCHAR
STARTCHAR 2436
ENCODING 9270
SWIDTH 903 0
DWIDTH 40 0
BBX 40 40 0 -6
BITMAP
0300006000
03e0007c00
03c0007800
0380007000
0380007000
0380007000
0380007008
038000701c
0381fffffe
0398007000
7ffc007000
0380007000
0380607060
03807c707c
0380787078
0380707070
0380707070
0380707070
039c707070
03f0707070
03c0707070
0f80707070
ff80707070
ff80707070
7380707070
3380707070
0380fffff0
0380607070
0380007060
0380007000
0380007001
0380007001
0380007003
0380007003
0380007006
038000780e
7f80007fff
0f80003fff
0700001ffe
0600000000
ENDCHAR
STARTCHAR 2437
ENCODING 9271
SWIDTH 903 0
DWIDTH 40 0
BBX 40 40 0 -6
BITMAP
0300006000
03e0007800
03c000f000
038000f800
038000f800
038001cc00
038001cc00
0380038600
0380038700
0398070300
7ffc070180
03800e01c0
03800c00e0
03801c00f0
0380380078
038030003c
038070033f
03806fff9f
039cc0000e
03f1800006
03c3000000
0f80000000
ff800000c0
ff800001e0
73807ffff0
33800000f0
03800000e0
03800000e0
03800001c0
03800001c0
0380000380
0380000380
0380000700
0380000700
0380000e00
0380000e00
7f80001c00
0f80001c00
0700003800
0600003000
ENDCHAR
STARTCHAR 2438
ENCODING 9272
SWIDTH 903 0
DWIDTH 40 0
BBX 40 40 0 -6
BITMAP
0300003000
03e0003c00
03c0003800
0380007800
0380007c00
038000f400
038000e600
038001e300
038001c380
03980381c0
7ffc0780e0
03800700f0
03800e007c
03801c003f
038038001f
038070000e
0380e60186
03818781e0
039c0701c0
03f00701c0
03c00701c0
0f800701c0
ff800701c0
ff800701c0
73800701c0
33800701c0
03800701c0
03800e01c0
03800e01c0
03800e01c0
03800c01c0
03801c01c0
03801801c0
03803801c0
03803001c0
03806001c0
7f80c001c0
0f818001c0
07030001c0
0606000180
ENDCHAR
STARTCHAR 2439
ENCODING 9273
SWIDTH 903 0
DWIDTH 40 0
BBX 40 40 0 -6
BITMAP
0000000000
0000000020
0000000070
0000fffff8
6060007000
70f0007000
7ff8007000
7078007000
7070007000
7070007000
7070007000
7070007000
7070007000
7070007000
7070007000
707000700c
707000701e
7073ffffff
7ff0007000
7070007000
7070007000
7070007000
7070007000
7070007000
7070007000
7070007000
7070007000
7070007000
7070007000
7070007000
7ff0007000
7070007000
7060007000
6000007000
0000007000
0000007000
0000007000
0000007000
0000007000
0000006000
ENDCHAR
STARTCHAR 243a
ENCODING 9274
SWIDTH 903 0
DWIDTH 40 0
BBX 40 40 0 -6
BITMAP
0000000000
0000000010
0000000038
00007ffffc
6060003800
70f0003800
7ff8003800
7078003800
7070003800
7070003800
7070003800
7070003800
7070003800
7070003800
7070003804
707000380e
7071ffffff
7070003800
7ff0003800
7070003800
7070003800
7070003800
7070003800
7070003800
7070003800
7070003800
7070003800
7070003800
7070003800
7070003800
7ff0003800
7070003800
7060003800
6000003800
0000003800
0000007800
00001ff800
000003f000
000000e000
000000c000
ENDCHAR
STARTCHAR 243b
ENCODING 9275
SWIDTH 903 0
DWIDTH 40 0
BBX 40 40 0 -6
BITMAP
00000c0000
00000f8000
00000f0000
00000e0000
60600e0000
70f00e0000
7ff81c0000
70781c0018
70701c003c
70703ffffe
707038001e
707030001c
707070001c
707060001c
7070e0001c
7070c0001c
707180001c
707106001c
7ff003801c
707001c01c
707000e01c
707000701c
707000781c
707000381c
707000181c
707000001c
707000001c
707000001c
707000001c
707000001c
7ff000003c
7070000038
7060000038
6000000078
0000000070
00000001f0
000000ffe0
0000000fc0
0000000380
0000000300
ENDCHAR
STARTCHAR 243c
ENCODING 9276
SWIDTH 903 0
DWIDTH 40 0
BBX 40 40 0 -6
BITMAP
0000000000
0180000600
01c0000f00
01ffffff80
01c0000780
01c0000700
01c0000700
01c0000700
01c0000700
01ffffff00
01c0000700
01c0000700
01c0000700
01c0000700
01c0000700
01ffffff00
01c0000700
0180000600
0000600000
00007c0000
0000780000
0000700000
0000700000
000070000c
000070001e
ffffffffff
0000e00000
0000e00000
0001c00000
0001c0e000
0003803800
0007001e00
000e000780
001c0003e0
00380001f0
00f00000f8
01c000007c
078000003c
1e0000001c
700000000c
ENDCHAR
STARTCHAR 243d
ENCODING 9277
SWIDTH 903 0
DWIDTH 40 0
BBX 40 40 0 -6
BITMAP
0000000000
0180000600
01c0000f00
01ffffff80
01c0000780
01c0000700
01c0000700
01c0000700
01c0000700
01ffffff00
01c0000700
01c0000700
01c0000700
01c0000700
01c0000700
01ffffff00
01c0000700
0180000600
0000000000
0000300000
00003e0000
00003c0000
0000380000
0000380000
0c003800c0
0f803800f8
0f003800f0
0e003800e0
0e003800e0
0e003800e0
0e003800e0
0e003800e0
0e003800e0
0e003800e0
0e003800e0
0e003800e0
1fffffffe0
0c000000e0
00000000e0
00000000c0
ENDCHAR
STARTCHAR 243e
ENCODING 9278
SWIDTH 903 0
DWIDTH 40 0
BBX 40 40 0 -6
BITMAP
0300000000
03e0000010
03c0000038
03807ffffc
0380003800
0380003800
0380003800
0388003800
039c003800
fffe003800
0380003800
0380003800
0780003800
0780003800
07c0003804
0fe000380e
0fb1ffffff
0fb8003800
1f9c003800
1b9c003800
1b8c003800
3b80003800
3380003800
3380003800
6380003800
6380003800
c380003800
c380003800
8380003800
0380003800
0380003800
0380003800
0380003800
0380003800
0380003800
0380007800
03801ff800
038003f000
038000e000
030000c000
ENDCHAR
STARTCHAR 243f
ENCODING 9279
SWIDTH 903 0
DWIDTH 40 0
BBX 40 40 0 -6
BITMAP
0300000000
03e0000020
03c0000070
03807ffff8
0380000000
0380000000
0380000000
0388000000
039c000000
fffe000000
038000000c
038000001e
0783ffffff
07800e0000
07c00e0000
0fe00e0000
0fb01c0000
0fb81c0000
1f9c1c0000
1b9c380060
1b8c3800f0
3b807ffff8
3380300078
3380000070
6380000070
6380000070
c380000070
c380000070
8380000070
0380000070
03800000f0
03800000e0
03800000e0
03800001e0
03800001c0
03800007c0
038003ff80
0380003f00
0380000e00
0300000c00
ENDCHAR
STARTCHAR 2440
ENCODING 9280
SWIDTH 903 0
DWIDTH 40 0
BBX 40 40 0 -6
BITMAP
0300018000
03e001f000
03c001e000
038001c000
038001c300
038001c180
038001c1c0
038801c0e0
039c01c0e0
fffe01c060
038001c000
038001c008
078001c01c
0781fffffe
07c001c000
0fe001c000
0fb001c000
0fb801c000
1f9c01c000
1b9c01c000
1b8c00e000
3b8000e000
338000e000
338000e000
6380007000
6380007000
c380007000
c380003800
8380003800
0380001c00
0380001c00
0380000e01
0380000f01
0380000783
03800003c3
03800001f6
03800000fe
038000007f
038000003f
030000000e
ENDCHAR
STARTCHAR 2441
ENCODING 9281
SWIDTH 903 0
DWIDTH 40 0
BBX 40 40 0 -6
BITMAP
030000c000
03e000f800
03c000f000
038000e000
038000e000
038000e000
038000e000
038800e000
039c00e000
fffe00e000
038000e010
038000e038
0783fffffc
078000e000
07c000e000
0fe000e000
0fb000e000
0fb800e000
1f9c01f000
1b9c01f000
1b8c01f000
3b8001b000
3380039800
3380039800
6380039800
6380070c00
c380070c00
c380070e00
83800e0600
03800e0700
03801c0700
03801c0380
03803801c0
03807801e0
03807000f8
0380e0007f
0381c0003f
038380001c
038700000c
031c000000
ENDCHAR
STARTCHAR 2442
ENCODING 9282
SWIDTH 903 0
DWIDTH 40 0
BBX 40 40 0 -6
BITMAP
0300000000
03e000000c
03c000001e
0381ffffff
0380070380
0380070380
0380070380
0388070380
039c070380
fffe070380
0380070380
0380070380
0780070380
0780070380
07c0070380
0fe0070380
0fb0070380
0fb8070380
1f9c070380
1b9c070380
1b8c070380
3b80070380
3380070380
33800e0380
63800e0380
63800e0380
c3800e0380
c3801c0380
83801c0380
03801c0380
0380380380
0380380381
0380700381
0380700383
0380e00383
0380c003c6
03818003ff
03830001ff
03860000fe
030c000000
ENDCHAR
STARTCHAR 2443
ENCODING 9283
SWIDTH 903 0
DWIDTH 40 0
BBX 40 40 0 -6
BITMAP
0300000000
03e0000000
03c0000060
03800000f0
0381fffff8
0380100078
0380100070
0388100070
039c118070
fffe18c070
038018e0e0
03801870e0
07801870e0
07800c30e0
07c00c31c0
0fe00c01c0
0fb00c01c0
0fb8060380
1f9c060380
1b9c060380
1b8c030700
3b80030700
3380038e00
3380018e00
638001dc00
638000fc00
c38000f800
c380007000
838000f800
038001fc00
0380039e00
0380070f00
03800e0780
03801c03e0
03803801f8
03807000ff
0380e0007f
038380001e
038e000006
0338000000
ENDCHAR
STARTCHAR 2444
ENCODING 9284
SWIDTH 903 0
DWIDTH 40 0
BBX 40 40 0 -6
BITMAP
0300003000
03e0003e00
03c0003c00
0380303800
03803e3800
03803c3800
0380383800
0388383800
039c383800
fffe383800
0380383818
038038383c
0780383ffe
07803ff83e
07c3f83838
0fe0383838
0fb0383838
0fb8383838
1f9c383870
1b9c383870
1b8c383870
3b80383860
33803838e0
33803838e0
63803838c0
63803838c0
c380383880
c380383800
8380383800
0380383000
0380380001
0380380001
0380380003
0380380003
0380380006
03803c000e
03803fffff
03801fffff
03800ffffe
0300000000
ENDCHAR
STARTCHAR 2445
ENCODING 9285
SWIDTH 903 0
DWIDTH 40 0
BBX 40 40 0 -6
BITMAP
0300000000
03e0000030
03c0000078
03803ffffc
038000007c
03800000f0
03800001c0
0388000380
039c000700
fffe000c00
0380003800
0380003800
0780003800
0780003800
07c0003800
0fe0003800
0fb0003800
0fb800380c
1f9c00381e
1b9dffffff
1b8c003800
3b80003800
3380003800
3380003800
6380003800
6380003800
c380003800
c380003800
8380003800
0380003800
0380003800
0380003800
0380003800
0380003800
0380003800
0380007800
03801ff800
038003f000
038000e000
030000c000
ENDCHAR
STARTCHAR 2446
ENCODING 9286
SWIDTH 903 0
DWIDTH 40 0
BBX 40 40 0 -6
BITMAP
0300030000
03e003e000
03c003c000
0380038000
0380038000
0380038000
038007000c
038807001e
039c0fffff
fffe0e0000
03801c0000
0380180000
0780300000
0780600000
07c0c00000
0fe0000180
0fb00003c0
0fb81fffe0
1f9c0001e0
1b9c000380
1b8c000700
3b80000e00
3380001c00
3380003800
6380007000
638000e000
c38001c000
c380038000
8380070000
03800e0000
03801c0001
03801c0001
0380380003
0380380003
0380380006
03803c000e
03801fffff
03800fffff
038003fffe
0300000000
ENDCHAR
STARTCHAR 2447
ENCODING 9287
SWIDTH 903 0
DWIDTH 40 0
BBX 40 40 0 -6
BITMAP
0300000000
03e0180180
03c01c03c0
03801fffe0
03801c01e0
03801c01c0
03801c01c0
03881c01c0
039c1c01c0
fffe1c01c0
03801c01c0
03801c01c0
07801c01c0
07801d81c0
07c01cc1c0
0fe01ce1c0
0fb01c71c0
0fb81c79c0
1f9c1c39c0
1b9c1c39c0
1b8c1c19c0
3b801c01c0
33801c01c0
33801c01c0
63803801c0
63803801c0
c3803801c0
c3803801c0
83803001c0
03807001c0
03807001c0
03806001c1
0380e001c1
0380c001c3
0381c001c3
03838001e6
03830001ff
03860000ff
038c00007e
0318000000
ENDCHAR
STARTCHAR 2448
ENCODING 9288
SWIDTH 903 0
DWIDTH 40 0
BBX 40 40 0 -6
BITMAP
0000300000
00003e0000
00003c0000
0000380000
000038000c
000038001e
ffffffffff
0000380000
0000380000
0000380000
0000380100
0000380380
07ffffffc0
0000000000
0000000000
0180000700
01ffffff80
01c0380780
01c0380700
01c0380700
01c0380700
01c0380700
01c0380704
01c038070e
ffffffffff
0380700700
0380700700
0380700700
0380700700
0380700700
0380700708
038070071c
07fffffffe
0300000e00
0000000e00
0000001e00
00000ffc00
000001f800
0000007000
0000006000
ENDCHAR
STARTCHAR 2449
ENCODING 9289
SWIDTH 903 0
DWIDTH 40 0
BBX 40 40 0 -6
BITMAP
0300000000
03c0000000
0380000060
03800000f0
07fffffff8
0700000000
0700000000
0e00000000
0e00000180
0fffffffc0
1c00000000
1800000000
3800000000
3000000700
67ffffff80
c000000780
0000000700
0006000700
0007c00700
0007800700
0007000700
0007000700
0c07030700
0f8703c700
0f07038700
0e07038380
0e07038380
0e07038380
0e07038380
0e07038380
0e070381c0
0e070381c1
0e070381e1
0e070380e3
0e07038073
1fffff807e
0c0003803e
000003001f
000000000f
0000000006
ENDCHAR
STARTCHAR 244a
ENCODING 9290
SWIDTH 903 0
DWIDTH 40 0
BBX 40 40 0 -6
BITMAP
0300000000
03c0000000
0380000060
03800000f0
07fffffff8
0700000000
0700000000
0e00000000
0e00000180
0fffffffc0
1c00000000
1800000000
3800000000
3000000700
67ffffff80
c000000780
0000000700
0000000700
0300030700
03c303c700
0383c38700
0383838700
0383838700
0383838700
0383838700
0383838700
0383838380
0383838380
0383838380
0383838380
07038381c0
07038381c1
07038381e1
06038380e3
0e03838073
0c0383807e
1c0383803e
180303801f
300003800f
6000030006
ENDCHAR
STARTCHAR 244b
ENCODING 9291
SWIDTH 903 0
DWIDTH 40 0
BBX 40 40 0 -6
BITMAP
0000000000
0c00030000
070001c000
038000e000
01c0007000
01c0007800
00c0003800
0000003800
000000180c
000800001e
000bffffff
c018038000
7010038000
3830038000
1c30038000
1c60038000
0c60038030
0060038078
00c003fffc
00c007003c
01c0070038
0180070038
0380070038
0300070038
07000e0038
07000e0038
0e000e0038
1e001c0038
fe001c0038
3c00380078
1c00380070
1c00700070
0e007000f0
0e00e000e0
0f01c001e0
0f038003c0
0f0701ff80
060e003f00
001c000e00
0070000c00
ENDCHAR
STARTCHAR 244c
ENCODING 9292
SWIDTH 903 0
DWIDTH 40 0
BBX 40 40 0 -6
BITMAP
0000000000
0c00000010
0700000038
0381fffffc
01c00e0380
01c00e0380
00c00e0380
00000e0380
00000e0380
00080e0380
00080e0380
c0180e0380
70100e0380
38300e0380
1c300e0380
1c600e0384
0c600e038e
0067ffffff
00c00e0380
00c00e0380
01c00e0380
01800e0380
03800e0380
03001c0380
07001c0380
07001c0380
0e001c0380
1e001c0380
fe00380380
3c00380380
1c00380380
1c00700380
0e00700380
0e00e00380
0f00e00380
0f01c00380
0f01800380
0f03000380
0606000380
000c000300
ENDCHAR
STARTCHAR 244d
ENCODING 9293
SWIDTH 903 0
DWIDTH 40 0
BBX 40 40 0 -6
BITMAP
00000c0180
0c000f81f0
07000f01e0
03800e01c0
01c00e01c0
01c00e01c0
00c00e01c0
00000e01c0
00000e01c0
00080e01c4
0009fffffe
c0180e01c0
70100e01c0
38300e01c0
1c300e01c0
1c600e01c0
0c600e01c0
00600e01c0
00c00e01c0
00c00e01c0
01c00e01c0
01800e01c6
0383ffffff
03000e01c0
07000e01c0
07000e01c0
0e000e01c0
1e001c01c0
fe001c01c0
3c001c01c0
1c001801c0
1c003801c0
0e003001c0
0e007001c0
0f006001c0
0f00c001c0
0f018001c0
0f030001c0
06060001c0
000c000180
ENDCHAR
STARTCHAR 244e
ENCODING 9294
SWIDTH 903 0
DWIDTH 40 0
BBX 40 40 0 -6
BITMAP
0000000000
0c00000000
0700000000
0380000060
01c00000f0
01c07ffff8
00c0000000
0000000000
0000000000
0008000000
0008000000
c018000000
7010000000
3830000000
1c3000000c
1c6000001e
0c63ffffff
0060038000
00c0038000
00c0038000
01c0038000
0180070000
0380070000
0300070000
07000e0000
07000e0000
0e000c0000
1e001c0000
fe001800c0
3c00380060
1c00300070
1c00700038
0e006007fc
0e00e0fe1e
0f01ffe01e
0f01fe000e
0f00f0000e
0f00700006
0600000000
0000000000
ENDCHAR
STARTCHAR 244f
ENCODING 9295
SWIDTH 903 0
DWIDTH 40 0
BBX 40 40 0 -6
BITMAP
0000018000
0c0001f000
070001e000
038001c300
01c001c1c0
01c001c0e0
00c001c070
000001c070
000001c030
000801c000
000801c000
c01801c00c
7013fffffe
383001c000
1c3001c000
1c6001c000
0c6001c000
006001c000
00c0038000
00c003b000
01c003bc00
018003b800
0380073800
0300073800
0700073800
07000e3800
0e000e3800
1e001c3800
fe001c3800
3c00383800
1c00383801
1c00703801
0e00703803
0e00e03803
0f01c03806
0f03803c0e
0f07003fff
0f0e001fff
061c000ffe
0070000000
ENDCHAR
STARTCHAR 2450
ENCODING 9296
SWIDTH 903 0
DWIDTH 40 0
BBX 40 40 0 -6
BITMAP
0001800000
1801f00000
0e01e00000
0701c0000c
0701c0001e
0301c1ffff
0001c00e0f
0001c00e0e
0001c00e0e
0021c00e0e
0021c20e0e
c061c70e0e
707fff8e0e
3861c00e0e
38c1c00e0e
18c1c00e0e
00c1c00e0e
01c1c00e0e
0181c00e0e
0181c00e0e
0381c00e0e
0301c00e0e
0301c00e0e
0701c01c0e
0601c01c0e
0e01c31c0e
0e01c61c0e
1e01dc380e
fc01f8380e
3c01f0700e
1c01e0701e
1c01c0e01c
0e00c0e01c
0e0001c03c
0f00038038
0f000700f8
0f000e3ff0
0f001c07e0
06007001c0
0001c00180
ENDCHAR
STARTCHAR 2451
ENCODING 9297
SWIDTH 903 0
DWIDTH 40 0
BBX 40 40 0 -6
BITMAP
0000006000
0c00007800
0700007000
0380007180
01c00070e0
01c0007070
00c0007070
0000007030
0000007000
0008007000
0008007008
c01800701c
7011fffffe
3830007000
1c30007000
1c60007000
0c60007000
0060007000
00c000f800
00c000f800
01c000f800
018000d800
038001cc00
030001cc00
070001cc00
0700038600
0e00038600
1e00038700
fe00070300
3c00070380
1c000e01c0
1c000e01e0
0e001c00f0
0e003c00f8
0f0038007c
0f0070003f
0f00e0001f
0f01c0000e
0603800006
000e000000
ENDCHAR
STARTCHAR 2452
ENCODING 9298
SWIDTH 903 0
DWIDTH 40 0
BBX 40 40 0 -6
BITMAP
0000030000
0c0003e000
070003c000
0380038000
01c0038000
01c0038000
00c0038000
0000038000
0000038000
000803800c
000803801e
c01bffffff
7010070000
3830070000
1c30070000
1c60070000
0c600e0c00
00600e0f80
00c00e0f00
00c01c1e00
01c01c1c00
01801c1c00
0380383800
0300383800
0700707000
0700707000
0e0060e000
1e00e0e000
fe00c1c000
3c01c1c0c0
1c01838060
1c03830030
0e07070018
0e060e001c
0f0c0e000e
0f181c07fe
0f303fff0f
0f003fc00f
06001c0007
00000c0006
ENDCHAR
STARTCHAR 2453
ENCODING 9299
SWIDTH 903 0
DWIDTH 40 0
BBX 40 40 0 -6
BITMAP
0000000000
0c00000000
0700000000
0380000000
01c0000000
01c0c0000c
00c0e0001e
0000ffffff
0000e0000f
0008e0000e
0008e0000e
c018e0000e
7010e0000e
3830e0000e
1c30e0000e
1c60e0000e
0c60e0000e
0060e0000e
00c0e0000e
00c0fffffe
01c0e0000e
0180e0000e
0380e0000e
0300e0000e
0700e0000e
0700e0000e
0e00e0000e
1e00e0000e
fe00e0000e
3c00e0000e
1c00e0000e
1c00fffffe
0e00e0000e
0e00e0000e
0f00e0000c
0f00c00000
0f00000000
0f00000000
0600000000
0000000000
ENDCHAR
STARTCHAR 2454
ENCODING 9300
SWIDTH 903 0
DWIDTH 40 0
BBX 40 40 0 -6
BITMAP
0000003000
0c00003e00
0700003c00
0380003800
01c0003800
01c0003800
00c0003800
0000003800
0000003800
0008003800
0008003800
c018003800
7010603800
38307c3800
1c30783800
1c60703800
0c60703810
0060703838
00c0703ffc
00c0703800
01c0703800
0180703800
0380703800
0300703800
0700703800
0700703800
0e00703800
1e00703800
fe00703800
3c00703800
1c00703800
1c00703800
0e00703800
0e00703800
0f00703800
0f00703804
0f0070380e
0f1fffffff
0600000000
0000000000
ENDCHAR
STARTCHAR 2455
ENCODING 9301
SWIDTH 903 0
DWIDTH 40 0
BBX 40 40 0 -6
BITMAP
0000060000
0c00030000
0700018000
038001c000
01c000c000
01c000e000
00c180e018
0001c0603c
0001fffffe
0009c0701e
0009c0701c
c019c0701c
7011c0701c
3831c0f81c
1c31c0f81c
1c61c0f81c
0c61c1dc1c
0061c1cc1c
00c1c18e1c
00c1c3861c
01c1c3071c
0181c7039c
0381c603dc
0301ce01fc
0701cc01fc
0701d800dc
0e01f0001c
1e01e0001c
fe01c0001c
3c01c0001c
1c01c0001c
1c01c0001c
0e01c0001c
0e01c0001c
0f01c0001c
0f01c0007c
0f01c00ffc
0f01c001f8
0601c00070
0001800060
ENDCHAR
STARTCHAR 2456
ENCODING 9302
SWIDTH 903 0
DWIDTH 40 0
BBX 40 40 0 -6
BITMAP
0000018000
0c0001f000
070001e000
038003c000
01c0038000
01c0078000
00c0070000
00000e0000
00000e0000
00081c0000
00081c0180
c0183800c0
7010700060
3830700070
1c30e00038
1c61c00ffc
0c63fffe3c
0063ff0e1c
00c1e70e1c
00c0e70e0c
01c0070e00
0180070e00
0380070e00
0300070e00
0700070e00
0700070e00
0e000e0e00
1e000e0e00
fe000e0e00
3c001c0e00
1c001c0e00
1c00380e01
0e00380e01
0e00700e03
0f00e00e03
0f01c00f06
0f03800fff
0f070007ff
061c0003fe
0070000000
ENDCHAR
STARTCHAR 2457
ENCODING 9303
SWIDTH 903 0
DWIDTH 40 0
BBX 40 40 0 -6
BITMAP
0000300000
0c003e0000
07003c0000
0380380000
01c0380000
01c0380000
00c0700000
000070000c
000070001e
0008ffffff
0008e3870f
c018c3870e
7011c3870e
383183870e
1c3183870e
1c6307070e
0c63070e0e
0066070e0e
00c40e0e0e
00c00e0e0e
01c00e1c0e
01801c1c0e
03801c1c0e
030038380e
070038380e
070070700e
0e0070700e
1e00e0e00e
fe00c0e00e
3c0181c01e
1c0301c01c
1c0603801c
0e0007003c
0e000e0038
0f001c0078
0f003800f0
0f00707fe0
0f00c00fc0
0600000380
0000000300
ENDCHAR
STARTCHAR 2458
ENCODING 9304
SWIDTH 903 0
DWIDTH 40 0
BBX 40 40 0 -6
BITMAP
0000600030
0c007c003e
070078003c
0380700038
01c0700038
01c0700038
00c0700038
0000700038
0000700038
0008700038
0008700038
c018700038
70107ffff8
3830700038
1c30700030
1c60700000
0c60700000
0060700000
00c0700000
00c0700018
01c070003c
01807ffffe
038070001e
030070001c
070070001c
070070001c
0e00e0001c
1e00e0001c
fe00e0001c
3c00e0001c
1c00c0001c
1c01c0001c
0e01c0001c
0e0180001c
0f0380001c
0f0300001c
0f0700001c
0f0600001c
060c00001c
0018000018
ENDCHAR
STARTCHAR 2459
ENCODING 9305
SWIDTH 903 0
DWIDTH 40 0
BBX 40 40 0 -6
BITMAP
00000001c0
0c000007e0
0700007ff0
0380c7fc00
01c0ffb800
01c0e03800
00c0e03800
0000e03800
0000e03800
0008e03800
0008e03800
c018e03800
7010e03800
3830e03800
1c30e03818
1c60e0383c
0c60fffffe
0060e03800
00c0e03800
00c0e01c00
01c0e01c00
0180e01c00
0380e01c00
0300e00e00
0700e00e00
0700e00e00
0e00e00e00
1e00e00700
fe00e00700
3c00e00380
1c00e00381
1c00e0e1c1
0e00e3c1c3
0e00ef00e3
0f00fe00f6
0f00f8007e
0f00f0003e
0f00e0001f
060060000f
0000000006
ENDCHAR
STARTCHAR 245a
ENCODING 9306
SWIDTH 903 0
DWIDTH 40 0
BBX 40 40 0 -6
BITMAP
0000000000
0c00000000
0700600018
038070003c
01c07ffffe
01c0700000
00c0700000
0000700000
0000700000
0008700000
0008700000
c018700060
70107000f0
38307ffff8
1c30710078
1c60710070
0c60710070
0060718070
00c07180e0
00c07080e0
01c070c0e0
018070c1c0
03807041c0
03007061c0
0700e06380
0700e03380
0e00e03700
1e00e03f00
fe00c01e00
3c01c01e00
1c01c03f00
1c01803f80
0e038073c0
0e0300e1e0
0f0701c0f8
0f0603807f
0f0c07003f
0f180e001e
0630380006
0000e00000
ENDCHAR
STARTCHAR 245b
ENCODING 9307
SWIDTH 903 0
DWIDTH 40 0
BBX 40 40 0 -6
BITMAP
000000c000
0c0000f800
070000f000
038000e000
01c000e000
01c000e000
00c000e000
000000e00c
000000e01e
000fffffff
000800e000
c01800e000
701000e000
383000e000
1c3000e000
1c6000e060
0c6000e0f0
0061fffff8
00c02000f8
00c03000e0
01c01000e0
01801801c0
03800801c0
03000c0380
0700060380
0700070700
0e00038e00
1e0001ce00
fe0001fc00
3c0000f800
1c00007800
1c0000fc00
0e0001df00
0e00038fc0
0f000703f8
0f001c01ff
0f0038007f
0f00e0001e
0603800006
001e000000
ENDCHAR
STARTCHAR 245c
ENCODING 9308
SWIDTH 903 0
DWIDTH 40 0
BBX 40 40 0 -6
BITMAP
0000300000
0c003e0000
07003c0000
0380380000
01c0380000
01c0380000
00c0700010
0000700038
00007ffffc
0008e07000
0008e07000
c018c07000
7011c07000
3831807000
1c33807000
1c63007000
0c66007000
0064007000
00c0007004
00c000700e
01c7ffffff
0180007000
0380007000
0300007000
0700007000
0700007000
0e00007000
1e00007000
fe00007000
3c00007000
1c00007000
1c00007000
0e00007000
0e00007000
0f00007000
0f00007000
0f00007000
0f00007000
0600007000
0000006000
ENDCHAR
STARTCHAR 245d
ENCODING 9309
SWIDTH 903 0
DWIDTH 40 0
BBX 40 40 0 -6
BITMAP
0000006000
1800307c00
0e003c7800
0700387000
0700387000
0300707000
0000707000
0000707000
0000e07000
0020e07000
0020e07000
c061c07000
7061c07000
3861c07008
38c3c0701c
18c3c07ffe
00c7c07000
01c7c07000
018dc07000
018dc07000
0399c07000
0311c07000
0301c07000
0701c07000
0601c07000
0e01c07000
0e01c07000
1e01c07000
fc01c07001
3c01c07001
1c01c07003
1c01c07003
0e01c07006
0e01c07006
0f01c0700e
0f01c0781f
0f01c07fff
0f01c03ffe
0601c01ff8
0001800000
ENDCHAR
STARTCHAR 245e
ENCODING 9310
SWIDTH 903 0
DWIDTH 40 0
BBX 40 40 0 -6
BITMAP
0000000000
0300000000
03e0000000
03c0000000
0380000030
0380000078
0380fffffc
0380007000
0380007000
0398007000
839e007000
c39c007000
63b8007000
73b0007000
3be0007000
3bc0007000
3b80007000
1b80007000
0380007000
0380007000
0380007000
0380007000
0380007000
0380007000
0700007000
0700007000
0780007000
07c0007000
0e60007000
0e70007000
0c38007000
1c3c007000
181c007000
381c007000
300c00700c
700000701e
6003ffffff
c000000000
8000000000
0000000000
ENDCHAR
STARTCHAR 245f
ENCODING 9311
SWIDTH 903 0
DWIDTH 40 0
BBX 40 40 0 -6
BITMAP
0000003000
0300003e00
03e0003c00
03c0303800
03803e3800
03803c3800
0380383800
0380383800
0380383800
0398383800
839e383818
c39c38383c
63b8383ffe
73b03ff83e
3be3f83838
3bc0383838
3b80383838
1b80383838
0380383870
0380383870
0380383870
0380383860
03803838e0
03803838e0
07003838c0
07003838c0
0780383880
07c0383800
0e60383800
0e70383000
0c38380001
1c3c380001
181c380003
381c380003
300c380006
70003c000e
60003fffff
c0001fffff
80000ffffe
0000000000
ENDCHAR
STARTCHAR 2460
ENCODING 9312
SWIDTH 903 0
DWIDTH 40 0
BBX 40 40 0 -6
BITMAP
0180000000
01f0000018
01e000003c
31c0fffffe
3dc000e01e
39c000e01c
39c000e01c
39c000e01c
39c000e01c
39cc00e01c
3ffe00e01c
71c000e01c
71c0c0e01c
61c060e01c
61c030e01c
c1c038e01c
c1c01ce01c
81c01ee01c
01c00ee01c
01c00fc01c
01ce07c01c
01f801c01c
0fe001c01c
ffc001c01c
fdc003801c
71c003801c
31c003801c
01c007001c
01c007001c
01c00e003c
01c00c0038
01c01c0038
01c0380078
01c0300070
01c06000f0
01c0c001e0
01c180ffc0
01c3001f80
01c6000700
018c000600
ENDCHAR
STARTCHAR 2461
ENCODING 9313
SWIDTH 903 0
DWIDTH 40 0
BBX 40 40 0 -6
BITMAP
0000000000
0060060000
6078038000
30f001c000
18e000e000
0dc000f000
0780007000
0700007000
078000300c
0d8000001e
19c7ffffff
30c000e000
60e000e000
c0e000e000
006000e000
007000e000
00f000e000
00f000e000
01f000f800
01f800ee00
03b800e780
073800e3c0
063800e1e0
0c3800e0f0
183800e070
303800e070
603800e030
c03800e000
003800e000
003800e000
003800e000
003800e000
007800e000
007000e000
00f000e000
01e000e000
3fe000e000
0fc000e000
038000e000
030000c000
ENDCHAR
STARTCHAR 2462
ENCODING 9314
SWIDTH 903 0
DWIDTH 40 0
BBX 40 40 0 -6
BITMAP
0000000000
0060000010
6078000038
30f03ffffc
18e00e0700
0dc00e0700
07800e0700
07000e0700
07801c0700
0d801c0700
19c01c0700
30c01c0700
60e0380700
c0e0380700
0060380704
007038070e
00f07fffff
00f0300f00
01f0001f00
01f8001f00
03b8003f00
0738003f00
0638007700
0c38007700
183800e700
303801c700
603801c700
c038038700
0038070700
0038070700
00380e0700
00381c0700
0078380700
0070700700
00f0e00700
01e1c00f00
3fe703ff00
0fc0007e00
0380001c00
0300001800
ENDCHAR
STARTCHAR 2463
ENCODING 9315
SWIDTH 903 0
DWIDTH 40 0
BBX 40 40 0 -6
BITMAP
0000000000
0060000000
60780000c0
30f00001e0
18e07ffff0
0dc00380f0
07800380e0
07000380e0
07800380e0
0d800380e0
19c00380e0
30c00380e0
60e00380e0
c0e00380e0
00600380e0
00700380e0
00f00380e0
00f00380e0
01f00380e6
01f9ffffff
03b80701c0
07380701c0
06380701c0
0c380701c0
18380701c0
30380701c0
60380701c0
c0380701c0
00380701c0
00380701c0
00380701c0
00380701c0
00780701c0
00700701c0
00f00701c0
01e00701c4
3fe00701ce
0fc1ffffff
0380000000
0300000000
ENDCHAR
STARTCHAR 2464
ENCODING 9316
SWIDTH 903 0
DWIDTH 40 0
BBX 40 40 0 -6
BITMAP
0000003000
0060003e00
6078003c00
30f0003800
18e0003800
0dc0003800
0780003800
0700003800
0780603818
0d8070383c
19c07ffffe
30c070381e
60e070381c
c0e070381c
006070381c
007070381c
00f070381c
00f070381c
01f070381c
01f870381c
03b870381c
073870381c
063870381c
0c387ffffc
183870381c
303870381c
6038603818
c038003800
0038003800
0038003800
0038003800
0038003800
0078003800
0070003800
00f0003800
01e0003800
3fe0003800
0fc0003800
0380003800
0300003000
ENDCHAR
STARTCHAR 2465
ENCODING 9317
SWIDTH 903 0
DWIDTH 40 0
BBX 40 40 0 -6
BITMAP
0000006000
0060007c00
6078007800
30f000f000
18e000e000
0dc001e000
078001c000
0700038000
0780038000
0d80070000
19c00700c0
30c00e0060
60e01c0030
c0e01c0038
006038001c
00707007fe
00f0ffff1e
00f0ffc70e
01f079c70e
01f839c706
03b801c700
073801c700
063801c700
0c3801c700
183801c700
303801c700
6038038700
c038038700
0038038700
0038070700
0038070700
00380e0701
00780e0701
00701c0703
00f0380703
01e0700786
3fe0e007ff
0fc1c003ff
03870001fe
031c000000
ENDCHAR
STARTCHAR 2466
ENCODING 9318
SWIDTH 903 0
DWIDTH 40 0
BBX 40 40 0 -6
BITMAP
0000030000
006001c000
607800e000
30f000f000
18e0007000
0dc0007008
078000301c
0701fffffe
0780000000
0d80000000
19c0000000
30c0000000
60e00c0300
c0e00e0780
00600fffc0
00700e03c0
00f00e0380
00f00e0380
01f00e0380
01f80e0380
03b80e0380
07380e0380
06380e0380
0c380e0380
18380e0380
30381c0380
60381c0380
c0381c0380
00381c0380
0038380380
0038380380
0038380381
0078700381
0070700383
00f0e00383
01e1c003c6
3fe38003ff
0fc70001ff
038e0000fe
0338000000
ENDCHAR
STARTCHAR 2467
ENCODING 9319
SWIDTH 903 0
DWIDTH 40 0
BBX 40 40 0 -6
BITMAP
0000000000
0060000000
60780000e0
30f0001ff0
18e003fff8
0dc07ff800
0780003800
0700003800
0780003800
0d80003800
19c0003800
30c0003800
60e0003800
c0e0003800
0060003800
0070003800
00f0003800
00f0003810
01f0003838
01f87ffffc
03b8003800
0738003800
0638003800
0c38003800
1838003800
3038003800
6038003800
c038003800
0038003800
0038003800
0038003800
0038003800
0078003800
0070003800
00f0003800
01e0003804
3fe000380e
0fc1ffffff
0380000000
0300000000
ENDCHAR
STARTCHAR 2468
ENCODING 9320
SWIDTH 903 0
DWIDTH 40 0
BBX 40 40 0 -6
BITMAP
0000000000
0000000010
0000000038
00107ffffc
0038003800
fffc003800
0700003800
0700003800
0700003800
0700003800
0700003800
0700003800
0700003800
0700003800
0700003800
0700003804
073000380e
7ff9ffffff
0700003800
0700003800
0700003800
0700003800
0700003800
0700003800
0700003800
0700003800
0700003800
0700003800
071c003800
07f0003800
0fc0003800
ff00003800
fc00003800
7000003800
3000003800
0000003800
0000003800
0000003800
0000003800
0000003000
ENDCHAR
STARTCHAR 2469
ENCODING 9321
SWIDTH 903 0
DWIDTH 40 0
BBX 40 40 0 -6
BITMAP
0000000000
0000000010
0000000038
00107ffffc
0038003800
fffc003800
0700003800
0700003800
0700003800
0700003800
0700003800
0700003800
0700003800
0700003800
070000380c
070000381e
0731ffffff
7ff8003800
0700003800
0700003800
0700003800
0700003800
0700003800
0700003800
0700003800
0700003800
0700003800
0700003800
071c003800
07f0003800
0fc0003800
ff00003800
fc00003800
7000003800
3000003800
0000007800
00001ff800
000003f000
000000e000
000000c000
ENDCHAR
STARTCHAR 246a
ENCODING 9322
SWIDTH 903 0
DWIDTH 40 0
BBX 40 40 0 -6
BITMAP
00000c0000
00000f8000
00000f0000
00100e0000
00380e0000
fffc0e0000
07001c0000
07001c0018
07001c003c
07003ffffe
070038001e
070030001c
070070001c
070060001c
0700e0001c
0700c0001c
073180001c
7ff906001c
070003801c
070001c01c
070000e01c
070000701c
070000781c
070000381c
070000181c
070000001c
070000001c
070000001c
071c00001c
07f000001c
0fc000003c
ff00000038
fc00000038
7000000078
3000000070
00000001f0
000000ffe0
0000000fc0
0000000380
0000000300
ENDCHAR
STARTCHAR 246b
ENCODING 9323
SWIDTH 903 0
DWIDTH 40 0
BBX 40 40 0 -6
BITMAP
0000000000
0000600018
00007c001f
001078001e
003870301c
fffc703e1c
0700703c1c
070070381c
070070381c
070070381c
070070381c
070070381c
070070381c
070070381c
070070381c
070070381c
073070381c
7ff870381c
070070381c
070070381c
070070381c
070070381c
070070381c
070070381c
070070381c
0700e0381c
0700e0381c
0700e0381c
071ce0381c
07f0c0381c
0fc1c0381c
ff01c0381c
fc0180381c
700380381c
300300301c
000700001c
000600001c
000c00001c
001800001c
0030000018
ENDCHAR
STARTCHAR 246c
ENCODING 9324
SWIDTH 903 0
DWIDTH 40 0
BBX 40 40 0 -6
BITMAP
0000000000
0000000000
0000000030
0010000078
0038fffffc
fffc007000
0700007000
0700007000
0700007000
0700007000
0700007000
0700007000
0700007000
0700007000
0700007000
0700007000
0730007000
7ff8007000
0700007000
0700007000
0700007000
0700007000
0700007000
0700007000
0700007000
0700007000
0700007000
0700007000
071c007000
07f0007000
0fc0007000
ff00007000
fc00007000
7000007000
300000700c
000000701e
0007ffffff
0000000000
0000000000
0000000000
ENDCHAR
STARTCHAR 246d
ENCODING 9325
SWIDTH 903 0
DWIDTH 40 0
BBX 40 40 0 -6
BITMAP
0000000000
0000000000
000000000c
000000001e
0000ffffff
0018001c00
603c001c00
7ffe001c00
631e001c00
631c001c00
631c001c00
631c001c00
631c001c00
631c001c00
631c001c00
631c001c00
631c001c00
631c001c00
7ffc001c00
631c001c00
631c001c00
631c001c00
631c001c00
631c001c00
631c001c00
631c001c00
631c001c00
631c001c00
631c001c00
7ffc001c00
601c001c00
6018001c00
6000001c00
0000001c00
0000001c00
0000003c00
00000ffc00
000001f800
0000007000
0000006000
ENDCHAR
STARTCHAR 246e
ENCODING 9326
SWIDTH 903 0
DWIDTH 40 0
BBX 40 40 0 -6
BITMAP
0000300000
00003e0000
00003c0000
0000380000
0180380600
01c0380f00
01ffffff80
01c0380780
01c0380700
01c0380700
01c0380700
01c0380700
01ffffff00
01c0380700
01c0380700
01c0380700
01c0380700
01c0380700
01ffffff00
0180000600
000000000c
000000001e
ffffffffff
000e000000
000e000000
000e000000
001c000600
001c000f00
003fffff80
0018000780
0000000700
0000000700
0000000f00
0000000e00
0000001e00
0000003c00
00003ff800
000003f000
000000e000
000000c000
ENDCHAR
STARTCHAR 246f
ENCODING 9327
SWIDTH 903 0
DWIDTH 40 0
BBX 40 40 0 -6
BITMAP
0000180000
00000e0000
0000070000
030007000c
038003001e
03ffffffff
0380000000
0380000000
0380000000
c380000000
6380000018
738000003c
3b9ffffffe
3b8001c000
1b8001c000
038001c000
038001c000
038001c000
038001c000
038001c000
038001c000
078001c000
0f8001c000
3b8001c000
f38001c000
e38001c000
670001c000
070001c000
070001c000
070001c000
0e0001c000
0e0001c000
0c0001c000
1c0001c000
180001c000
380003c000
3000ffc000
60001f8000
4000070000
0000060000
ENDCHAR
STARTCHAR 2470
ENCODING 9328
SWIDTH 903 0
DWIDTH 40 0
BBX 40 40 0 -6
BITMAP
0000180000
00000e0000
0000070000
030007000c
038003001e
03ffffffff
0380000000
0380000000
0380000000
c383000000
6383e00000
7383c00000
3b83800000
3b83800000
1b83800180
03838003c0
03838007e0
0383801f00
0383803c00
038380f000
038383c000
07838f0000
0f83bc0000
3b83e00000
f383800000
e383800000
6703800000
0703800000
0703800000
0703800002
0e03800002
0e03800006
0c03800006
1c0380000c
180380001c
3803c0003e
3003fffffe
6001fffffc
4000fffff0
0000000000
ENDCHAR
STARTCHAR 2471
ENCODING 9329
SWIDTH 903 0
DWIDTH 40 0
BBX 40 40 0 -6
BITMAP
0000c00000
0000f00000
0001c00000
0001800000
0183000600
01c6000f00
01ffffff80
01c0000780
01c0000700
01c0000700
01c0000700
01c0000700
01c0000700
01ffffff00
01c0000700
01c0000700
01c0000700
01c0000700
01c0000700
01c0000700
01ffffff00
01c0380700
0180380600
0000380000
0000380000
000038000c
000038001e
ffffffffff
0000380000
0000380000
0000380000
0000380000
0000380000
0000380000
0000380000
0000380000
0000380000
0000380000
0000380000
0000300000
ENDCHAR
STARTCHAR 2472
ENCODING 9330
SWIDTH 903 0
DWIDTH 40 0
BBX 40 40 0 -6
BITMAP
1800000000
0c00000180
0e000003c0
0700ffffe0
07000701e0
03000701c0
00300701c0
00780701c0
7ffc0701c0
003c070380
0038070380
0070070380
0070070380
00e0070700
00e007070c
01c007071e
01c00e0fff
03800e060f
07800e000e
07e00e000e
0fb00e000e
1f980e000e
1b9c1c000e
338c1c000e
638c1c000e
c38038000e
038038000e
038038000e
038038000e
038070000e
038070001e
0380e0001c
0380e0001c
0381c0003c
0381c00038
03838000f8
0383007ff0
03860007e0
038c0001c0
0318000180
ENDCHAR
STARTCHAR 2473
ENCODING 9331
SWIDTH 903 0
DWIDTH 40 0
BBX 40 40 0 -6
BITMAP
0000000000
0000830000
0001c3e000
ffffe3c000
1c0e038000
1c0e038000
1c0e038000
1c0e038000
1c0e038000
1c0e038000
1c0e038000
1c0e038000
1ffe038000
1c0e038000
1c0e038000
1c0e038000
1c0e038000
1c0e038000
1c0e038000
1c0e038000
1c0e038000
1ffe038000
1c0e038000
1c0e038000
1c0e038000
1c0e038000
1c0e038000
1c0e038000
1c0e038001
1c7e038001
1fce038003
ff0e038003
fc0e038006
700e038006
300e03800e
000e03c01f
000e03ffff
000e01fffe
000e00fff8
000c000000
ENDCHAR
STARTCHAR 2474
ENCODING 9332
SWIDTH 903 0
DWIDTH 40 0
BBX 40 40 0 -6
BITMAP
0000000000
0030000018
187800003c
1ffc7ffffe
1c3c00701e
1c3800701c
1c3800701c
1c3800701c
1c3800701c
1c3800701c
1c3800701c
1f3800701c
1df860701c
1cf830701c
1c7818701c
1c381c701c
1c380e701c
1c380f701c
1c3807701c
1c3807e01c
1c3803e01c
1c7800e01c
1df800e01c
1fb800e01c
1f3801c01c
1c3801c01c
183801c01c
183803801c
383803801c
383807003c
3838060038
30380e0038
30381c0078
7038180070
60783000f0
67f86001e0
40f0c0ffc0
c0e1801f80
80c3000700
0006000600
ENDCHAR
STARTCHAR 2475
ENCODING 9333
SWIDTH 903 0
DWIDTH 40 0
BBX 40 40 0 -6
BITMAP
0000000000
0060000600
0070000f00
007fffff80
0070000780
0070000700
0070000700
0070000700
0070000700
0070000700
0070000700
007fffff00
0060000600
0000000000
0000000000
0000000000
0060000700
007fffff80
0070000780
0070000700
0070000700
0073e00700
00707c0700
00701f0700
0070078700
0070038700
0070000700
0070000700
00e001e700
00e00f0700
00e0fc0700
00cfe00700
01cf800700
0187000700
0383000700
0300000f00
060007ff00
0c00007e00
1800001c00
3000001800
ENDCHAR
STARTCHAR 2476
ENCODING 9334
SWIDTH 903 0
DWIDTH 40 0
BBX 40 40 0 -6
BITMAP
0000030000
181803e000
1c3c03c000
1ffe038000
1c1e038000
1c1c038000
1c1c07000c
1c1c07001e
1c1c0fffff
1c1c0e0000
1c1c1c0000
1f1c180000
1ddc300000
1cfc600000
1c7cc00000
1c1c000180
1c1c0003c0
1c1c1fffe0
1c1c0001e0
1c1c000380
1c1c000700
1c3c000e00
1cfc001c00
1fdc003800
1f9c007000
3b1c00e000
381c01c000
381c038000
381c070000
381c0e0000
381c1c0001
381c1c0001
701c380003
701c380003
603c380006
67fc3c000e
40781fffff
c0700fffff
806003fffe
0000000000
ENDCHAR
STARTCHAR 2477
ENCODING 9335
SWIDTH 903 0
DWIDTH 40 0
BBX 40 40 0 -6
BITMAP
0000060000
003007c000
1878078000
1ffc070000
1c3c070000
1c38070000
1c38070000
1c38070000
1c38070000
1c38070180
1c380703c0
1f39ffffe0
1df80701e0
1cf80701c0
1c780701c0
1c380701c0
1c380701c0
1c380701c0
1c380701c0
1c380781c0
1c3807c1c0
1c780761c0
1df80771c0
1fb80e71c0
1f380e39c0
1c380e39c0
18380e39c0
18381c19c0
38381c01c0
38381c01c0
38383801c0
30383801c1
30387001c1
70387001c3
6078e001c3
67f8c001e6
40f18001ff
c0e30000ff
80c600007e
000c000000
ENDCHAR
STARTCHAR 2478
ENCODING 9336
SWIDTH 903 0
DWIDTH 40 0
BBX 40 40 0 -6
BITMAP
0000000000
180c0000c0
1c1e0000f8
1fff0001f0
1c0f0003c0
1c0e000780
1c0e000f00
1c0e001c00
1c0e007800
1c0e00e000
1c0e038000
1f0e0e0000
1dee380000
1c7e000060
1c3e00007c
1c0e0000f8
1c0e0001e0
1c0e0003c0
1c0e000780
1c0e000f00
1c0e001c00
1c3e007800
1cee00e000
1fce03c000
1f8e0f0000
1d0e780018
1c0e00001f
380e00003e
380e000078
380e0000f0
380e0001e0
300e0003c0
700e000780
700e000f00
601e003c00
67fe007800
c1fc01e000
c078078000
80701e0000
0000f00000
ENDCHAR
STARTCHAR 2479
ENCODING 9337
SWIDTH 903 0
DWIDTH 40 0
BBX 40 40 0 -6
BITMAP
0060001800
007c001f00
0078001e00
0071801c0c
0073c01c1e
ffffe7ffff
0070001c00
0070001c00
0070001c00
0060001800
000000000c
000000001e
ffffffffff
0000380000
0000380000
0000380000
0000380000
0000380000
0000380000
00003e0000
00003b8000
000038e000
0000387800
0000383c00
0000381e00
0000380f00
0000380700
0000380300
0000380000
0000380000
0000380000
0000380000
0000380000
0000380000
0000380000
0000380000
0000380000
0000380000
0000380000
0000300000
ENDCHAR
STARTCHAR 247a
ENCODING 9338
SWIDTH 903 0
DWIDTH 40 0
BBX 40 40 0 -6
BITMAP
0060001800
007c001f00
0078001e00
0070001c00
0071801c0c
0073c01c1e
ffffe7ffff
0070001c00
0070001c00
0070001c00
0070001c00
0060001800
0000000000
0000300000
00003e0000
00003c0000
0000380000
0000380000
0000380000
0000380000
0000380000
0000380000
0000380180
00003803c0
07ffffffe0
0000380000
0000380000
0000380000
0000380000
0000380000
0000380000
0000380000
0000380000
0000380000
0000380000
000038000c
000038001e
ffffffffff
0000000000
0000000000
ENDCHAR
STARTCHAR 247b
ENCODING 9339
SWIDTH 903 0
DWIDTH 40 0
BBX 40 40 0 -6
BITMAP
0060001800
007c001f00
0078001e00
0070801c04
0071c01c0e
ffffe7ffff
0070001c00
0070001c00
0070001c00
0060001800
0000300000
00003e0000
00003c7000
0000381c00
0000380e00
0000380700
0000380700
0000380308
000038001c
7ffffffffe
00001c0000
00001c0000
00001c0000
00001c0000
00000e0000
00000e0000
00000e0000
0000070000
0000070000
0000038000
000003c000
000001e001
000000f001
0000007803
0000003c03
0000001f06
0000000fee
00000003ff
00000000ff
000000003e
ENDCHAR
STARTCHAR 247c
ENCODING 9340
SWIDTH 903 0
DWIDTH 40 0
BBX 40 40 0 -6
BITMAP
0060001800
007c001f00
0078001e00
0070801c04
0071c01c0e
ffffe7ffff
0070001c00
0070001c00
0070001c00
0060001800
0000000000
0000000300
0000000780
03ffffffc0
00000003c0
0000000380
0000000380
0000000380
00c0000380
00ffffff80
00e0000300
00e0000000
01c0000000
01c0000000
03800000c0
03800001e0
07fffffff0
03000001f0
00000001c0
00000001c0
00000001c0
00000003c0
0000000380
0000000780
0000000f00
0000001e00
00001ffc00
000001f800
0000007000
0000006000
ENDCHAR
STARTCHAR 247d
ENCODING 9341
SWIDTH 903 0
DWIDTH 40 0
BBX 40 40 0 -6
BITMAP
0060001800
007c001f00
0078001e00
0070801c04
0071c01c0e
ffffe7ffff
0070001c00
0070001c00
0070001c00
0060001800
0000000000
0000000000
0000000300
0000000780
07ffffffc0
00000003c0
0000000380
0000000380
0000000380
0000000380
0000000380
0000000380
0300000380
03ffffff80
0380000380
0380000300
0380000000
0380000000
0380000000
0380000000
0380000008
0380000008
0380000018
0380000018
0380000030
03c0000070
03fffffff8
01fffffff8
00fffffff0
0000000000
ENDCHAR
STARTCHAR 247e
ENCODING 9342
SWIDTH 903 0
DWIDTH 40 0
BBX 40 40 0 -6
BITMAP
0060001800
007c001f00
0078001e00
0070801c04
0071c01c0e
ffffe7ffff
0070001c00
0070001c00
0070001c00
0060001800
0000000000
0000000000
0000000c00
0000001e00
00ffffff00
0000003f00
0000007800
000000e000
0000038000
00001e0000
00001c0000
00001c0000
00001c0000
00001c000c
00001c001e
ffffffffff
00001c0000
00001c0000
00001c0000
00001c0000
00001c0000
00001c0000
00001c0000
00001c0000
00001c0000
00003c0000
001ffc0000
0001f80000
0000700000
0000600000
ENDCHAR
STARTCHAR 2521
ENCODING 9505
SWIDTH 903 0
DWIDTH 40 0
BBX 40 40 0 -6
BITMAP
0060001800
007c001f00
0078001e00
0070801c04
0071c01c0e
ffffe7ffff
0070001c00
0070001c00
0070001c00
0060001800
0000000000
0000000000
0000007800
000007fc00
0000fffe00
001fff0000
03fc380000
0000380000
0000380000
0000380000
0000380000
000038000c
000038001e
ffffffffff
0000380000
0000380000
0000380000
0000380000
0000380000
0000380000
0000380000
0000380000
0000380000
0000380000
0000380000
0000380000
0000380000
0000380000
0000380000
0000300000
ENDCHAR
STARTCHAR 2522
ENCODING 9506
SWIDTH 903 0
DWIDTH 40 0
BBX 40 40 0 -6
BITMAP
0060001800
007c001f00
0078001e00
0070801c04
0071c01c0e
ffffe7ffff
0070001c00
0070001c00
0070001c00
0060001800
0000000000
0000000000
0018003800
001ffffc00
001c003c00
001c003800
001c003800
001c003800
001c003800
001c003800
001ce03800
001c383800
001c1c3800
001c0e3800
001c073800
001c073800
001c033800
001c003800
0038003800
0038003800
0038003801
0070003801
0070003803
00e0003803
01c0003806
0380003c0e
0700003fff
0e00001fff
3800000ffe
6000000000
ENDCHAR
STARTCHAR 2523
ENCODING 9507
SWIDTH 903 0
DWIDTH 40 0
BBX 40 40 0 -6
BITMAP
0060001800
007c001f00
0078001e00
0070801c04
0071c01c0e
ffffe7ffff
0070001c00
0070001c00
0070001c00
0060001800
0003000000
0003e00000
0003c00000
0003800000
0003800000
0003801800
0003803c00
07fffffe00
0003801e00
0003801c00
0003801c00
0003801c00
0003801c00
0003e01c00
0003b81c00
00071c1c00
00070e1c00
0007071c00
000e071c00
000e031c00
001c001c01
001c001c01
0038001c03
0070001c03
00e0001c06
01c0001e0e
0380001fff
0700000fff
1c000007fe
7000000000
ENDCHAR
STARTCHAR 2524
ENCODING 9508
SWIDTH 903 0
DWIDTH 40 0
BBX 40 40 0 -6
BITMAP
0000007000
000001f800
000007fc00
00001fc000
0000fc0000
0007e00060
007e1c00f0
07e00701f8
00380387c0
000e018f00
0007803c00
000380f800
000181e000
000007c000
00001f6000
0000783000
0003e03800
000f007c00
00f800fe00
0fc001e700
0000078380
00000e0380
00003c07c0
0000f00fc0
0003c01fc0
001f007dc0
00f800f1c0
07c003e1c0
00000f81c0
00003e01c0
0000f801c0
0003e003c0
001f000380
00f8000780
0fc0000f00
0000003e00
00003ffc00
000003f800
0000007000
0000006000
ENDCHAR
ENDFONT
